<svg width="353" height="791" viewBox="0 0 353 791" fill="none" xmlns="http://www.w3.org/2000/svg">
<path d="M340.357 427.206C340.332 427.846 340.164 428.293 339.852 428.545C339.559 428.816 339.063 428.939 338.366 428.912L327.712 428.5C327.053 428.475 326.588 428.297 326.318 427.965C326.048 427.634 325.928 427.082 325.957 426.31C325.987 425.538 326.15 424.997 326.445 424.687C326.74 424.378 327.217 424.236 327.876 424.261L336.608 424.599L336.9 417.053L311.042 416.055L310.785 422.724C310.76 423.365 310.592 423.811 310.28 424.063C309.987 424.335 309.491 424.457 308.794 424.43C308.097 424.403 307.603 424.243 307.313 423.948C307.04 423.674 306.917 423.216 306.941 422.576L307.62 404.998C307.645 404.358 307.804 403.901 308.097 403.63C308.409 403.378 308.913 403.265 309.61 403.292C310.308 403.319 310.792 403.47 311.065 403.744C311.355 404.039 311.488 404.506 311.463 405.147L311.206 411.816L337.063 412.814L337.355 405.269L328.623 404.932C327.963 404.906 327.498 404.728 327.228 404.397C326.958 404.066 326.838 403.514 326.868 402.741C326.897 401.969 327.06 401.428 327.355 401.119C327.65 400.809 328.127 400.667 328.786 400.693L339.44 401.104C340.137 401.131 340.622 401.282 340.894 401.557C341.185 401.851 341.318 402.318 341.293 402.959L340.357 427.206Z" fill="black"/>
<path d="M332.67 449.651C332.458 452.377 331.723 454.655 330.465 456.486C329.225 458.337 327.587 459.704 325.551 460.586C323.535 461.469 321.252 461.887 318.703 461.84C318.063 461.79 317.623 461.614 317.382 461.312C317.139 461.028 317.043 460.567 317.093 459.928L318.68 439.514C315.869 439.428 313.68 440.09 312.115 441.5C310.566 442.93 309.683 445.046 309.465 447.847C309.331 449.576 309.414 451.303 309.715 453.029C310.034 454.755 310.511 456.286 311.145 457.622C311.289 457.954 311.351 458.252 311.331 458.515C311.279 459.173 310.74 459.67 309.711 460.006C309.303 460.145 308.94 460.202 308.62 460.177C307.868 460.118 307.318 459.66 306.968 458.8C306.348 457.296 305.889 455.539 305.591 453.531C305.293 451.522 305.222 449.521 305.377 447.529C305.598 444.69 306.331 442.308 307.578 440.381C308.825 438.455 310.513 437.045 312.644 436.152C314.775 435.258 317.25 434.921 320.07 435.14C322.757 435.349 325.091 436.108 327.069 437.415C329.048 438.722 330.522 440.435 331.492 442.553C332.481 444.672 332.874 447.038 332.67 449.651ZM328.582 449.333C328.762 447.021 328.319 445.058 327.253 443.443C326.204 441.849 324.655 440.735 322.605 440.103L321.266 457.331C323.458 457.104 325.174 456.32 326.413 454.979C327.669 453.659 328.392 451.777 328.582 449.333Z" fill="black"/>
<path d="M340.057 487.398C339.979 488.034 339.775 488.465 339.444 488.691C339.129 488.937 338.626 489.019 337.933 488.935L306.826 485.161L305.733 494.173C305.655 494.809 305.451 495.24 305.12 495.466C304.805 495.712 304.301 495.794 303.609 495.71C302.916 495.626 302.437 495.425 302.172 495.108C301.923 494.812 301.837 494.346 301.914 493.709L304.585 471.699C304.662 471.062 304.858 470.621 305.173 470.374C305.504 470.148 306.016 470.078 306.709 470.162C307.401 470.246 307.872 470.436 308.121 470.732C308.386 471.049 308.48 471.526 308.403 472.162L307.337 480.949L336.535 484.492L337.465 476.827C337.542 476.191 337.738 475.749 338.053 475.503C338.384 475.277 338.896 475.206 339.588 475.29C340.281 475.374 340.752 475.564 341.001 475.86C341.266 476.178 341.36 476.654 341.283 477.291L340.057 487.398Z" fill="black"/>
<path d="M325.622 520.425C325.171 523.121 324.239 525.326 322.824 527.04C321.426 528.775 319.674 529.992 317.569 530.691C315.483 531.394 313.172 531.61 310.636 531.339C310.004 531.233 309.581 531.019 309.367 530.697C309.151 530.393 309.095 529.925 309.201 529.293L312.577 509.098C309.784 508.765 307.546 509.231 305.862 510.498C304.194 511.787 303.128 513.817 302.665 516.587C302.379 518.298 302.31 520.026 302.458 521.771C302.625 523.52 302.965 525.087 303.479 526.472C303.593 526.816 303.629 527.119 303.585 527.379C303.476 528.03 302.895 528.477 301.841 528.722C301.423 528.824 301.055 528.849 300.739 528.796C299.995 528.671 299.487 528.166 299.215 527.279C298.729 525.726 298.426 523.936 298.306 521.909C298.186 519.882 298.291 517.883 298.621 515.911C299.09 513.103 300.03 510.795 301.442 508.985C302.853 507.176 304.659 505.92 306.86 505.217C309.061 504.515 311.556 504.397 314.345 504.863C317.005 505.307 319.262 506.268 321.118 507.744C322.974 509.22 324.292 511.056 325.072 513.251C325.871 515.449 326.054 517.84 325.622 520.425ZM321.577 519.749C321.96 517.462 321.691 515.467 320.771 513.765C319.867 512.084 318.422 510.839 316.435 510.029L313.586 527.072C315.79 527.039 317.568 526.409 318.92 525.183C320.287 523.978 321.173 522.166 321.577 519.749Z" fill="black"/>
<path d="M319.402 557.088C318.899 559.371 317.906 561.295 316.422 562.86C314.956 564.429 313.097 565.506 310.845 566.091C308.611 566.68 306.131 566.674 303.406 566.074C300.681 565.474 298.42 564.435 296.621 562.958C294.842 561.484 293.607 559.726 292.919 557.682C292.248 555.642 292.164 553.481 292.667 551.198C293.43 547.736 295.592 545.153 299.153 543.447L288.244 541.043L287.197 545.794C287.06 546.42 286.824 546.831 286.491 547.028C286.136 547.24 285.617 547.27 284.936 547.12C284.255 546.97 283.806 546.726 283.591 546.389C283.353 546.067 283.303 545.592 283.441 544.966L286.021 533.256C286.159 532.63 286.406 532.211 286.761 532C287.094 531.803 287.601 531.78 288.283 531.93C288.964 532.08 289.423 532.316 289.661 532.639C289.876 532.976 289.915 533.458 289.777 534.084L289.157 536.901L317.88 543.229L318.379 540.964C318.517 540.338 318.754 539.917 319.091 539.702C319.443 539.509 319.959 539.488 320.64 539.638C321.321 539.788 321.772 540.022 321.991 540.341C322.225 540.682 322.273 541.165 322.135 541.791L321.167 546.183C321.03 546.809 320.785 547.218 320.434 547.411C320.096 547.626 319.587 547.659 318.906 547.509L316.697 547.022C317.951 548.515 318.815 550.114 319.288 551.821C319.762 553.528 319.8 555.283 319.402 557.088ZM315.375 555.911C315.736 554.272 315.691 552.727 315.238 551.276C314.782 549.844 313.935 548.605 312.698 547.56C311.456 546.534 309.878 545.81 307.964 545.388C306.049 544.966 304.312 544.96 302.755 545.37C301.193 545.798 299.904 546.566 298.888 547.674C297.868 548.801 297.177 550.184 296.816 551.822C296.455 553.461 296.531 554.955 297.045 556.303C297.577 557.656 298.476 558.791 299.741 559.706C301.003 560.641 302.545 561.309 304.368 561.71C306.19 562.112 307.87 562.154 309.408 561.836C310.941 561.537 312.224 560.883 313.257 559.875C314.308 558.871 315.014 557.55 315.375 555.911Z" fill="black"/>
<path d="M312.115 590.173C311.415 592.659 310.221 594.742 308.533 596.421C306.846 598.1 304.836 599.219 302.505 599.777C300.187 600.358 297.766 600.293 295.244 599.582C292.721 598.872 290.614 597.661 288.922 595.951C287.242 594.263 286.121 592.263 285.558 589.95C284.995 587.636 285.064 585.237 285.764 582.751C286.465 580.264 287.659 578.182 289.346 576.502C291.034 574.823 293.036 573.693 295.355 573.112C297.686 572.554 300.113 572.63 302.635 573.341C305.158 574.051 307.259 575.25 308.938 576.938C310.631 578.649 311.758 580.661 312.321 582.974C312.884 585.287 312.815 587.687 312.115 590.173ZM308.086 589.038C308.582 587.278 308.629 585.616 308.227 584.053C307.838 582.514 307.047 581.184 305.854 580.065C304.679 578.951 303.202 578.143 301.424 577.642C299.646 577.141 297.955 577.057 296.354 577.389C294.77 577.726 293.401 578.448 292.248 579.553C291.107 580.681 290.289 582.125 289.793 583.885C289.297 585.646 289.244 587.296 289.633 588.835C290.035 590.398 290.824 591.736 291.998 592.851C293.191 593.97 294.677 594.78 296.455 595.281C298.234 595.782 299.915 595.864 301.499 595.527C303.1 595.194 304.472 594.464 305.612 593.336C306.766 592.231 307.59 590.798 308.086 589.038Z" fill="black"/>
<path d="M299.306 633.296C298.807 634.679 297.985 635.846 296.841 636.796C296.159 637.352 295.482 637.508 294.808 637.265C294.488 637.15 294.145 636.936 293.777 636.623C292.9 635.886 292.58 635.189 292.817 634.533C292.913 634.267 293.073 634.044 293.298 633.865C294.09 633.168 294.666 632.324 295.024 631.33C295.6 629.734 295.62 627.928 295.085 625.911C294.567 623.9 293.575 622.039 292.108 620.327C290.634 618.634 288.86 617.412 286.785 616.664L281.624 614.803L278.39 623.768C278.173 624.371 277.877 624.745 277.504 624.891C277.142 625.061 276.633 625.028 275.977 624.791C275.321 624.555 274.899 624.252 274.711 623.884C274.534 623.54 274.555 623.066 274.772 622.463L280.952 605.33C281.169 604.727 281.459 604.341 281.821 604.171C282.194 604.025 282.709 604.07 283.365 604.307C284.021 604.544 284.438 604.834 284.614 605.178C284.802 605.547 284.787 606.032 284.57 606.635L283.063 610.812L300.409 617.068L301.627 613.689C301.845 613.086 302.134 612.7 302.496 612.53C302.87 612.384 303.384 612.429 304.041 612.666C304.697 612.903 305.113 613.193 305.29 613.537C305.477 613.906 305.463 614.391 305.245 614.994L303.288 620.421C303.07 621.024 302.775 621.399 302.402 621.545C302.04 621.715 301.53 621.682 300.874 621.445L295.5 619.507C296.754 620.921 297.749 622.442 298.484 624.07C299.22 625.699 299.661 627.311 299.807 628.907C299.952 630.502 299.786 631.966 299.306 633.296Z" fill="black"/>
<path d="M298.631 658.183C298.305 658.884 297.946 659.32 297.554 659.491C297.163 659.663 296.668 659.609 296.069 659.331L288.378 655.75L283.472 666.287C283.202 666.869 282.874 667.215 282.489 667.327C282.114 667.464 281.609 667.386 280.977 667.091C280.345 666.797 279.951 666.458 279.797 666.074C279.652 665.715 279.715 665.245 279.986 664.664L284.891 654.127L275.558 649.782C273.61 648.875 272.027 648.544 270.811 648.789C269.587 649.051 268.585 650.019 267.805 651.695C267.272 652.84 266.942 654.152 266.815 655.632C266.687 657.112 266.734 658.62 266.954 660.158C267.013 660.476 266.976 660.781 266.84 661.072C266.57 661.653 265.946 661.966 264.969 662.01C264.421 662.025 263.985 661.957 263.66 661.806C263.113 661.551 262.8 661.062 262.72 660.339C262.504 658.616 262.504 656.807 262.72 654.911C262.954 653.024 263.402 651.371 264.062 649.952C265.415 647.046 267.157 645.268 269.29 644.618C271.432 643.993 274.007 644.381 277.015 645.781L286.681 650.281L289.104 645.076C289.375 644.495 289.698 644.136 290.074 643.999C290.458 643.887 290.967 643.978 291.599 644.273C292.232 644.567 292.621 644.893 292.766 645.252C292.92 645.636 292.862 646.118 292.591 646.699L290.168 651.904L297.86 655.485C298.458 655.763 298.818 656.107 298.939 656.517C299.06 656.927 298.957 657.483 298.631 658.183Z" fill="black"/>
<path d="M274.284 692.778C272.389 695.773 270.298 697.596 268.012 698.247C265.726 698.898 263.269 698.391 260.64 696.728L251.129 690.709C249.87 689.913 248.908 690.04 248.243 691.092L247.713 691.928C247.371 692.47 247.001 692.772 246.605 692.833C246.215 692.921 245.725 692.778 245.136 692.405C244.546 692.032 244.199 691.646 244.096 691.245C243.998 690.871 244.12 690.413 244.463 689.871L245.431 688.342C246.086 687.306 246.906 686.576 247.889 686.149C248.879 685.749 249.946 685.755 251.091 686.167C250.771 684.135 250.784 682.157 251.13 680.235C251.467 678.328 252.174 676.522 253.253 674.818C254.271 673.209 255.444 671.954 256.772 671.054C258.106 670.18 259.521 669.725 261.016 669.69C262.511 669.654 263.983 670.095 265.433 671.013C267.95 672.605 269.237 674.68 269.293 677.237C269.364 679.803 268.498 682.512 266.693 685.364C265.09 687.897 263.151 690.062 260.877 691.858L262.908 693.143C264.454 694.121 265.862 694.399 267.134 693.976C268.411 693.58 269.659 692.417 270.879 690.49C271.635 689.295 272.255 687.946 272.737 686.444C273.219 684.942 273.533 683.423 273.679 681.887C273.707 681.525 273.792 681.233 273.933 681.01C274.266 680.484 274.925 680.288 275.912 680.421C276.405 680.488 276.779 680.602 277.034 680.763C277.592 681.116 277.835 681.683 277.765 682.464C277.619 684.246 277.246 686.018 276.644 687.779C276.049 689.566 275.262 691.233 274.284 692.778ZM263.308 683.256C264.468 681.423 265.066 679.772 265.105 678.301C265.149 676.857 264.486 675.701 263.116 674.834C261.952 674.098 260.792 673.921 259.635 674.305C258.484 674.714 257.449 675.644 256.532 677.093C254.525 680.264 254.03 683.955 255.046 688.168L257.651 689.816C258.687 688.955 259.686 687.958 260.647 686.826C261.625 685.704 262.512 684.514 263.308 683.256Z" fill="black"/>
<path d="M262.532 726.542C261.999 727.101 261.519 727.399 261.093 727.435C260.667 727.472 260.216 727.263 259.738 726.807L253.6 720.95L245.576 729.36C245.133 729.824 244.712 730.047 244.311 730.03C243.912 730.039 243.459 729.803 242.955 729.321C242.45 728.84 242.186 728.393 242.163 727.98C242.141 727.594 242.351 727.169 242.793 726.705L250.817 718.295L243.369 711.189C241.814 709.705 240.421 708.884 239.191 708.727C237.947 708.582 236.688 709.179 235.412 710.516C234.54 711.429 233.807 712.567 233.212 713.928C232.617 715.289 232.178 716.732 231.893 718.259C231.847 718.58 231.714 718.857 231.493 719.089C231.05 719.553 230.359 719.649 229.419 719.378C228.895 719.216 228.504 719.012 228.245 718.765C227.808 718.349 227.668 717.785 227.825 717.075C228.172 715.373 228.752 713.659 229.564 711.933C230.391 710.22 231.345 708.797 232.425 707.665C234.637 705.346 236.858 704.221 239.087 704.288C241.316 704.383 243.631 705.575 246.032 707.866L253.745 715.226L257.709 711.072C258.151 710.609 258.572 710.372 258.972 710.363C259.373 710.38 259.825 710.629 260.33 711.111C260.835 711.592 261.098 712.026 261.121 712.413C261.144 712.825 260.934 713.264 260.491 713.728L256.528 717.881L262.667 723.738C263.144 724.194 263.374 724.635 263.358 725.062C263.341 725.489 263.066 725.982 262.532 726.542Z" fill="black"/>
<path d="M224.642 753.4C224.066 753.681 223.593 753.744 223.224 753.588C222.846 753.458 222.504 753.079 222.198 752.452L213.275 734.149L205.115 738.127C204.539 738.408 204.066 738.471 203.697 738.315C203.318 738.185 202.976 737.807 202.671 737.18C202.365 736.552 202.273 736.041 202.395 735.646C202.509 735.276 202.853 734.951 203.43 734.67L223.359 724.954C223.936 724.673 224.413 724.598 224.791 724.728C225.16 724.884 225.498 725.275 225.804 725.902C226.109 726.529 226.206 727.027 226.092 727.397C225.97 727.792 225.621 728.13 225.045 728.411L217.088 732.29L225.168 748.865L231.6 745.729C232.176 745.448 232.653 745.373 233.031 745.503C233.401 745.659 233.738 746.05 234.044 746.677C234.35 747.304 234.446 747.802 234.333 748.172C234.211 748.567 233.862 748.905 233.285 749.186L224.642 753.4ZM230.896 764.163C229.964 764.617 229.267 764.8 228.804 764.711C228.349 764.639 227.973 764.298 227.676 763.688L226.065 760.383C225.767 759.773 225.726 759.259 225.941 758.839C226.164 758.437 226.742 758.008 227.674 757.554C228.606 757.099 229.3 756.908 229.754 756.98C230.217 757.069 230.597 757.419 230.895 758.029L232.506 761.333C232.803 761.943 232.84 762.45 232.617 762.852C232.402 763.272 231.828 763.709 230.896 764.163Z" fill="black"/>
<path d="M184.879 770.623C182.316 770.3 180.079 769.43 178.167 768.012C176.255 766.593 174.85 764.773 173.951 762.55C173.031 760.345 172.735 757.942 173.062 755.341C173.388 752.741 174.272 750.477 175.711 748.549C177.13 746.637 178.941 745.23 181.144 744.329C183.348 743.428 185.731 743.138 188.294 743.461C190.857 743.783 193.094 744.653 195.006 746.072C196.918 747.49 198.334 749.302 199.253 751.508C200.152 753.73 200.438 756.142 200.111 758.742C199.784 761.342 198.912 763.598 197.493 765.51C196.054 767.438 194.232 768.853 192.029 769.754C189.825 770.655 187.442 770.945 184.879 770.623ZM185.401 766.47C187.216 766.698 188.866 766.497 190.351 765.866C191.815 765.252 193.012 764.272 193.942 762.926C194.869 761.598 195.447 760.018 195.678 758.185C195.908 756.351 195.74 754.667 195.173 753.133C194.603 751.617 193.686 750.371 192.422 749.395C191.136 748.435 189.586 747.842 187.772 747.613C185.957 747.385 184.318 747.578 182.853 748.192C181.368 748.823 180.162 749.802 179.235 751.129C178.305 752.476 177.725 754.065 177.495 755.899C177.265 757.732 177.434 759.406 178.004 760.922C178.571 762.457 179.497 763.704 180.783 764.663C182.047 765.64 183.587 766.242 185.401 766.47Z" fill="black"/>
<path d="M140.841 760.971C139.442 759.978 138.445 758.809 137.851 757.463C137.246 756.133 137.07 754.702 137.324 753.171C137.577 751.641 138.244 750.114 139.323 748.592L147.242 737.427L145.35 736.085C144.827 735.714 144.546 735.329 144.505 734.931C144.438 734.536 144.606 734.055 145.009 733.486C145.413 732.917 145.817 732.591 146.223 732.508C146.601 732.43 147.052 732.577 147.575 732.948L155.049 738.248C155.572 738.619 155.867 739.002 155.934 739.396C155.975 739.795 155.794 740.279 155.39 740.848C154.987 741.417 154.595 741.74 154.216 741.818C153.811 741.901 153.347 741.757 152.824 741.386L150.702 739.881L143.029 750.7C142.058 752.068 141.605 753.376 141.668 754.623C141.731 755.87 142.378 756.93 143.609 757.802C144.916 758.729 146.406 759.219 148.078 759.273C149.735 759.316 151.371 758.916 152.986 758.073C154.6 757.23 155.986 755.994 157.142 754.364L161.821 747.766L159.699 746.261C159.176 745.89 158.894 745.505 158.853 745.107C158.786 744.712 158.954 744.231 159.358 743.662C159.761 743.093 160.166 742.767 160.571 742.685C160.95 742.607 161.401 742.753 161.924 743.124L169.398 748.425C169.921 748.795 170.216 749.178 170.283 749.572C170.323 749.971 170.142 750.455 169.739 751.024C169.335 751.593 168.944 751.916 168.565 751.994C168.16 752.077 167.696 751.933 167.173 751.562L165.281 750.22L154.614 765.261L156.967 766.93C157.49 767.3 157.785 767.683 157.852 768.077C157.893 768.476 157.712 768.96 157.308 769.529C156.904 770.098 156.513 770.421 156.134 770.499C155.729 770.582 155.265 770.438 154.742 770.067L150.613 767.138C150.09 766.767 149.808 766.383 149.767 765.984C149.7 765.59 149.869 765.108 150.272 764.539L152.235 761.771C150.108 762.62 148.073 762.979 146.131 762.85C144.173 762.71 142.41 762.083 140.841 760.971Z" fill="black"/>
<path d="M89.523 721.271C89.164 720.74 89.0355 720.281 89.1376 719.893C89.2135 719.5 89.5404 719.109 90.1183 718.718L98.951 712.746C99.4977 712.377 99.978 712.246 100.392 712.353C100.806 712.46 101.229 712.834 101.662 713.474C102.095 714.115 102.284 714.647 102.229 715.071C102.174 715.495 101.874 715.891 101.327 716.261L94.0873 721.155L98.3164 727.411L119.754 712.918L116.016 707.389C115.657 706.858 115.528 706.398 115.631 706.011C115.706 705.618 116.033 705.226 116.611 704.835C117.189 704.445 117.682 704.282 118.091 704.347C118.473 704.408 118.843 704.703 119.202 705.234L129.054 719.807C129.413 720.338 129.555 720.8 129.479 721.193C129.377 721.581 129.037 721.97 128.459 722.36C127.881 722.751 127.401 722.916 127.019 722.856C126.611 722.791 126.227 722.493 125.868 721.961L122.13 716.432L100.692 730.925L104.921 737.181L112.161 732.286C112.708 731.917 113.188 731.786 113.602 731.893C114.015 732 114.439 732.374 114.872 733.014C115.305 733.654 115.494 734.187 115.439 734.61C115.384 735.034 115.084 735.431 114.537 735.801L105.704 741.772C105.126 742.163 104.646 742.328 104.264 742.268C103.856 742.202 103.472 741.904 103.113 741.373L89.523 721.271Z" fill="black"/>
<path d="M81.5962 696.771C80.3855 694.319 79.853 691.985 79.9988 689.769C80.1192 687.543 80.8289 685.531 82.1277 683.733C83.4096 681.944 85.1582 680.418 87.3735 679.155C87.9483 678.871 88.4166 678.798 88.7785 678.934C89.1321 679.054 89.4508 679.401 89.7346 679.976L98.802 698.334C101.262 696.972 102.805 695.285 103.43 693.272C104.031 691.252 103.709 688.982 102.465 686.463C101.696 684.908 100.742 683.466 99.602 682.136C98.4448 680.815 97.2527 679.743 96.0257 678.919C95.7316 678.707 95.5261 678.483 95.4093 678.246C95.117 677.654 95.327 676.951 96.0393 676.137C96.3191 675.809 96.6027 675.575 96.8901 675.433C97.5663 675.099 98.274 675.212 99.0133 675.772C100.315 676.748 101.608 678.023 102.89 679.598C104.172 681.172 105.256 682.855 106.141 684.647C107.402 687.2 107.989 689.623 107.902 691.916C107.815 694.209 107.084 696.284 105.709 698.14C104.334 699.997 102.378 701.552 99.8426 702.804C97.4253 703.998 95.0323 704.539 92.6635 704.426C90.2947 704.313 88.1523 703.594 86.2363 702.27C84.3034 700.953 82.7567 699.12 81.5962 696.771ZM85.2728 694.955C86.2998 697.034 87.6839 698.495 89.4252 699.338C91.1412 700.173 93.0418 700.338 95.1269 699.834L87.4747 684.341C85.7061 685.656 84.6319 687.207 84.2522 688.993C83.8472 690.77 84.1874 692.757 85.2728 694.955Z" fill="black"/>
<path d="M55.9117 667.491C55.6842 666.892 55.6646 666.415 55.853 666.061C56.0171 665.696 56.4252 665.39 57.0774 665.143L86.3732 654.023L83.1518 645.536C82.9243 644.937 82.9048 644.46 83.0931 644.106C83.2572 643.741 83.6653 643.435 84.3175 643.188C84.9697 642.94 85.487 642.895 85.8694 643.052C86.2274 643.199 86.5202 643.572 86.7477 644.171L94.6156 664.9C94.843 665.5 94.8748 665.982 94.7107 666.346C94.5223 666.7 94.1021 667.001 93.4499 667.248C92.7977 667.496 92.2925 667.547 91.9345 667.4C91.5521 667.243 91.2472 666.864 91.0197 666.265L87.8786 657.989L60.3806 668.426L63.1204 675.644C63.3478 676.244 63.3795 676.726 63.2155 677.091C63.0271 677.444 62.6069 677.745 61.9547 677.993C61.3025 678.24 60.7973 678.291 60.4393 678.144C60.0569 677.987 59.752 677.609 59.5245 677.009L55.9117 667.491Z" fill="black"/>
<path d="M53.1418 630.691C52.3628 628.071 52.2325 625.68 52.7508 623.52C53.2457 621.347 54.2852 619.484 55.8692 617.931C57.4352 616.384 59.4166 615.176 61.8134 614.306C62.4279 614.123 62.9019 614.13 63.2355 614.326C63.5637 614.503 63.8191 614.9 64.0018 615.514L69.8358 635.141C72.491 634.214 74.2968 632.811 75.2532 630.934C76.1862 629.044 76.2525 626.752 75.4521 624.059C74.9578 622.397 74.2611 620.814 73.362 619.311C72.4448 617.813 71.4511 616.555 70.381 615.536C70.127 615.277 69.9624 615.021 69.8872 614.768C69.6992 614.135 70.025 613.478 70.8646 612.795C71.1958 612.52 71.515 612.337 71.8222 612.245C72.5451 612.03 73.2236 612.261 73.8575 612.938C74.976 614.121 76.0341 615.596 77.0319 617.365C78.0297 619.133 78.8133 620.975 79.3828 622.891C80.194 625.62 80.3629 628.107 79.8895 630.352C79.4161 632.598 78.3449 634.519 76.6758 636.117C75.0068 637.714 72.8168 638.916 70.106 639.722C67.5217 640.49 65.0717 640.618 62.756 640.107C60.4404 639.595 58.4503 638.525 56.7858 636.896C55.1032 635.271 53.8885 633.203 53.1418 630.691ZM57.0725 629.523C57.7333 631.746 58.8505 633.42 60.4242 634.545C61.9744 635.658 63.8197 636.142 65.9601 635.998L61.0366 619.434C59.0711 620.432 57.7503 621.778 57.0742 623.474C56.3747 625.157 56.3742 627.173 57.0725 629.523Z" fill="black"/>
<path d="M42.6991 594.983C42.1708 592.706 42.2397 590.542 42.9058 588.49C43.5535 586.443 44.7682 584.671 46.5499 583.174C48.3132 581.681 50.5539 580.619 53.2721 579.989C55.9903 579.358 58.4788 579.323 60.7377 579.883C62.9782 580.447 64.849 581.503 66.3502 583.052C67.8329 584.605 68.8385 586.52 69.3668 588.797C70.1677 592.25 69.3278 595.512 66.847 598.585L77.7289 596.06L76.6297 591.322C76.4849 590.697 76.5204 590.225 76.7362 589.904C76.9662 589.56 77.4209 589.309 78.1005 589.152C78.78 588.994 79.2895 589.021 79.6289 589.233C79.9824 589.422 80.2316 589.828 80.3764 590.453L83.0861 602.134C83.231 602.758 83.1884 603.242 82.9585 603.586C82.7426 603.907 82.2949 604.146 81.6154 604.304C80.9358 604.461 80.4193 604.446 80.0658 604.257C79.7264 604.045 79.4843 603.627 79.3394 603.003L78.6875 600.193L50.0363 606.839L50.5604 609.098C50.7052 609.723 50.6719 610.204 50.4603 610.544C50.2261 610.869 49.7692 611.111 49.0897 611.268C48.4101 611.426 47.9028 611.408 47.5676 611.215C47.2099 611.008 46.9585 610.592 46.8137 609.967L45.7976 605.587C45.6527 604.962 45.6974 604.488 45.9316 604.162C46.1432 603.823 46.5887 603.574 47.2683 603.417L49.4722 602.906C47.6978 602.098 46.2297 601.025 45.068 599.689C43.9063 598.352 43.1166 596.783 42.6991 594.983ZM46.8403 594.313C47.2195 595.948 47.9255 597.322 48.9584 598.438C49.987 599.535 51.2844 600.288 52.8507 600.699C54.4127 601.092 56.1487 601.066 58.0588 600.623C59.9689 600.18 61.5387 599.439 62.7684 598.399C63.9938 597.34 64.8269 596.092 65.2675 594.654C65.7039 593.198 65.7326 591.653 65.3534 590.018C64.9742 588.384 64.2626 587.068 63.2185 586.072C62.1561 585.08 60.8567 584.442 59.3203 584.16C57.7796 583.859 56.1001 583.92 54.2819 584.342C52.4636 584.764 50.929 585.449 49.678 586.397C48.4228 587.327 47.5458 588.469 47.0471 589.823C46.5301 591.182 46.4611 592.678 46.8403 594.313Z" fill="black"/>
<path d="M35.0607 561.877C34.6086 559.333 34.7765 556.939 35.5644 554.692C36.3523 552.446 37.6742 550.564 39.5301 549.047C41.3641 547.514 43.5712 546.519 46.1515 546.06C48.7317 545.601 51.156 545.773 53.4244 546.577C55.6709 547.365 57.5511 548.677 59.0649 550.514C60.5788 552.352 61.5618 554.542 62.0139 557.085C62.466 559.628 62.2981 562.023 61.5102 564.269C60.7223 566.516 59.4114 568.405 57.5773 569.938C55.7215 571.455 53.5034 572.443 50.9232 572.902C48.343 573.36 45.9296 573.196 43.6831 572.408C41.4147 571.605 39.5236 570.285 38.0097 568.447C36.4958 566.61 35.5128 564.42 35.0607 561.877ZM39.1817 561.144C39.5018 562.945 40.183 564.461 41.2254 565.693C42.2459 566.909 43.5369 567.761 45.0982 568.25C46.641 568.742 48.3219 568.826 50.1411 568.502C51.9603 568.179 53.5185 567.519 54.8158 566.522C56.0946 565.529 57.0127 564.284 57.57 562.787C58.1054 561.275 58.2131 559.618 57.893 557.818C57.5729 556.017 56.9026 554.509 55.882 553.292C54.8396 552.06 53.5471 551.199 52.0043 550.707C50.4429 550.218 48.7527 550.136 46.9335 550.459C45.1144 550.783 43.5654 551.441 42.2867 552.434C40.9893 553.431 40.0729 554.685 39.5375 556.198C38.9802 557.695 38.8616 559.343 39.1817 561.144Z" fill="black"/>
<path d="M27.7141 518.022C27.5251 516.564 27.7221 515.15 28.3052 513.782C28.657 512.976 29.1882 512.527 29.8987 512.435C30.2352 512.391 30.6388 512.424 31.1093 512.534C32.226 512.789 32.8291 513.262 32.9188 513.954C32.9552 514.234 32.9143 514.506 32.7962 514.768C32.4101 515.75 32.2849 516.764 32.4207 517.811C32.6388 519.494 33.4471 521.11 34.8455 522.659C36.2253 524.21 37.9589 525.411 40.0465 526.262C42.1316 527.095 44.2679 527.369 46.4555 527.085L51.8965 526.38L50.6714 516.929C50.589 516.293 50.6804 515.825 50.9457 515.524C51.1898 515.207 51.6577 515.004 52.3495 514.915C53.0414 514.825 53.555 514.901 53.8905 515.143C54.2049 515.368 54.4033 515.799 54.4857 516.434L56.8267 534.496C56.9091 535.132 56.8283 535.608 56.5841 535.925C56.3189 536.225 55.8404 536.42 55.1486 536.51C54.4568 536.6 53.9537 536.532 53.6393 536.306C53.3038 536.065 53.0948 535.626 53.0124 534.99L52.4417 530.587L34.1556 532.957L34.6173 536.519C34.6997 537.155 34.6188 537.631 34.3747 537.948C34.1095 538.248 33.631 538.444 32.9392 538.533C32.2474 538.623 31.7443 538.555 31.4299 538.33C31.0944 538.088 30.8854 537.649 30.803 537.013L30.0614 531.292C29.979 530.656 30.0705 530.188 30.3357 529.888C30.5798 529.571 31.0478 529.368 31.7396 529.278L37.4049 528.544C35.6432 527.859 34.0629 526.962 32.6641 525.85C31.2653 524.739 30.136 523.507 29.2763 522.154C28.4166 520.802 27.8959 519.424 27.7141 518.022Z" fill="black"/>
<path d="M17.3474 497.277C17.2801 496.507 17.3735 495.95 17.6273 495.606C17.8812 495.262 18.3368 495.061 18.9942 495.004L27.4463 494.266L26.4355 482.687C26.3797 482.048 26.4906 481.584 26.7682 481.295C27.0253 480.989 27.5014 480.805 28.1963 480.744C28.8913 480.684 29.4013 480.781 29.7264 481.037C30.0311 481.275 30.2113 481.714 30.2671 482.352L31.2779 493.932L41.5331 493.036C43.6743 492.849 45.2107 492.346 46.1422 491.527C47.0721 490.689 47.4567 489.349 47.296 487.508C47.1861 486.25 46.817 484.948 46.1885 483.602C45.5601 482.257 44.7667 480.973 43.8083 479.751C43.5975 479.504 43.4782 479.221 43.4503 478.902C43.3946 478.263 43.779 477.681 44.6037 477.155C45.0707 476.868 45.4827 476.709 45.8395 476.678C46.4406 476.625 46.956 476.893 47.3857 477.48C48.4339 478.864 49.3373 480.432 50.0957 482.183C50.8354 483.935 51.2732 485.59 51.4093 487.149C51.6881 490.342 51.0658 492.753 49.5424 494.381C47.9987 495.992 45.574 496.942 42.2683 497.23L31.6468 498.158L32.1461 503.877C32.2018 504.515 32.1011 504.988 31.844 505.294C31.5664 505.583 31.0802 505.758 30.3852 505.819C29.6903 505.88 29.1904 505.791 28.8858 505.552C28.5606 505.297 28.3702 504.85 28.3145 504.211L27.8152 498.492L19.3631 499.23C18.7057 499.287 18.2222 499.169 17.9126 498.874C17.603 498.579 17.4146 498.047 17.3474 497.277Z" fill="black"/>
<path d="M21.292 456.622C21.1277 453.081 21.7955 450.389 23.2954 448.545C24.7953 446.701 27.0991 445.707 30.2066 445.563L41.4503 445.041C42.9381 444.972 43.6532 444.316 43.5956 443.073L43.5497 442.085C43.52 441.444 43.6497 440.985 43.9388 440.708C44.2082 440.412 44.6913 440.248 45.3882 440.216C46.085 440.183 46.5906 440.302 46.9051 440.57C47.1998 440.821 47.362 441.266 47.3917 441.906L47.4756 443.714C47.5324 444.939 47.28 446.007 46.7184 446.92C46.137 447.816 45.2592 448.423 44.085 448.741C45.5126 450.223 46.6356 451.85 47.454 453.624C48.2715 455.379 48.727 457.265 48.8205 459.28C48.9087 461.182 48.6667 462.882 48.0945 464.381C47.5026 465.862 46.6044 467.045 45.3998 467.932C44.1952 468.818 42.736 469.301 41.0222 469.381C38.0464 469.519 35.803 468.556 34.2917 466.494C32.7617 464.432 31.9184 461.715 31.7621 458.344C31.6232 455.35 31.9706 452.465 32.8045 449.689L30.4032 449.801C28.5763 449.885 27.2632 450.465 26.4637 451.54C25.6445 452.598 25.2878 454.266 25.3935 456.544C25.459 457.957 25.7249 459.417 26.1912 460.924C26.6575 462.431 27.2709 463.856 28.0315 465.199C28.2159 465.511 28.3142 465.799 28.3264 466.063C28.3552 466.684 27.9272 467.223 27.0424 467.679C26.6 467.907 26.2282 468.028 25.9268 468.042C25.2677 468.073 24.743 467.748 24.3528 467.068C23.4508 465.524 22.7412 463.859 22.2242 462.071C21.6874 460.265 21.3767 458.448 21.292 456.622ZM35.7441 458.131C35.8445 460.297 36.3007 461.993 37.1126 463.22C37.9047 464.429 39.1107 464.996 40.7304 464.921C42.1052 464.857 43.1569 464.337 43.8854 463.359C44.5942 462.364 44.9088 461.009 44.8293 459.295C44.6555 455.547 42.9449 452.239 39.6976 449.369L36.6183 449.512C36.2633 450.812 36.0163 452.201 35.8773 453.68C35.7195 455.16 35.675 456.643 35.7441 458.131Z" fill="black"/>
<path d="M12.2689 426.024C12.263 425.251 12.4002 424.703 12.6805 424.381C12.9608 424.058 13.4309 423.894 14.0908 423.889L22.5748 423.824L22.4852 412.201C22.4802 411.56 22.6276 411.106 22.9272 410.84C23.2078 410.555 23.6969 410.41 24.3945 410.404C25.092 410.399 25.5927 410.536 25.8966 410.817C26.1814 411.079 26.3263 411.53 26.3312 412.171L26.4208 423.794L36.7147 423.715C38.864 423.698 40.4354 423.318 41.429 422.575C42.4224 421.814 42.912 420.509 42.8977 418.661C42.888 417.398 42.6232 416.071 42.1034 414.68C41.5836 413.288 40.8945 411.946 40.0361 410.651C39.8455 410.389 39.749 410.097 39.7465 409.777C39.7416 409.136 40.171 408.586 41.0348 408.127C41.5231 407.878 41.9463 407.752 42.3045 407.749C42.9078 407.744 43.4004 408.052 43.7823 408.671C44.7174 410.134 45.4936 411.769 46.1109 413.574C46.7093 415.379 47.0145 417.065 47.0266 418.629C47.0513 421.834 46.2398 424.188 44.5922 425.69C42.9256 427.174 40.4332 427.928 37.1151 427.954L26.4535 428.036L26.4978 433.777C26.5027 434.418 26.3649 434.881 26.0843 435.166C25.7846 435.432 25.2861 435.568 24.5885 435.573C23.8909 435.579 23.3997 435.451 23.1149 435.189C22.811 434.908 22.6567 434.448 22.6517 433.807L22.6075 428.066L14.1235 428.131C13.4636 428.136 12.991 427.98 12.7058 427.661C12.4205 427.343 12.2749 426.797 12.2689 426.024Z" fill="black"/>
<path d="M20.0792 383.636C20.0999 382.995 20.2654 382.548 20.5754 382.294C20.8672 382.02 21.3618 381.895 22.059 381.918L42.4105 382.577L42.7046 373.504C42.7254 372.863 42.8908 372.416 43.2008 372.162C43.4927 371.888 43.9872 371.763 44.6844 371.786C45.3816 371.808 45.8764 371.966 46.1688 372.258C46.4429 372.531 46.5695 372.988 46.5488 373.629L45.8303 395.789C45.8096 396.43 45.6533 396.887 45.3615 397.16C45.0514 397.414 44.5478 397.53 43.8505 397.508C43.1533 397.485 42.6676 397.337 42.3935 397.064C42.1012 396.772 41.9654 396.305 41.9862 395.665L42.273 386.817L23.8436 386.22L23.6118 393.371C23.591 394.012 23.4347 394.469 23.1429 394.742C22.8328 394.996 22.3292 395.112 21.632 395.09C20.9347 395.067 20.4491 394.919 20.175 394.646C19.8826 394.354 19.7468 393.887 19.7676 393.246L20.0792 383.636ZM7.64112 384.138C7.67472 383.102 7.83896 382.4 8.13383 382.032C8.40987 381.664 8.88707 381.491 9.56546 381.513L13.24 381.632C13.9184 381.654 14.3928 381.858 14.6633 382.244C14.9149 382.629 15.0239 383.34 14.9903 384.377C14.9567 385.413 14.8018 386.115 14.5258 386.484C14.2309 386.851 13.7443 387.024 13.0659 387.002L9.39135 386.883C8.71297 386.861 8.24798 386.657 7.99638 386.272C7.72594 385.886 7.60752 385.175 7.64112 384.138Z" fill="black"/>
<path d="M20.6054 348.605C20.7935 346.029 21.5459 343.749 22.8628 341.766C24.1797 339.782 25.9243 338.284 28.0966 337.271C30.2515 336.237 32.6358 335.816 35.2496 336.006C37.8633 336.197 40.1705 336.961 42.1712 338.298C44.1545 339.615 45.6536 341.35 46.6684 343.504C47.6832 345.657 48.0966 348.022 47.9085 350.598C47.7204 353.174 46.9679 355.454 45.6511 357.437C44.3342 359.421 42.5983 360.929 40.4434 361.963C38.2711 362.976 35.878 363.388 33.2643 363.197C30.6506 363.006 28.3521 362.252 26.3688 360.935C24.368 359.598 22.8603 357.853 21.8455 355.699C20.8306 353.546 20.4173 351.181 20.6054 348.605ZM24.7798 348.91C24.6466 350.734 24.9335 352.371 25.6405 353.821C26.33 355.252 27.3713 356.396 28.7643 357.254C30.1384 358.11 31.7469 358.606 33.5897 358.74C35.4324 358.875 37.1052 358.619 38.608 357.972C40.0921 357.325 41.2885 356.344 42.1972 355.03C43.0886 353.696 43.6009 352.118 43.734 350.294C43.8672 348.47 43.589 346.842 42.8995 345.412C42.1925 343.962 41.152 342.808 39.7778 341.952C38.3848 341.094 36.7669 340.598 34.9242 340.463C33.0814 340.328 31.418 340.585 29.934 341.233C28.4312 341.879 27.2341 342.869 26.3428 344.203C25.434 345.517 24.913 347.086 24.7798 348.91Z" fill="black"/>
<path d="M23.4994 310.61C23.695 308.906 24.2394 307.469 25.1326 306.3C26.0071 305.129 27.1761 304.285 28.6396 303.77C30.1031 303.255 31.762 303.104 33.6164 303.316L47.215 304.877L47.4794 302.573C47.5525 301.936 47.7539 301.504 48.0837 301.276C48.3969 301.027 48.9 300.943 49.5931 301.022C50.2861 301.102 50.7663 301.299 51.0338 301.615C51.2847 301.909 51.3736 302.375 51.3005 303.012L50.2559 312.115C50.1828 312.752 49.9896 313.194 49.6764 313.443C49.3466 313.671 48.8352 313.745 48.1422 313.666C47.4491 313.586 46.9772 313.399 46.7263 313.105C46.4589 312.789 46.3617 312.313 46.4348 311.676L46.7314 309.091L33.5542 307.579C31.8871 307.388 30.5225 307.62 29.4604 308.277C28.3983 308.933 27.7812 310.01 27.6093 311.509C27.4266 313.101 27.7146 314.643 28.4733 316.134C29.2342 317.607 30.3728 318.847 31.8891 319.856C33.4054 320.866 35.1563 321.484 37.1418 321.712L45.1773 322.634L45.4739 320.049C45.547 319.412 45.7485 318.98 46.0783 318.752C46.3915 318.503 46.8946 318.419 47.5876 318.498C48.2807 318.578 48.7609 318.775 49.0284 319.091C49.2792 319.385 49.3681 319.851 49.2951 320.488L48.2504 329.591C48.1773 330.228 47.9842 330.67 47.671 330.919C47.3412 331.147 46.8298 331.221 46.1368 331.142C45.4437 331.062 44.9717 330.875 44.7209 330.581C44.4534 330.265 44.3562 329.789 44.4293 329.152L44.6937 326.848L26.3749 324.746L26.046 327.612C25.9729 328.249 25.7798 328.692 25.4666 328.94C25.1368 329.168 24.6254 329.242 23.9323 329.163C23.2393 329.083 22.7673 328.896 22.5164 328.602C22.249 328.286 22.1518 327.81 22.2249 327.174L22.802 322.144C22.8751 321.507 23.0765 321.075 23.4063 320.847C23.7195 320.599 24.2226 320.514 24.9157 320.593L28.2873 320.98C26.5186 319.525 25.2231 317.915 24.4007 316.151C23.5806 314.367 23.2801 312.521 23.4994 310.61Z" fill="black"/>
<path d="M24.7565 250.868C24.8709 250.237 25.1 249.819 25.444 249.613C25.7727 249.385 26.2803 249.334 26.9667 249.458L37.4574 251.361C38.1067 251.478 38.5419 251.72 38.7629 252.086C38.984 252.452 39.0256 253.015 38.8877 253.776C38.7497 254.536 38.513 255.049 38.1776 255.314C37.8421 255.579 37.3497 255.652 36.7004 255.535L28.1019 253.975L26.7545 261.405L52.2161 266.023L53.4071 259.455C53.5215 258.825 53.7506 258.406 54.0945 258.201C54.4233 257.973 54.9308 257.921 55.6172 258.046C56.3036 258.17 56.77 258.398 57.0164 258.73C57.2475 259.041 57.3059 259.511 57.1915 260.142L54.0527 277.45C53.9383 278.081 53.7168 278.51 53.388 278.738C53.0441 278.944 52.5289 278.985 51.8426 278.86C51.1562 278.736 50.6974 278.518 50.4662 278.208C50.2198 277.876 50.1539 277.395 50.2682 276.764L51.4592 270.197L25.9976 265.579L24.6502 273.009L33.2487 274.568C33.898 274.686 34.3332 274.928 34.5543 275.294C34.7753 275.66 34.8169 276.223 34.679 276.983C34.541 277.744 34.3043 278.257 33.9689 278.522C33.6334 278.787 33.141 278.86 32.4918 278.742L22.001 276.84C21.3146 276.715 20.8558 276.498 20.6247 276.188C20.3783 275.856 20.3123 275.374 20.4267 274.744L24.7565 250.868Z" fill="black"/>
<path d="M35.9367 227.588C36.5694 224.928 37.6494 222.792 39.1767 221.178C40.69 219.542 42.5204 218.447 44.668 217.892C46.7972 217.332 49.1173 217.274 51.6284 217.716C52.252 217.864 52.6595 218.107 52.8508 218.443C53.0465 218.761 53.0702 219.232 52.9218 219.855L48.1828 239.775C50.9463 240.296 53.2109 239.982 54.9767 238.833C56.7285 237.66 57.9295 235.708 58.5797 232.975C58.9812 231.287 59.1674 229.568 59.1382 227.817C59.0908 226.061 58.8577 224.475 58.4391 223.057C58.3482 222.706 58.3333 222.402 58.3944 222.146C58.5472 221.504 59.1576 221.097 60.2257 220.924C60.6502 220.851 61.0183 220.851 61.3301 220.925C62.0638 221.1 62.5364 221.639 62.7479 222.542C63.1272 224.124 63.3079 225.931 63.2899 227.962C63.2719 229.992 63.0316 231.98 62.5691 233.924C61.9102 236.693 60.8153 238.933 59.2846 240.642C57.7538 242.352 55.8666 243.482 53.623 244.034C51.3793 244.585 48.8819 244.534 46.1306 243.879C43.5077 243.255 41.3206 242.144 39.5691 240.545C37.8177 238.946 36.6274 237.025 35.9982 234.783C35.3506 232.535 35.3301 230.137 35.9367 227.588ZM39.926 228.537C39.3893 230.793 39.5219 232.801 40.324 234.562C41.1121 236.3 42.4696 237.64 44.3965 238.583L48.3958 221.773C46.1949 221.656 44.3783 222.164 42.9462 223.296C41.5 224.405 40.4933 226.152 39.926 228.537Z" fill="black"/>
<path d="M34.4662 189.282C34.6527 188.669 34.9287 188.28 35.2941 188.115C35.647 187.927 36.1571 187.934 36.8245 188.137L66.804 197.254L69.4453 188.569C69.6318 187.955 69.9077 187.566 70.2731 187.401C70.626 187.213 71.1361 187.22 71.8035 187.423C72.471 187.626 72.9078 187.907 73.1142 188.265C73.3079 188.6 73.3116 189.074 73.1251 189.688L66.6741 210.901C66.4876 211.514 66.218 211.915 65.8651 212.103C65.4997 212.268 64.9833 212.249 64.3159 212.046C63.6485 211.843 63.2179 211.574 63.0241 211.239C62.8178 210.881 62.8078 210.395 62.9944 209.781L65.5698 201.313L37.4302 192.755L35.1839 200.142C34.9974 200.755 34.7277 201.156 34.3748 201.344C34.0094 201.509 33.493 201.49 32.8256 201.287C32.1582 201.084 31.7276 200.815 31.5338 200.48C31.3275 200.122 31.3176 199.636 31.5041 199.023L34.4662 189.282Z" fill="black"/>
<path d="M54.5612 158.712C55.5499 156.163 56.9106 154.193 58.6432 152.803C60.365 151.388 62.3275 150.552 64.5306 150.294C66.7161 150.03 69.0226 150.287 71.4502 151.067C72.0478 151.299 72.4185 151.595 72.5623 151.954C72.7129 152.295 72.6723 152.765 72.4405 153.362L65.0352 172.452C67.702 173.345 69.9883 173.342 71.8941 172.443C73.7892 171.52 75.2447 169.749 76.2607 167.13C76.888 165.513 77.3064 163.835 77.5158 162.096C77.7076 160.35 77.6926 158.747 77.4708 157.286C77.4285 156.925 77.4551 156.622 77.5506 156.376C77.7892 155.761 78.4494 155.441 79.531 155.415C79.9615 155.4 80.3262 155.451 80.625 155.567C81.3281 155.84 81.723 156.438 81.8096 157.361C81.9701 158.98 81.9033 160.795 81.6092 162.804C81.3151 164.813 80.8066 166.75 80.0838 168.613C79.0542 171.267 77.6648 173.337 75.9157 174.822C74.1666 176.307 72.1431 177.171 69.8453 177.412C67.5475 177.653 65.0803 177.262 62.4436 176.239C59.93 175.264 57.9144 173.865 56.3969 172.043C54.8793 170.221 53.9614 168.156 53.6431 165.848C53.3074 163.534 53.6134 161.155 54.5612 158.712ZM58.3843 160.195C57.5456 162.357 57.4038 164.365 57.9588 166.218C58.5031 168.047 59.6656 169.56 61.4462 170.756L67.6957 154.646C65.5311 154.231 63.6623 154.487 62.0894 155.414C60.5058 156.316 59.2707 157.91 58.3843 160.195Z" fill="black"/>
<path d="M68.0218 124.215C69.0759 122.128 70.5159 120.511 72.3418 119.363C74.151 118.207 76.2191 117.625 78.5463 117.618C80.8567 117.602 83.2572 118.223 85.7479 119.481C88.2385 120.739 90.1714 122.307 91.5466 124.185C92.9049 126.054 93.664 128.063 93.8239 130.214C93.9669 132.356 93.5114 134.471 92.4573 136.558C90.8592 139.722 88.1236 141.688 84.2502 142.456L94.2213 147.492L96.4144 143.151C96.7035 142.578 97.0337 142.238 97.4051 142.13C97.8019 142.014 98.3116 142.113 98.9343 142.427C99.5569 142.742 99.9307 143.089 100.056 143.469C100.206 143.841 100.137 144.313 99.8475 144.885L94.4413 155.588C94.1522 156.16 93.8093 156.504 93.4126 156.621C93.0411 156.729 92.5441 156.626 91.9214 156.311C91.2988 155.997 90.9123 155.654 90.762 155.282C90.6371 154.902 90.7192 154.426 91.0082 153.854L92.3087 151.279L66.0557 138.018L65.0102 140.088C64.7212 140.66 64.3867 141.009 64.0067 141.134C63.6185 141.234 63.113 141.126 62.4903 140.812C61.8677 140.497 61.4896 140.158 61.3562 139.795C61.2144 139.407 61.2881 138.926 61.5771 138.354L63.6044 134.34C63.8935 133.768 64.2321 133.432 64.6204 133.333C65.0003 133.208 65.5016 133.303 66.1243 133.617L68.1437 134.637C67.2993 132.88 66.8596 131.116 66.8247 129.345C66.7897 127.574 67.1888 125.864 68.0218 124.215ZM71.6303 126.355C70.8738 127.852 70.5346 129.36 70.6127 130.878C70.6993 132.38 71.2121 133.79 72.1511 135.109C73.0986 136.411 74.4474 137.504 76.1976 138.389C77.9478 139.273 79.6282 139.709 81.2387 139.699C82.8577 139.672 84.2971 139.248 85.5567 138.427C86.8249 137.589 87.8373 136.421 88.5938 134.923C89.3504 133.425 89.6472 131.959 89.4844 130.525C89.3048 129.083 88.7158 127.761 87.7173 126.559C86.7273 125.341 85.3993 124.311 83.7333 123.47C82.0672 122.628 80.4502 122.171 78.8822 122.097C77.3227 122.006 75.9175 122.321 74.6666 123.041C73.399 123.752 72.3869 124.857 71.6303 126.355Z" fill="black"/>
<path d="M83.9619 92.4702C85.4423 90.3535 87.2557 88.7804 89.4022 87.7508C91.5487 86.7212 93.8145 86.3272 96.1994 86.5687C98.5796 86.7839 100.844 87.6426 102.991 89.1445C105.139 90.6465 106.73 92.4839 107.764 94.6566C108.793 96.8032 109.193 99.0611 108.962 101.431C108.731 103.8 107.876 106.043 106.396 108.16C104.915 110.276 103.102 111.85 100.955 112.879C98.8087 113.909 96.5453 114.316 94.1651 114.101C91.7801 113.859 89.5139 112.987 87.3663 111.485C85.2188 109.984 83.6302 108.159 82.6006 106.013C81.5664 103.84 81.1646 101.569 81.3953 99.1994C81.626 96.8299 82.4815 94.5869 83.9619 92.4702ZM87.3918 94.869C86.3437 96.3677 85.752 97.921 85.6168 99.5289C85.4769 101.111 85.7856 102.626 86.5431 104.077C87.2851 105.516 88.4131 106.765 89.9272 107.824C91.4414 108.883 93.0094 109.519 94.6312 109.733C96.2377 109.936 97.7675 109.706 99.2206 109.043C100.669 108.354 101.917 107.26 102.966 105.761C104.014 104.262 104.608 102.722 104.748 101.14C104.883 99.5325 104.58 98.0089 103.838 96.5697C103.08 95.1196 101.944 93.8652 100.43 92.8062C98.9161 91.7473 97.3558 91.1162 95.7494 90.913C94.1275 90.699 92.5923 90.9367 91.1438 91.6262C89.6906 92.2894 88.44 93.3703 87.3918 94.869Z" fill="black"/>
<path d="M112.679 54.8864C113.78 53.911 115.06 53.2803 116.519 52.9944C117.384 52.8328 118.054 53.0202 118.529 53.5563C118.754 53.8103 118.953 54.1629 119.126 54.6141C119.543 55.681 119.49 56.4457 118.968 56.9084C118.756 57.096 118.509 57.2146 118.225 57.2643C117.196 57.4961 116.287 57.9621 115.496 58.6624C114.226 59.7878 113.343 61.364 112.847 63.3909C112.339 65.4037 112.318 67.5127 112.786 69.7179C113.268 71.9106 114.241 73.8324 115.704 75.4833L119.343 79.5893L126.476 73.2681C126.955 72.8429 127.394 72.6556 127.792 72.7063C128.191 72.7304 128.622 73.0035 129.085 73.5256C129.547 74.0476 129.773 74.5153 129.761 74.9287C129.751 75.3154 129.506 75.7213 129.027 76.1465L115.396 88.2263C114.917 88.6515 114.477 88.852 114.078 88.828C113.68 88.7773 113.25 88.4909 112.787 87.9688C112.325 87.4468 112.098 86.9924 112.108 86.6056C112.12 86.1923 112.366 85.7731 112.845 85.3479L116.168 82.403L103.938 68.6034L101.25 70.9856C100.771 71.4107 100.331 71.6113 99.932 71.5872C99.5344 71.5365 99.1042 71.2501 98.6415 70.7281C98.1788 70.206 97.9525 69.7516 97.9624 69.3649C97.974 68.9515 98.2197 68.5323 98.6994 68.1071L103.017 64.2806C103.497 63.8554 103.935 63.6682 104.333 63.7189C104.732 63.7429 105.163 64.016 105.626 64.5381L109.415 68.8134C108.992 66.9715 108.847 65.1597 108.981 63.3781C109.116 61.5965 109.501 59.9703 110.137 58.4995C110.773 57.0286 111.621 55.8243 112.679 54.8864Z" fill="black"/>
<path d="M131.351 27.6283C132.089 27.3992 132.653 27.3722 133.043 27.5473C133.433 27.7224 133.726 28.125 133.922 28.7553L136.436 36.8582L147.537 33.413C148.15 33.223 148.626 33.2329 148.968 33.4428C149.322 33.6291 149.602 34.0553 149.809 34.7216C150.016 35.3878 150.029 35.9069 149.848 36.2788C149.68 36.6272 149.29 36.8963 148.677 37.0863L137.576 40.5316L140.628 50.3632C141.265 52.4159 142.082 53.8105 143.081 54.5469C144.097 55.2777 145.488 55.3693 147.252 54.8216C148.459 54.4472 149.653 53.8101 150.835 52.9104C152.016 52.0107 153.102 50.9629 154.093 49.767C154.29 49.5087 154.541 49.3321 154.847 49.2371C155.459 49.047 156.11 49.2991 156.799 49.9933C157.178 50.3888 157.421 50.7577 157.527 51.0998C157.706 51.676 157.554 52.2364 157.072 52.7809C155.941 54.0991 154.601 55.3146 153.051 56.4273C151.496 57.522 149.971 58.3012 148.476 58.7651C145.415 59.7151 142.928 59.6186 141.013 58.4755C139.111 57.3088 137.669 55.1408 136.685 51.9717L133.525 41.789L128.042 43.4906C127.43 43.6806 126.947 43.6825 126.593 43.4962C126.251 43.2864 125.977 42.8483 125.77 42.182C125.563 41.5158 125.544 41.0085 125.712 40.6602C125.893 40.2882 126.29 40.0073 126.902 39.8173L132.385 38.1156L129.87 30.0126C129.674 29.3824 129.688 28.8848 129.91 28.5196C130.132 28.1545 130.613 27.8574 131.351 27.6283Z" fill="black"/>
<path d="M181.245 22.8802C184.639 23.9005 186.957 25.4241 188.199 27.451C189.44 29.4778 189.613 31.9809 188.717 34.9601L185.477 45.7394C185.049 47.1658 185.43 48.0581 186.622 48.4163L187.57 48.7012C188.184 48.8858 188.573 49.1605 188.739 49.5253C188.929 49.8776 188.923 50.3877 188.722 51.0558C188.522 51.7239 188.242 52.1616 187.885 52.3691C187.55 52.564 187.076 52.5691 186.462 52.3846L184.729 51.8636C183.556 51.5108 182.631 50.918 181.956 50.0851C181.305 49.2396 181.024 48.2101 181.113 46.9966C179.241 47.8516 177.333 48.3707 175.388 48.5538C173.461 48.7424 171.532 48.5463 169.6 47.9656C167.776 47.4174 166.252 46.6247 165.029 45.5875C163.828 44.5377 163.01 43.2975 162.574 41.867C162.138 40.4365 162.166 38.8997 162.66 37.2567C163.518 34.4038 165.17 32.607 167.618 31.8661C170.07 31.1071 172.913 31.2134 176.145 32.1849C179.016 33.0479 181.622 34.3332 183.963 36.041L184.655 33.7389C185.181 31.9875 185.07 30.5563 184.321 29.4453C183.596 28.3216 182.141 27.4315 179.956 26.7748C178.602 26.3677 177.137 26.134 175.56 26.0735C173.984 26.0131 172.436 26.1188 170.917 26.3907C170.561 26.4609 170.257 26.458 170.004 26.382C169.408 26.2029 169.042 25.6204 168.905 24.6343C168.837 24.1412 168.846 23.7503 168.933 23.4614C169.123 22.8294 169.604 22.4423 170.375 22.3001C172.13 21.9615 173.937 21.8451 175.795 21.9508C177.677 22.044 179.494 22.3537 181.245 22.8802ZM175.024 36.0118C172.947 35.3877 171.196 35.2549 169.769 35.6135C168.366 35.9595 167.431 36.9089 166.964 38.4617C166.568 39.7798 166.71 40.9446 167.39 41.9563C168.094 42.9553 169.267 43.7018 170.91 44.1956C174.503 45.2757 178.192 44.7603 181.977 42.6495L182.864 39.6973C181.755 38.931 180.527 38.2369 179.178 37.615C177.835 36.975 176.45 36.4406 175.024 36.0118Z" fill="black"/>
<path d="M221.722 28.1742C222.304 28.6835 222.622 29.1501 222.677 29.574C222.732 29.9979 222.542 30.4581 222.107 30.9545L216.518 37.3375L225.262 44.9948C225.744 45.4171 225.985 45.8287 225.985 46.2295C226.012 46.6286 225.795 47.0905 225.336 47.6154C224.876 48.1402 224.441 48.4229 224.029 48.4636C223.644 48.5024 223.211 48.3107 222.728 47.8884L213.984 40.2311L207.202 47.9757C205.786 49.5927 205.026 51.0193 204.92 52.2555C204.83 53.504 205.479 54.737 206.869 55.9542C207.819 56.7864 208.987 57.4705 210.372 58.0067C211.757 58.5429 213.218 58.9203 214.756 59.139C215.079 59.1711 215.361 59.2927 215.602 59.5038C216.084 59.9261 216.21 60.6126 215.979 61.5631C215.84 62.0934 215.653 62.4933 215.417 62.7628C215.02 63.2167 214.463 63.3805 213.746 63.2543C212.031 62.9806 210.294 62.4744 208.535 61.7359C206.788 60.9833 205.326 60.0915 204.149 59.0605C201.738 56.949 200.518 54.7785 200.491 52.5491C200.49 50.3179 201.582 47.9541 203.768 45.4576L210.792 37.4364L206.473 33.6543C205.991 33.232 205.737 32.8213 205.71 32.4222C205.71 32.0214 205.94 31.5586 206.4 31.0338C206.859 30.5089 207.281 30.2271 207.666 30.1882C208.078 30.1476 208.525 30.3384 209.007 30.7607L213.326 34.5428L218.915 28.1599C219.35 27.6634 219.781 27.4144 220.209 27.4128C220.636 27.4112 221.141 27.665 221.722 28.1742Z" fill="black"/>
<path d="M248.788 63.9612C249.157 64.485 249.295 64.9417 249.201 65.3313C249.132 65.7254 248.813 66.1235 248.243 66.5256L231.604 78.2628L236.837 85.681C237.207 86.2048 237.344 86.6615 237.25 87.0511C237.182 87.4452 236.863 87.8433 236.293 88.2454C235.723 88.6475 235.233 88.82 234.823 88.7628C234.44 88.7101 234.064 88.4219 233.694 87.898L220.914 69.7801C220.544 69.2562 220.394 68.7973 220.462 68.4032C220.556 68.0136 220.888 67.6178 221.458 67.2156C222.028 66.8135 222.505 66.6388 222.888 66.6915C223.298 66.7487 223.687 67.0392 224.057 67.563L229.159 74.7964L244.227 64.1677L240.102 58.3209C239.733 57.7971 239.582 57.3381 239.65 56.944C239.745 56.5544 240.077 56.1586 240.647 55.7565C241.217 55.3544 241.693 55.1797 242.077 55.2323C242.486 55.2895 242.876 55.5801 243.245 56.1039L248.788 63.9612ZM258.411 56.0652C259.009 56.9126 259.301 57.5718 259.287 58.043C259.289 58.5032 259.012 58.929 258.458 59.3202L255.454 61.4395C254.899 61.8307 254.397 61.9538 253.949 61.8087C253.516 61.6527 253 61.151 252.403 60.3037C251.805 59.4563 251.505 58.8025 251.504 58.3422C251.517 57.8711 251.802 57.4399 252.356 57.0486L255.36 54.9294C255.915 54.5382 256.409 54.4205 256.842 54.5765C257.29 54.7216 257.814 55.2179 258.411 56.0652Z" fill="black"/>
<path d="M269.103 91.9891C270.281 94.2875 270.824 96.6261 270.73 99.0049C270.636 101.384 269.925 103.571 268.596 105.566C267.292 107.569 265.474 109.168 263.142 110.364C260.81 111.56 258.442 112.107 256.038 112.005C253.659 111.911 251.477 111.208 249.49 109.896C247.504 108.583 245.921 106.778 244.743 104.48C243.564 102.181 243.022 99.8426 243.116 97.4638C243.21 95.085 243.908 92.894 245.212 90.8908C246.541 88.8957 248.371 87.3004 250.703 86.1046C253.035 84.9089 255.391 84.358 257.77 84.4519C260.174 84.554 262.369 85.2611 264.355 86.5732C266.342 87.8853 267.924 89.6906 269.103 91.9891ZM265.378 93.8988C264.544 92.2714 263.448 91.0219 262.09 90.1503C260.757 89.2869 259.273 88.8509 257.637 88.8422C256.018 88.8249 254.386 89.2377 252.742 90.0808C251.098 90.9238 249.802 92.012 248.854 93.3455C247.923 94.6704 247.411 96.1301 247.318 97.7247C247.25 99.3275 247.633 100.943 248.467 102.57C249.302 104.197 250.385 105.443 251.718 106.306C253.076 107.178 254.564 107.622 256.183 107.639C257.819 107.648 259.459 107.231 261.104 106.388C262.748 105.545 264.035 104.461 264.966 103.136C265.914 101.803 266.422 100.335 266.49 98.7318C266.583 97.1371 266.213 95.5261 265.378 93.8988Z" fill="black"/>
<path d="M287.017 128.004C287.642 129.602 287.832 131.126 287.59 132.577C287.365 134.022 286.726 135.314 285.673 136.454C284.621 137.594 283.225 138.503 281.487 139.183L268.738 144.164L269.582 146.324C269.815 146.921 269.839 147.398 269.654 147.753C269.494 148.12 269.089 148.43 268.439 148.684C267.789 148.938 267.273 148.988 266.889 148.834C266.529 148.691 266.233 148.321 265.999 147.724L262.665 139.19C262.431 138.593 262.395 138.111 262.555 137.745C262.74 137.389 263.158 137.084 263.807 136.83C264.457 136.576 264.962 136.521 265.321 136.664C265.705 136.817 266.014 137.193 266.247 137.79L267.194 140.213L279.548 135.386C281.111 134.775 282.208 133.931 282.84 132.854C283.472 131.778 283.513 130.537 282.964 129.132C282.381 127.639 281.405 126.411 280.037 125.448C278.676 124.502 277.089 123.938 275.277 123.756C273.464 123.573 271.628 123.846 269.766 124.573L262.233 127.517L263.18 129.94C263.413 130.537 263.437 131.014 263.252 131.369C263.092 131.736 262.687 132.046 262.037 132.3C261.387 132.553 260.87 132.604 260.486 132.45C260.127 132.307 259.831 131.937 259.597 131.34L256.262 122.805C256.029 122.208 255.993 121.727 256.153 121.36C256.338 121.005 256.755 120.7 257.405 120.446C258.055 120.192 258.559 120.137 258.919 120.28C259.303 120.433 259.611 120.809 259.845 121.406L260.689 123.566L277.863 116.855L276.813 114.168C276.58 113.571 276.543 113.089 276.704 112.723C276.889 112.367 277.306 112.062 277.956 111.808C278.606 111.554 279.11 111.499 279.47 111.642C279.854 111.796 280.162 112.171 280.396 112.768L282.238 117.483C282.471 118.08 282.496 118.556 282.311 118.912C282.15 119.278 281.745 119.589 281.095 119.842L277.934 121.078C280.178 121.537 282.077 122.354 283.629 123.528C285.188 124.721 286.317 126.213 287.017 128.004Z" fill="black"/>
</svg>
