<svg width="1385" height="389" viewBox="0 0 1385 389" fill="none" xmlns="http://www.w3.org/2000/svg">
<path d="M35.8163 409.994C36.251 406.868 37.3189 404.219 39.02 402.048C40.6866 399.874 42.8835 398.29 45.6105 397.295C48.3375 396.301 51.4102 395.965 54.8285 396.289L79.8959 398.663L80.4834 394.438C80.6458 393.27 81.0367 392.471 81.656 392.043C82.2456 391.577 83.1791 391.404 84.4567 391.525C85.7342 391.646 86.6134 391.99 87.0942 392.558C87.5452 393.088 87.6896 393.937 87.5272 395.105L85.2058 411.8C85.0434 412.968 84.6674 413.785 84.0778 414.251C83.4585 414.68 82.5101 414.834 81.2325 414.713C79.955 414.592 79.0907 414.266 78.6397 413.736C78.1588 413.169 77.9996 412.301 78.162 411.133L78.8212 406.392L54.5307 404.092C51.4577 403.801 48.9255 404.274 46.9342 405.513C44.9429 406.751 43.7562 408.744 43.3741 411.493C42.9681 414.413 43.4343 417.224 44.7727 419.926C46.1159 422.594 48.1671 424.824 50.9264 426.617C53.6856 428.41 56.8953 429.479 60.5552 429.826L75.3678 431.229L76.027 426.488C76.1894 425.32 76.5802 424.522 77.1995 424.093C77.7891 423.627 78.7227 423.454 80.0002 423.575C81.2777 423.696 82.1569 424.041 82.6377 424.608C83.0888 425.138 83.2331 425.987 83.0707 427.155L80.7493 443.85C80.5869 445.018 80.2109 445.836 79.6214 446.302C79.0021 446.73 78.0536 446.884 76.7761 446.763C75.4985 446.642 74.6342 446.317 74.1832 445.787C73.7024 445.219 73.5432 444.351 73.7056 443.183L74.2931 438.958L40.5246 435.76L39.7938 441.016C39.6314 442.184 39.2554 443.001 38.6658 443.467C38.0465 443.896 37.0981 444.05 35.8205 443.929C34.543 443.808 33.6787 443.482 33.2277 442.952C32.7468 442.384 32.5876 441.517 32.75 440.349L34.0325 431.125C34.1949 429.957 34.5858 429.159 35.2051 428.73C35.7947 428.264 36.7282 428.091 38.0058 428.212L44.2208 428.801C41.0142 426.2 38.6888 423.3 37.2446 420.101C35.8052 416.867 35.3291 413.498 35.8163 409.994Z" fill="white"/>
<path d="M38.238 324.843C38.4911 323.691 38.9441 322.919 39.5971 322.527C40.2233 322.096 41.1709 321.975 42.4401 322.165L61.837 325.068C63.0376 325.248 63.8318 325.664 64.2198 326.317C64.6078 326.97 64.6491 327.991 64.344 329.38C64.0388 330.768 63.5657 331.712 62.9246 332.211C62.2836 332.71 61.3628 332.87 60.1623 332.69L44.2639 330.31L41.2828 343.877L88.3604 350.923L90.9954 338.932C91.2485 337.78 91.7015 337.008 92.3545 336.616C92.9807 336.185 93.9283 336.064 95.1974 336.254C96.4666 336.444 97.3197 336.834 97.7569 337.424C98.1672 337.976 98.2458 338.827 97.9927 339.979L91.048 371.584C90.7949 372.735 90.3553 373.527 89.7291 373.958C89.0761 374.35 88.115 374.451 86.8459 374.261C85.5768 374.071 84.7371 373.701 84.3268 373.149C83.8896 372.559 83.7976 371.688 84.0506 370.536L86.6856 358.545L39.6081 351.499L36.627 365.066L52.5253 367.445C53.7258 367.625 54.52 368.041 54.908 368.694C55.296 369.347 55.3374 370.368 55.0322 371.757C54.727 373.145 54.2539 374.089 53.6129 374.588C52.9718 375.087 52.051 375.247 50.8505 375.067L31.4535 372.164C30.1844 371.974 29.3447 371.603 28.9344 371.052C28.4972 370.462 28.4052 369.591 28.6583 368.439L38.238 324.843Z" fill="white"/>
<path d="M57.3815 299.177C58.7745 294.344 60.9649 290.426 63.9527 287.421C66.9161 284.376 70.4317 282.285 74.4995 281.147C78.5333 280.002 82.8858 279.747 87.5571 280.383C88.7142 280.61 89.4589 281.02 89.7913 281.614C90.1332 282.174 90.1409 283.021 89.8143 284.154L79.3812 320.345C84.5193 321.108 88.7877 320.396 92.1864 318.212C95.5607 315.987 97.9635 312.392 99.3949 307.426C100.279 304.36 100.762 301.251 100.843 298.098C100.891 294.938 100.578 292.095 99.9042 289.568C99.7612 288.941 99.757 288.395 99.8915 287.928C100.228 286.762 101.403 285.989 103.418 285.61C104.22 285.45 104.909 285.427 105.488 285.541C106.849 285.808 107.693 286.749 108.019 288.362C108.607 291.189 108.804 294.432 108.612 298.091C108.421 301.751 107.815 305.347 106.797 308.879C105.346 313.912 103.12 318.017 100.118 321.195C97.1165 324.373 93.4918 326.531 89.2443 327.669C84.9967 328.807 80.3205 328.875 75.2156 327.873C70.3489 326.917 66.3367 325.055 63.1791 322.287C60.0216 319.519 57.9405 316.135 56.9361 312.135C55.8977 308.128 56.0461 303.809 57.3815 299.177ZM64.7836 300.63C63.6019 304.729 63.6941 308.339 65.06 311.459C66.4015 314.54 68.841 316.867 72.3784 318.442L81.1831 287.899C77.0676 287.831 73.6238 288.862 70.8517 290.994C68.0552 293.086 66.0325 296.298 64.7836 300.63Z" fill="white"/>
<path d="M53.5119 246.779C53.9196 245.673 54.4765 244.959 55.1826 244.639C55.8671 244.277 56.8316 244.253 58.0763 244.565L113.985 258.597L119.759 242.927C120.167 241.821 120.723 241.107 121.43 240.787C122.114 240.425 123.079 240.401 124.323 240.713C125.568 241.025 126.369 241.493 126.728 242.116C127.064 242.699 127.029 243.543 126.621 244.649L112.519 282.921C112.111 284.027 111.565 284.761 110.881 285.123C110.175 285.443 109.199 285.447 107.955 285.135C106.71 284.823 105.919 284.375 105.583 283.793C105.224 283.17 105.249 282.305 105.657 281.198L111.287 265.919L58.8094 252.749L53.8989 266.075C53.4912 267.182 52.9451 267.916 52.2606 268.277C51.5545 268.598 50.5791 268.602 49.3345 268.289C48.0898 267.977 47.2991 267.53 46.9624 266.947C46.6041 266.324 46.6287 265.459 47.0365 264.353L53.5119 246.779Z" fill="white"/>
<path d="M88.4732 206.24C90.6125 201.689 93.409 198.124 96.8627 195.547C100.298 192.927 104.139 191.304 108.386 190.677C112.6 190.04 116.995 190.31 121.572 191.487C122.695 191.846 123.377 192.335 123.618 192.954C123.874 193.542 123.751 194.369 123.25 195.436L107.227 229.524C112.252 230.88 116.634 230.694 120.372 228.965C124.092 227.195 127.052 223.972 129.25 219.295C130.607 216.407 131.57 213.429 132.138 210.361C132.673 207.282 132.798 204.47 132.513 201.923C132.467 201.294 132.547 200.76 132.754 200.321C133.27 199.222 134.566 198.608 136.641 198.478C137.467 198.417 138.161 198.477 138.723 198.657C140.044 199.08 140.744 200.098 140.821 201.712C140.973 204.541 140.671 207.731 139.915 211.28C139.158 214.83 137.998 218.268 136.434 221.595C134.206 226.335 131.345 230.077 127.851 232.822C124.356 235.567 120.396 237.243 115.969 237.848C111.543 238.453 106.852 237.962 101.897 236.376C97.1739 234.863 93.4455 232.568 90.7121 229.49C87.9786 226.412 86.4177 222.861 86.0292 218.837C85.6077 214.802 86.4224 210.603 88.4732 206.24ZM95.6574 208.54C93.8427 212.401 93.3783 215.935 94.2642 219.144C95.1318 222.311 97.2144 224.873 100.512 226.832L114.034 198.065C109.925 197.508 106.32 198.105 103.217 199.856C100.095 201.565 97.5754 204.46 95.6574 208.54Z" fill="white"/>
<path d="M111.834 159.655C114.079 155.987 117.033 153.097 120.696 150.986C124.327 148.861 128.41 147.704 132.945 147.515C137.449 147.313 142.069 148.2 146.807 150.175C151.545 152.15 155.167 154.7 157.675 157.824C160.15 160.935 161.445 164.334 161.56 168.021C161.642 171.694 160.561 175.364 158.316 179.032C154.912 184.594 149.401 188.182 141.784 189.796L160.751 197.703L165.422 190.071C166.038 189.065 166.713 188.455 167.446 188.241C168.23 188.011 169.214 188.142 170.399 188.636C171.583 189.13 172.28 189.699 172.488 190.343C172.747 190.97 172.568 191.787 171.953 192.793L160.438 211.607C159.822 212.613 159.123 213.231 158.339 213.461C157.605 213.675 156.646 213.535 155.462 213.041C154.277 212.548 153.556 211.987 153.297 211.359C153.088 210.715 153.292 209.89 153.908 208.885L156.678 204.359L106.738 183.54L104.511 187.179C103.896 188.185 103.212 188.809 102.46 189.053C101.695 189.254 100.72 189.107 99.5351 188.613C98.3506 188.12 97.645 187.565 97.4183 186.951C97.1777 186.294 97.3651 185.462 97.9807 184.457L102.299 177.401C102.914 176.396 103.605 175.792 104.371 175.592C105.122 175.348 106.091 175.473 107.275 175.967L111.116 177.568C109.632 174.61 108.937 171.61 109.031 168.568C109.125 165.525 110.06 162.555 111.834 159.655ZM118.669 163.062C117.058 165.695 116.259 168.313 116.272 170.918C116.303 173.493 117.173 175.879 118.882 178.076C120.609 180.244 123.137 182.022 126.466 183.41C129.795 184.798 133.029 185.422 136.168 185.283C139.326 185.114 142.169 184.276 144.699 182.768C147.247 181.231 149.326 179.146 150.938 176.514C152.549 173.881 153.262 171.338 153.076 168.884C152.858 166.417 151.831 164.188 149.996 162.198C148.179 160.178 145.685 158.507 142.516 157.186C139.347 155.865 136.238 155.2 133.189 155.191C130.159 155.153 127.392 155.801 124.889 157.134C122.354 158.453 120.28 160.429 118.669 163.062Z" fill="white"/>
<path d="M137.989 117.834C141.061 114.209 144.761 111.479 149.09 109.643C153.419 107.808 157.946 107.032 162.67 107.316C167.387 107.556 171.833 108.881 176.008 111.291C180.183 113.701 183.232 116.702 185.154 120.293C187.068 123.841 187.722 127.608 187.118 131.593C186.514 135.579 184.676 139.384 181.604 143.009C178.532 146.634 174.832 149.364 170.503 151.2C166.174 153.035 161.652 153.833 156.935 153.593C152.21 153.309 147.761 151.962 143.585 149.552C139.41 147.142 136.365 144.163 134.451 140.615C132.53 137.024 131.871 133.235 132.475 129.25C133.079 125.264 134.917 121.459 137.989 117.834ZM144.658 121.683C142.483 124.25 141.211 126.885 140.844 129.588C140.468 132.248 140.989 134.775 142.405 137.168C143.791 139.544 145.956 141.582 148.899 143.281C151.843 144.98 154.92 145.968 158.13 146.245C161.309 146.504 164.364 146.041 167.292 144.854C170.213 143.625 172.761 141.726 174.936 139.16C177.111 136.593 178.386 133.98 178.761 131.32C179.129 128.617 178.62 126.077 177.234 123.701C175.818 121.308 173.638 119.261 170.694 117.562C167.75 115.863 164.689 114.884 161.509 114.625C158.299 114.348 155.234 114.824 152.313 116.054C149.384 117.24 146.833 119.117 144.658 121.683Z" fill="white"/>
<path d="M187.351 65.9624C189.534 64.3653 192.085 63.3434 195.004 62.8965C196.733 62.6447 198.08 62.968 199.044 63.8661C199.501 64.2916 199.908 64.8801 200.265 65.6316C201.124 67.4088 201.036 68.6763 200 69.4338C199.58 69.741 199.087 69.9331 198.52 70.0102C196.463 70.3753 194.65 71.1312 193.083 72.2778C190.563 74.1205 188.829 76.7181 187.881 80.0704C186.907 83.3991 186.914 86.8965 187.902 90.5627C188.918 94.2084 190.911 97.414 193.881 100.179L201.267 107.057L215.418 96.7073C216.37 96.0111 217.244 95.7088 218.042 95.8003C218.843 95.8477 219.713 96.3087 220.652 97.1832C221.591 98.0577 222.054 98.8377 222.04 99.523C222.029 100.164 221.547 100.833 220.596 101.529L193.554 121.308C192.602 122.004 191.726 122.329 190.925 122.281C190.127 122.19 189.258 121.707 188.319 120.832C187.38 119.958 186.916 119.2 186.927 118.559C186.941 117.873 187.424 117.183 188.376 116.486L194.968 111.664L170.145 88.5484L164.812 92.4489C163.861 93.1451 162.984 93.4695 162.184 93.4221C161.386 93.3305 160.517 92.8475 159.578 91.973C158.639 91.0984 158.175 90.3406 158.186 89.6994C158.2 89.0141 158.683 88.3233 159.635 87.6272L168.201 81.3617C169.152 80.6656 170.027 80.3633 170.825 80.4548C171.626 80.5022 172.496 80.9632 173.435 81.8377L181.126 88.9994C180.236 85.9366 179.905 82.9291 180.133 79.9768C180.362 77.0245 181.097 74.3346 182.339 71.9071C183.58 69.4796 185.251 67.4981 187.351 65.9624Z" fill="white"/>
<path d="M213.811 26.9886C215.188 26.6358 216.254 26.6297 217.009 26.9703C217.763 27.311 218.354 28.0494 218.781 29.1856L224.274 43.7941L244.988 38.4887C246.13 38.1961 247.034 38.2493 247.7 38.6482C248.387 39.0061 248.956 39.7856 249.408 40.9867C249.859 42.1879 249.931 43.1127 249.622 43.7612C249.335 44.3686 248.62 44.8186 247.478 45.1112L226.765 50.4165L233.43 68.1414C234.822 71.8422 236.496 74.3851 238.454 75.77C240.445 77.1464 243.086 77.4128 246.379 76.5695C248.63 75.9929 250.834 74.948 252.99 73.4347C255.147 71.9213 257.11 70.1374 258.879 68.0827C259.227 67.6376 259.687 67.3419 260.258 67.1956C261.4 66.903 262.655 67.4001 264.023 68.6869C264.778 69.4191 265.271 70.0935 265.503 70.7103C265.893 71.7492 265.656 72.7352 264.792 73.6685C262.769 75.9304 260.341 77.9938 257.506 79.8588C254.659 81.6913 251.841 82.9647 249.052 83.6789C243.341 85.1419 238.621 84.7849 234.892 82.608C231.185 80.39 228.257 76.4242 226.109 70.7107L219.205 52.3528L208.975 54.9732C207.832 55.2658 206.918 55.2332 206.23 54.8753C205.565 54.4764 205.006 53.6763 204.554 52.4752C204.103 51.2741 204.02 50.3698 204.308 49.7623C204.616 49.1138 205.342 48.6433 206.484 48.3507L216.715 45.7303L211.221 31.1219C210.794 29.9857 210.774 29.1009 211.163 28.4677C211.551 27.8345 212.433 27.3414 213.811 26.9886Z" fill="white"/>
<path d="M302.279 25.3922C308.607 26.9622 312.855 29.5083 315.023 33.0307C317.19 36.5532 317.294 41.0029 315.336 46.38L308.25 65.8353C307.312 68.4098 307.954 69.9726 310.176 70.5238L311.943 70.9622C313.088 71.2461 313.801 71.7072 314.082 72.3456C314.409 72.9596 314.353 73.8696 313.914 75.0753C313.475 76.2811 312.908 77.0821 312.213 77.4782C311.563 77.8502 310.666 77.8941 309.522 77.6102L306.29 76.8085C304.102 76.2657 302.407 75.2767 301.205 73.8414C300.048 72.3818 299.608 70.567 299.884 68.3971C296.27 70.0587 292.615 71.1241 288.92 71.5934C285.26 72.071 281.628 71.8631 278.026 70.9695C274.626 70.1261 271.815 68.8247 269.593 67.0653C267.417 65.2817 265.98 63.1308 265.282 60.6125C264.584 58.0943 264.775 55.3523 265.855 52.3868C267.731 47.2378 271.015 43.9131 275.709 42.4126C280.415 40.8795 285.781 40.8603 291.807 42.3551C297.159 43.6829 301.973 45.7832 306.249 48.6561L307.762 44.5011C308.913 41.34 308.83 38.7966 307.513 36.8708C306.241 34.9208 303.569 33.4406 299.495 32.4301C296.971 31.8038 294.22 31.4946 291.245 31.5026C288.269 31.5105 285.332 31.8126 282.436 32.4087C281.757 32.5601 281.182 32.5773 280.71 32.4604C279.6 32.1848 278.959 31.173 278.788 29.4251C278.702 28.5511 278.755 27.8534 278.945 27.332C279.36 26.1914 280.303 25.466 281.774 25.1558C285.124 24.4233 288.551 24.0832 292.056 24.1353C295.606 24.1632 299.014 24.5822 302.279 25.3922ZM289.347 49.2601C285.475 48.2998 282.175 48.1916 279.445 48.9357C276.76 49.6555 274.907 51.4167 273.887 54.2193C273.02 56.5982 273.185 58.6645 274.382 60.4182C275.624 62.1476 277.776 63.3923 280.84 64.1522C287.538 65.814 294.56 64.6244 301.904 60.5835L303.845 55.2553C301.817 53.9705 299.556 52.8231 297.06 51.8133C294.577 50.7709 292.006 49.9198 289.347 49.2601Z" fill="white"/>
<path d="M371.143 35.2776C372.295 36.1105 372.921 36.878 373.021 37.5802C373.12 38.2824 372.728 39.0497 371.844 39.8823L360.487 50.5868L377.817 63.111C378.773 63.8017 379.245 64.4796 379.235 65.1446C379.278 65.8061 378.833 66.577 377.899 67.4571C376.965 68.3372 376.085 68.8153 375.26 68.8911C374.488 68.9635 373.624 68.6544 372.668 67.9637L355.338 55.4395L341.557 68.4276C338.68 71.1394 337.121 73.5219 336.879 75.5749C336.666 77.6483 337.937 79.6804 340.692 81.6712C342.575 83.0323 344.897 84.1434 347.659 85.0044C350.421 85.8655 353.339 86.4616 356.415 86.7929C357.06 86.8394 357.622 87.0354 358.1 87.3807C359.056 88.0715 359.291 89.2077 358.804 90.7895C358.514 91.6721 358.128 92.3393 357.649 92.7913C356.841 93.5525 355.721 93.8358 354.289 93.6412C350.859 93.2222 347.392 92.4182 343.885 91.2292C340.404 90.0164 337.497 88.5669 335.164 86.8807C330.385 83.4272 327.996 79.8513 327.997 76.1531C328.05 72.4515 330.298 68.5073 334.74 64.3206L349.013 50.8687L340.454 44.6828C339.498 43.992 338.998 43.3159 338.955 42.6544C338.966 41.9894 339.438 41.2168 340.372 40.3366C341.305 39.4565 342.158 38.9802 342.931 38.9078C343.756 38.8319 344.647 39.1393 345.602 39.83L354.162 46.016L365.52 35.3115C366.403 34.4789 367.273 34.0569 368.129 34.0454C368.986 34.0339 369.99 34.4447 371.143 35.2776Z" fill="white"/>
<path d="M414.64 89.7856C415.406 90.682 415.707 91.4543 415.543 92.1026C415.432 92.7598 414.822 93.4113 413.713 94.0569L381.341 112.902L392.192 125.597C392.958 126.493 393.259 127.266 393.095 127.914C392.983 128.571 392.373 129.223 391.264 129.868C390.155 130.514 389.192 130.779 388.374 130.662C387.609 130.555 386.843 130.053 386.077 129.157L359.577 98.1521C358.811 97.2557 358.483 96.4789 358.595 95.8217C358.759 95.1734 359.395 94.5264 360.505 93.8808C361.614 93.2351 362.551 92.966 363.316 93.0733C364.133 93.1896 364.925 93.6959 365.691 94.5923L376.271 106.97L405.585 89.9047L397.033 79.8994C396.267 79.003 395.94 78.2262 396.051 77.569C396.215 76.9207 396.852 76.2737 397.961 75.6281C399.07 74.9825 400.007 74.7133 400.772 74.8207C401.59 74.937 402.382 75.4433 403.148 76.3397L414.64 89.7856ZM433.296 77.0295C434.535 78.4796 435.156 79.5991 435.157 80.3881C435.188 81.1597 434.664 81.8596 433.585 82.4878L427.74 85.8905C426.661 86.5187 425.671 86.7 424.771 86.4344C423.901 86.1514 422.846 85.2849 421.606 83.8349C420.367 82.3848 419.732 81.274 419.701 80.5024C419.7 79.7134 420.239 79.0048 421.318 78.3766L427.162 74.9739C428.242 74.3457 429.216 74.1731 430.087 74.4561C430.987 74.7217 432.057 75.5795 433.296 77.0295Z" fill="white"/>
<path d="M447.251 129.04C449.758 133.076 451.029 137.133 451.062 141.212C451.095 145.29 449.906 148.993 447.495 152.32C445.135 155.662 441.735 158.273 437.295 160.152C432.855 162.031 428.286 162.792 423.588 162.437C418.94 162.097 414.619 160.726 410.625 158.323C406.631 155.921 403.381 152.701 400.873 148.665C398.366 144.629 397.095 140.572 397.062 136.493C397.029 132.415 398.193 128.704 400.553 125.361C402.964 122.035 406.389 119.432 410.829 117.553C415.269 115.674 419.813 114.905 424.461 115.244C429.159 115.6 433.505 116.979 437.499 119.382C441.493 121.784 444.743 125.004 447.251 129.04ZM440.16 132.04C438.385 129.183 436.133 126.954 433.405 125.356C430.728 123.773 427.793 122.912 424.601 122.775C421.442 122.624 418.297 123.21 415.167 124.535C412.037 125.86 409.608 127.631 407.881 129.851C406.185 132.056 405.319 134.525 405.282 137.257C405.294 140.004 406.189 142.807 407.964 145.665C409.739 148.522 411.966 150.743 414.644 152.325C417.371 153.924 420.315 154.799 423.475 154.95C426.666 155.088 429.827 154.495 432.957 153.17C436.087 151.845 438.5 150.08 440.196 147.875C441.923 145.655 442.78 143.172 442.767 140.424C442.804 137.693 441.935 134.898 440.16 132.04Z" fill="white"/>
<path d="M477.139 179.996C478.49 182.848 479.002 185.537 478.676 188.063C478.383 190.579 477.283 192.795 475.374 194.711C473.466 196.627 470.878 198.112 467.61 199.166L443.646 206.894L445.471 210.75C445.976 211.816 446.068 212.653 445.748 213.262C445.475 213.892 444.728 214.404 443.507 214.798C442.286 215.192 441.3 215.239 440.549 214.939C439.846 214.66 439.242 213.987 438.738 212.921L431.524 197.687C431.02 196.621 430.904 195.773 431.176 195.144C431.497 194.534 432.267 194.033 433.489 193.639C434.71 193.245 435.672 193.188 436.375 193.467C437.126 193.767 437.754 194.45 438.258 195.515L440.306 199.841L463.528 192.352C466.466 191.405 468.489 190.012 469.596 188.173C470.704 186.334 470.665 184.161 469.477 181.654C468.216 178.989 466.227 176.758 463.511 174.96C460.811 173.193 457.714 172.078 454.222 171.614C450.731 171.15 447.235 171.483 443.736 172.611L429.576 177.178L431.624 181.504C432.129 182.569 432.221 183.407 431.9 184.016C431.628 184.646 430.881 185.158 429.66 185.552C428.438 185.945 427.452 185.992 426.701 185.693C425.999 185.413 425.395 184.741 424.89 183.675L417.677 168.441C417.172 167.375 417.056 166.527 417.329 165.897C417.649 165.288 418.42 164.787 419.641 164.393C420.863 163.999 421.825 163.941 422.528 164.221C423.278 164.521 423.906 165.203 424.411 166.269L426.236 170.125L458.519 159.714L456.248 154.918C455.743 153.852 455.627 153.004 455.9 152.374C456.22 151.765 456.991 151.264 458.212 150.87C459.434 150.476 460.396 150.419 461.099 150.698C461.849 150.998 462.477 151.68 462.982 152.746L466.967 161.163C467.471 162.229 467.563 163.066 467.243 163.675C466.971 164.305 466.224 164.817 465.002 165.211L459.061 167.127C463.407 168.11 467.125 169.693 470.213 171.877C473.317 174.092 475.625 176.798 477.139 179.996Z" fill="white"/>
<path d="M451.831 409.994C452.265 406.868 453.333 404.22 455.034 402.049C456.701 399.875 458.898 398.29 461.625 397.296C464.352 396.301 467.424 395.966 470.843 396.289L495.91 398.663L496.498 394.438C496.66 393.27 497.051 392.472 497.67 392.043C498.26 391.577 499.193 391.404 500.471 391.525C501.748 391.646 502.628 391.991 503.108 392.558C503.56 393.088 503.704 393.937 503.541 395.105L501.22 411.8C501.058 412.968 500.682 413.785 500.092 414.252C499.473 414.68 498.524 414.834 497.247 414.713C495.969 414.592 495.105 414.267 494.654 413.737C494.173 413.169 494.014 412.301 494.176 411.133L494.835 406.393L470.545 404.092C467.472 403.801 464.94 404.275 462.948 405.513C460.957 406.752 459.77 408.745 459.388 411.493C458.982 414.413 459.449 417.224 460.787 419.926C462.13 422.594 464.181 424.825 466.941 426.617C469.7 428.41 472.91 429.48 476.57 429.826L491.382 431.229L492.041 426.489C492.204 425.321 492.595 424.522 493.214 424.094C493.803 423.627 494.737 423.455 496.014 423.576C497.292 423.697 498.171 424.041 498.652 424.609C499.103 425.139 499.247 425.988 499.085 427.156L496.764 443.851C496.601 445.019 496.225 445.836 495.636 446.302C495.016 446.731 494.068 446.885 492.79 446.764C491.513 446.643 490.649 446.317 490.197 445.787C489.717 445.219 489.557 444.352 489.72 443.184L490.307 438.958L456.539 435.76L455.808 441.016C455.646 442.184 455.27 443.001 454.68 443.467C454.061 443.896 453.112 444.05 451.835 443.929C450.557 443.808 449.693 443.482 449.242 442.952C448.761 442.385 448.602 441.517 448.764 440.349L450.047 431.126C450.209 429.958 450.6 429.159 451.219 428.731C451.809 428.264 452.743 428.092 454.02 428.213L460.235 428.801C457.029 426.201 454.703 423.3 453.259 420.101C451.819 416.867 451.343 413.498 451.831 409.994Z" fill="white"/>
<path d="M454.252 324.843C454.505 323.691 454.958 322.919 455.611 322.527C456.238 322.096 457.185 321.975 458.454 322.165L477.851 325.068C479.052 325.248 479.846 325.664 480.234 326.317C480.622 326.97 480.663 327.991 480.358 329.38C480.053 330.768 479.58 331.712 478.939 332.211C478.298 332.71 477.377 332.87 476.177 332.69L460.278 330.31L457.297 343.877L504.375 350.923L507.01 338.932C507.263 337.78 507.716 337.008 508.369 336.616C508.995 336.185 509.943 336.064 511.212 336.254C512.481 336.444 513.334 336.834 513.771 337.424C514.181 337.976 514.26 338.827 514.007 339.979L507.062 371.584C506.809 372.735 506.37 373.527 505.743 373.958C505.09 374.35 504.129 374.451 502.86 374.261C501.591 374.071 500.751 373.701 500.341 373.149C499.904 372.559 499.812 371.688 500.065 370.536L502.7 358.545L455.622 351.499L452.641 365.066L468.54 367.445C469.74 367.625 470.534 368.041 470.922 368.694C471.31 369.347 471.352 370.368 471.046 371.757C470.741 373.145 470.268 374.089 469.627 374.588C468.986 375.087 468.065 375.247 466.865 375.067L447.468 372.164C446.199 371.974 445.359 371.603 444.949 371.052C444.512 370.462 444.419 369.591 444.673 368.439L454.252 324.843Z" fill="white"/>
<path d="M473.396 299.177C474.789 294.344 476.979 290.426 479.967 287.421C482.93 284.376 486.446 282.285 490.514 281.147C494.548 280.002 498.9 279.747 503.571 280.383C504.728 280.61 505.473 281.02 505.806 281.614C506.148 282.174 506.155 283.021 505.829 284.154L495.395 320.345C500.534 321.108 504.802 320.396 508.201 318.212C511.575 315.987 513.978 312.392 515.409 307.426C516.293 304.36 516.776 301.251 516.858 298.098C516.906 294.938 516.593 292.095 515.918 289.568C515.776 288.941 515.771 288.395 515.906 287.928C516.242 286.762 517.418 285.989 519.433 285.61C520.234 285.45 520.924 285.427 521.502 285.541C522.864 285.808 523.707 286.749 524.033 288.362C524.621 291.189 524.819 294.432 524.627 298.091C524.435 301.751 523.83 305.347 522.811 308.879C521.361 313.912 519.134 318.017 516.133 321.195C513.131 324.373 509.506 326.531 505.259 327.669C501.011 328.807 496.335 328.875 491.23 327.873C486.363 326.917 482.351 325.055 479.193 322.287C476.036 319.519 473.955 316.135 472.95 312.135C471.912 308.128 472.06 303.809 473.396 299.177ZM480.798 300.63C479.616 304.729 479.708 308.339 481.074 311.459C482.416 314.54 484.855 316.867 488.393 318.442L497.197 287.899C493.082 287.831 489.638 288.862 486.866 290.994C484.069 293.086 482.047 296.298 480.798 300.63Z" fill="white"/>
<path d="M469.526 246.779C469.934 245.673 470.491 244.959 471.197 244.639C471.881 244.277 472.846 244.253 474.091 244.565L529.999 258.597L535.773 242.927C536.181 241.821 536.738 241.107 537.444 240.787C538.128 240.425 539.093 240.401 540.337 240.713C541.582 241.025 542.384 241.493 542.742 242.116C543.079 242.699 543.043 243.543 542.636 244.649L528.533 282.921C528.126 284.027 527.58 284.761 526.895 285.123C526.189 285.443 525.214 285.447 523.969 285.135C522.724 284.823 521.934 284.375 521.597 283.793C521.239 283.17 521.263 282.305 521.671 281.198L527.301 265.919L474.824 252.749L469.913 266.075C469.505 267.182 468.959 267.916 468.275 268.277C467.569 268.598 466.593 268.602 465.349 268.289C464.104 267.977 463.313 267.53 462.977 266.947C462.618 266.324 462.643 265.459 463.051 264.353L469.526 246.779Z" fill="white"/>
<path d="M504.487 206.24C506.627 201.689 509.423 198.124 512.877 195.547C516.312 192.927 520.153 191.304 524.4 190.677C528.614 190.04 533.009 190.31 537.586 191.487C538.71 191.846 539.392 192.335 539.633 192.954C539.889 193.542 539.766 194.369 539.264 195.436L523.242 229.524C528.266 230.88 532.648 230.694 536.387 228.965C540.107 227.195 543.066 223.972 545.264 219.295C546.622 216.407 547.584 213.429 548.153 210.361C548.688 207.282 548.813 204.47 548.528 201.923C548.481 201.294 548.561 200.76 548.768 200.321C549.284 199.222 550.58 198.608 552.655 198.478C553.482 198.417 554.176 198.477 554.737 198.657C556.058 199.08 556.758 200.098 556.835 201.712C556.988 204.541 556.685 207.731 555.929 211.28C555.173 214.83 554.012 218.268 552.449 221.595C550.221 226.335 547.36 230.077 543.865 232.822C540.371 235.567 536.41 237.243 531.984 237.848C527.557 238.453 522.866 237.962 517.912 236.376C513.188 234.863 509.46 232.568 506.726 229.49C503.993 226.412 502.432 222.861 502.044 218.837C501.622 214.802 502.437 210.603 504.487 206.24ZM511.672 208.54C509.857 212.401 509.393 215.935 510.278 219.144C511.146 222.311 513.229 224.873 516.526 226.832L530.048 198.065C525.94 197.508 522.334 198.105 519.231 199.856C516.109 201.565 513.59 204.46 511.672 208.54Z" fill="white"/>
<path d="M527.848 159.655C530.093 155.987 533.047 153.097 536.71 150.986C540.341 148.861 544.424 147.704 548.96 147.515C553.463 147.313 558.083 148.2 562.821 150.175C567.559 152.15 571.182 154.7 573.689 157.824C576.165 160.935 577.46 164.334 577.574 168.021C577.657 171.694 576.575 175.364 574.33 179.032C570.926 184.594 565.416 188.182 557.798 189.796L576.766 197.703L581.437 190.071C582.052 189.065 582.727 188.455 583.46 188.241C584.244 188.011 585.228 188.142 586.413 188.636C587.597 189.13 588.294 189.699 588.502 190.343C588.761 190.97 588.583 191.787 587.967 192.793L576.452 211.607C575.837 212.613 575.137 213.231 574.353 213.461C573.62 213.675 572.661 213.535 571.476 213.041C570.292 212.548 569.57 211.987 569.311 211.359C569.103 210.715 569.306 209.89 569.922 208.885L572.692 204.359L522.752 183.54L520.526 187.179C519.91 188.185 519.226 188.809 518.475 189.053C517.709 189.254 516.734 189.107 515.549 188.613C514.365 188.12 513.659 187.565 513.433 186.951C513.192 186.294 513.379 185.462 513.995 184.457L518.313 177.401C518.929 176.396 519.619 175.792 520.385 175.592C521.137 175.348 522.105 175.473 523.289 175.967L527.131 177.568C525.646 174.61 524.951 171.61 525.045 168.568C525.14 165.525 526.074 162.555 527.848 159.655ZM534.683 163.062C533.072 165.695 532.273 168.313 532.286 170.918C532.317 173.493 533.187 175.879 534.896 178.076C536.623 180.244 539.151 182.022 542.48 183.41C545.809 184.798 549.044 185.422 552.183 185.283C555.34 185.114 558.183 184.276 560.713 182.768C563.261 181.231 565.34 179.146 566.952 176.514C568.563 173.881 569.276 171.338 569.09 168.884C568.872 166.417 567.846 164.188 566.01 162.198C564.193 160.178 561.7 158.507 558.53 157.186C555.361 155.865 552.252 155.2 549.204 155.191C546.173 155.153 543.406 155.801 540.903 157.134C538.368 158.453 536.295 160.429 534.683 163.062Z" fill="white"/>
<path d="M554.005 117.834C557.077 114.209 560.778 111.479 565.106 109.643C569.435 107.808 573.962 107.032 578.686 107.316C583.403 107.556 587.849 108.881 592.024 111.291C596.2 113.701 599.248 116.702 601.17 120.293C603.084 123.841 603.739 127.608 603.135 131.593C602.53 135.579 600.692 139.384 597.621 143.009C594.549 146.634 590.848 149.364 586.519 151.2C582.191 153.035 577.668 153.833 572.951 153.593C568.227 153.309 563.777 151.962 559.601 149.552C555.426 147.142 552.382 144.163 550.468 140.615C548.546 137.024 547.887 133.235 548.491 129.25C549.095 125.264 550.933 121.459 554.005 117.834ZM560.674 121.683C558.499 124.25 557.228 126.885 556.86 129.588C556.485 132.248 557.005 134.775 558.421 137.168C559.807 139.544 561.972 141.582 564.916 143.281C567.859 144.98 570.936 145.968 574.146 146.245C577.326 146.504 580.38 146.041 583.308 144.854C586.229 143.625 588.777 141.726 590.952 139.16C593.127 136.593 594.402 133.98 594.777 131.32C595.145 128.617 594.636 126.077 593.25 123.701C591.834 121.308 589.654 119.261 586.71 117.562C583.767 115.863 580.705 114.884 577.525 114.625C574.315 114.348 571.25 114.824 568.329 116.054C565.401 117.24 562.849 119.117 560.674 121.683Z" fill="white"/>
<path d="M603.365 65.9624C605.548 64.3653 608.1 63.3434 611.018 62.8965C612.747 62.6447 614.094 62.968 615.058 63.8661C615.515 64.2916 615.922 64.8801 616.28 65.6316C617.138 67.4088 617.05 68.6763 616.014 69.4338C615.594 69.741 615.101 69.9331 614.534 70.0102C612.477 70.3753 610.665 71.1312 609.097 72.2778C606.578 74.1205 604.844 76.7181 603.895 80.0704C602.921 83.3991 602.929 86.8965 603.917 90.5627C604.933 94.2084 606.926 97.414 609.895 100.179L617.281 107.057L631.432 96.7073C632.384 96.0111 633.259 95.7088 634.057 95.8003C634.857 95.8477 635.727 96.3087 636.666 97.1832C637.605 98.0577 638.068 98.8377 638.054 99.523C638.043 100.164 637.562 100.833 636.61 101.529L609.568 121.308C608.616 122.004 607.74 122.329 606.939 122.281C606.141 122.19 605.273 121.707 604.334 120.832C603.394 119.958 602.931 119.2 602.942 118.559C602.956 117.873 603.438 117.183 604.39 116.486L610.983 111.664L586.159 88.5484L580.827 92.4489C579.875 93.1451 578.999 93.4695 578.198 93.4221C577.4 93.3305 576.531 92.8475 575.592 91.973C574.653 91.0984 574.189 90.3406 574.2 89.6994C574.214 89.0141 574.697 88.3233 575.649 87.6272L584.215 81.3617C585.167 80.6656 586.042 80.3633 586.84 80.4548C587.64 80.5022 588.51 80.9632 589.449 81.8377L597.14 88.9994C596.25 85.9366 595.919 82.9291 596.148 79.9768C596.376 77.0245 597.111 74.3346 598.353 71.9071C599.595 69.4796 601.265 67.4981 603.365 65.9624Z" fill="white"/>
<path d="M629.825 26.9888C631.203 26.636 632.269 26.6299 633.023 26.9706C633.777 27.3112 634.368 28.0497 634.795 29.1859L640.289 43.7943L661.002 38.4889C662.144 38.1964 663.048 38.2495 663.714 38.6485C664.401 39.0063 664.97 39.7858 665.422 40.987C665.874 42.1881 665.945 43.1129 665.637 43.7614C665.349 44.3688 664.635 44.8188 663.492 45.1114L642.779 50.4168L649.444 68.1417C650.836 71.8425 652.511 74.3853 654.468 75.7703C656.459 77.1466 659.101 77.4131 662.393 76.5697C664.644 75.9932 666.848 74.9482 669.005 73.4349C671.161 71.9216 673.124 70.1376 674.893 68.083C675.241 67.6379 675.701 67.3422 676.272 67.1959C677.415 66.9033 678.67 67.4004 680.038 68.6871C680.792 69.4193 681.285 70.0938 681.517 70.7106C681.908 71.7494 681.671 72.7354 680.806 73.6687C678.783 75.9306 676.355 77.9941 673.52 79.859C670.673 81.6915 667.855 82.9649 665.067 83.6792C659.355 85.1421 654.635 84.7851 650.906 82.6082C647.199 80.3902 644.271 76.4245 642.123 70.711L635.219 52.353L624.989 54.9734C623.847 55.266 622.932 55.2334 622.245 54.8755C621.579 54.4766 621.02 53.6766 620.569 52.4754C620.117 51.2743 620.035 50.37 620.322 49.7626C620.631 49.1141 621.356 48.6435 622.498 48.351L632.729 45.7306L627.236 31.1221C626.808 29.9859 626.789 29.1012 627.177 28.4679C627.565 27.8347 628.448 27.3417 629.825 26.9888Z" fill="white"/>
<path d="M718.293 25.3922C724.622 26.9622 728.87 29.5083 731.037 33.0307C733.204 36.5532 733.309 41.0029 731.35 46.38L724.264 65.8353C723.327 68.4098 723.969 69.9726 726.19 70.5238L727.958 70.9622C729.102 71.2461 729.815 71.7072 730.096 72.3456C730.423 72.9596 730.367 73.8696 729.928 75.0753C729.489 76.2811 728.922 77.0821 728.227 77.4782C727.578 77.8502 726.681 77.8941 725.536 77.6102L722.305 76.8085C720.117 76.2657 718.421 75.2767 717.219 73.8414C716.062 72.3818 715.622 70.567 715.899 68.3971C712.284 70.0587 708.629 71.1241 704.935 71.5934C701.274 72.071 697.642 71.8631 694.041 70.9695C690.641 70.1261 687.83 68.8247 685.608 67.0653C683.431 65.2817 681.994 63.1308 681.296 60.6125C680.598 58.0943 680.789 55.3523 681.87 52.3868C683.745 47.2378 687.03 43.9131 691.724 42.4126C696.43 40.8795 701.795 40.8603 707.821 42.3551C713.173 43.6829 717.987 45.7832 722.263 48.6561L723.776 44.5011C724.927 41.34 724.844 38.7966 723.527 36.8708C722.255 34.9208 719.583 33.4406 715.51 32.4301C712.985 31.8038 710.235 31.4946 707.259 31.5026C704.283 31.5105 701.347 31.8126 698.45 32.4087C697.771 32.5601 697.196 32.5773 696.725 32.4604C695.614 32.1848 694.973 31.173 694.802 29.4251C694.717 28.5511 694.769 27.8534 694.959 27.332C695.374 26.1914 696.318 25.466 697.789 25.1558C701.138 24.4233 704.566 24.0832 708.07 24.1353C711.62 24.1632 715.028 24.5822 718.293 25.3922ZM705.361 49.2601C701.49 48.2998 698.189 48.1916 695.459 48.9357C692.774 49.6555 690.922 51.4167 689.901 54.2193C689.035 56.5982 689.2 58.6645 690.396 60.4182C691.638 62.1476 693.791 63.3923 696.854 64.1522C703.553 65.814 710.574 64.6244 717.919 60.5835L719.859 55.2553C717.831 53.9705 715.57 52.8231 713.075 51.8133C710.592 50.7709 708.02 49.9198 705.361 49.2601Z" fill="white"/>
<path d="M787.157 35.2778C788.31 36.1107 788.936 36.8783 789.035 37.5804C789.134 38.2826 788.742 39.05 787.859 39.8826L776.501 50.5871L793.831 63.1112C794.787 63.8019 795.26 64.4798 795.249 65.1448C795.292 65.8064 794.847 66.5772 793.913 67.4573C792.979 68.3375 792.1 68.8155 791.274 68.8914C790.502 68.9638 789.638 68.6546 788.682 67.9639L771.352 55.4398L757.572 68.4279C754.694 71.1397 753.135 73.5221 752.894 75.5751C752.68 77.6485 753.951 79.6806 756.706 81.6715C758.589 83.0326 760.912 84.1436 763.673 85.0047C766.435 85.8657 769.353 86.4619 772.429 86.7932C773.075 86.8397 773.637 87.0356 774.115 87.381C775.07 88.0717 775.305 89.2079 774.819 90.7897C774.528 91.6723 774.143 92.3396 773.663 92.7916C772.855 93.5528 771.735 93.8361 770.303 93.6414C766.874 93.2224 763.406 92.4185 759.9 91.2294C756.419 90.0166 753.512 88.5671 751.178 86.881C746.4 83.4275 744.01 79.8516 744.011 76.1534C744.064 72.4517 746.312 68.5075 750.755 64.3209L765.027 50.8689L756.468 44.683C755.512 43.9923 755.013 43.3162 754.97 42.6546C754.98 41.9896 755.452 41.217 756.386 40.3369C757.32 39.4567 758.173 38.9805 758.945 38.9081C759.77 38.8322 760.661 39.1396 761.617 39.8303L770.176 46.0162L781.534 35.3117C782.417 34.4791 783.287 34.0571 784.144 34.0456C785 34.0342 786.005 34.4449 787.157 35.2778Z" fill="white"/>
<path d="M830.655 89.7856C831.421 90.682 831.722 91.4543 831.558 92.1026C831.446 92.7598 830.836 93.4113 829.727 94.0569L797.356 112.902L808.206 125.597C808.972 126.493 809.273 127.266 809.109 127.914C808.998 128.571 808.387 129.223 807.278 129.868C806.169 130.514 805.206 130.779 804.388 130.662C803.623 130.555 802.858 130.053 802.091 129.157L775.591 98.1521C774.825 97.2557 774.498 96.4789 774.609 95.8217C774.773 95.1734 775.41 94.5264 776.519 93.8808C777.628 93.2351 778.565 92.966 779.33 93.0733C780.148 93.1896 780.939 93.6959 781.706 94.5923L792.285 106.97L821.599 89.9047L813.047 79.8994C812.281 79.003 811.954 78.2262 812.066 77.569C812.23 76.9207 812.866 76.2737 813.975 75.6281C815.084 74.9825 816.021 74.7133 816.786 74.8207C817.604 74.937 818.396 75.4433 819.162 76.3397L830.655 89.7856ZM849.31 77.0295C850.55 78.4796 851.17 79.5991 851.171 80.3881C851.202 81.1597 850.678 81.8596 849.599 82.4878L843.754 85.8905C842.675 86.5187 841.686 86.7 840.785 86.4344C839.915 86.1514 838.86 85.2849 837.621 83.8349C836.381 82.3848 835.746 81.274 835.715 80.5024C835.714 79.7134 836.253 79.0048 837.332 78.3766L843.177 74.9739C844.256 74.3457 845.23 74.1731 846.101 74.4561C847.001 74.7217 848.071 75.5795 849.31 77.0295Z" fill="white"/>
<path d="M863.265 129.04C865.773 133.076 867.043 137.133 867.076 141.212C867.109 145.29 865.92 148.993 863.51 152.32C861.149 155.662 857.749 158.273 853.309 160.152C848.87 162.031 844.301 162.792 839.602 162.437C834.954 162.097 830.633 160.726 826.639 158.323C822.646 155.921 819.395 152.701 816.888 148.665C814.38 144.629 813.11 140.572 813.077 136.493C813.044 132.415 814.207 128.704 816.568 125.361C818.978 122.035 822.404 119.432 826.843 117.553C831.283 115.674 835.827 114.905 840.475 115.244C845.174 115.6 849.52 116.979 853.513 119.382C857.507 121.784 860.758 125.004 863.265 129.04ZM856.174 132.04C854.399 129.183 852.147 126.954 849.419 125.356C846.742 123.773 843.807 122.912 840.616 122.775C837.456 122.624 834.311 123.21 831.181 124.535C828.051 125.86 825.622 127.631 823.895 129.851C822.2 132.056 821.333 134.525 821.296 137.257C821.309 140.004 822.203 142.807 823.978 145.665C825.754 148.522 827.98 150.743 830.658 152.325C833.386 153.924 836.329 154.799 839.489 154.95C842.681 155.088 845.841 154.495 848.972 153.17C852.102 151.845 854.515 150.08 856.21 147.875C857.937 145.655 858.794 143.172 858.781 140.424C858.819 137.693 857.95 134.898 856.174 132.04Z" fill="white"/>
<path d="M893.153 179.996C894.504 182.848 895.016 185.537 894.69 188.063C894.398 190.579 893.297 192.795 891.389 194.711C889.48 196.627 886.892 198.112 883.624 199.166L859.66 206.894L861.486 210.75C861.99 211.816 862.082 212.653 861.762 213.262C861.489 213.892 860.743 214.404 859.521 214.798C858.3 215.192 857.314 215.239 856.563 214.939C855.86 214.66 855.256 213.987 854.752 212.921L847.539 197.687C847.034 196.621 846.918 195.773 847.191 195.144C847.511 194.534 848.282 194.033 849.503 193.639C850.724 193.245 851.686 193.188 852.389 193.467C853.14 193.767 853.768 194.45 854.272 195.515L856.321 199.841L879.542 192.352C882.48 191.405 884.503 190.012 885.611 188.173C886.719 186.334 886.679 184.161 885.492 181.654C884.23 178.989 882.241 176.758 879.526 174.96C876.825 173.193 873.729 172.078 870.237 171.614C866.745 171.15 863.25 171.483 859.751 172.611L845.59 177.178L847.638 181.504C848.143 182.569 848.235 183.407 847.915 184.016C847.642 184.646 846.895 185.158 845.674 185.552C844.453 185.945 843.467 185.992 842.716 185.693C842.013 185.413 841.409 184.741 840.904 183.675L833.691 168.441C833.187 167.375 833.071 166.527 833.343 165.897C833.664 165.288 834.434 164.787 835.656 164.393C836.877 163.999 837.839 163.941 838.542 164.221C839.293 164.521 839.92 165.203 840.425 166.269L842.251 170.125L874.533 159.714L872.262 154.918C871.758 153.852 871.642 153.004 871.914 152.374C872.234 151.765 873.005 151.264 874.227 150.87C875.448 150.476 876.41 150.419 877.113 150.698C877.864 150.998 878.491 151.68 878.996 152.746L882.981 161.163C883.486 162.229 883.578 163.066 883.257 163.675C882.985 164.305 882.238 164.817 881.017 165.211L875.075 167.127C879.422 168.11 883.139 169.693 886.228 171.877C889.331 174.092 891.64 176.798 893.153 179.996Z" fill="white"/>
<path d="M867.845 409.994C868.279 406.868 869.347 404.22 871.049 402.049C872.715 399.875 874.912 398.29 877.639 397.296C880.366 396.301 883.439 395.965 886.857 396.289L911.924 398.663L912.512 394.438C912.674 393.27 913.065 392.472 913.685 392.043C914.274 391.577 915.208 391.404 916.485 391.525C917.763 391.646 918.642 391.99 919.123 392.558C919.574 393.088 919.718 393.937 919.556 395.105L917.234 411.8C917.072 412.968 916.696 413.785 916.106 414.251C915.487 414.68 914.539 414.834 913.261 414.713C911.984 414.592 911.119 414.266 910.668 413.736C910.187 413.169 910.028 412.301 910.191 411.133L910.85 406.392L886.559 404.092C883.486 403.801 880.954 404.275 878.963 405.513C876.971 406.751 875.785 408.745 875.403 411.493C874.997 414.413 875.463 417.224 876.801 419.926C878.144 422.594 880.196 424.824 882.955 426.617C885.714 428.41 888.924 429.48 892.584 429.826L907.396 431.229L908.055 426.488C908.218 425.32 908.609 424.522 909.228 424.094C909.818 423.627 910.751 423.455 912.029 423.576C913.306 423.697 914.185 424.041 914.666 424.609C915.117 425.139 915.262 425.988 915.099 427.156L912.778 443.851C912.615 445.019 912.239 445.836 911.65 446.302C911.031 446.731 910.082 446.884 908.805 446.763C907.527 446.642 906.663 446.317 906.212 445.787C905.731 445.219 905.572 444.352 905.734 443.184L906.322 438.958L872.553 435.76L871.822 441.016C871.66 442.184 871.284 443.001 870.694 443.467C870.075 443.896 869.127 444.05 867.849 443.929C866.572 443.808 865.707 443.482 865.256 442.952C864.775 442.385 864.616 441.517 864.779 440.349L866.061 431.125C866.223 429.957 866.614 429.159 867.234 428.731C867.823 428.264 868.757 428.092 870.034 428.213L876.249 428.801C873.043 426.201 870.717 423.3 869.273 420.101C867.834 416.867 867.358 413.498 867.845 409.994Z" fill="white"/>
<path d="M870.267 324.842C870.52 323.691 870.973 322.919 871.626 322.527C872.252 322.095 873.199 321.975 874.469 322.165L893.866 325.068C895.066 325.248 895.86 325.664 896.248 326.317C896.636 326.97 896.678 327.99 896.372 329.379C896.067 330.768 895.594 331.712 894.953 332.211C894.312 332.71 893.391 332.869 892.191 332.69L876.292 330.31L873.311 343.877L920.389 350.923L923.024 338.931C923.277 337.78 923.73 337.008 924.383 336.616C925.009 336.184 925.957 336.064 927.226 336.254C928.495 336.444 929.348 336.834 929.785 337.424C930.196 337.975 930.274 338.827 930.021 339.979L923.076 371.583C922.823 372.735 922.384 373.527 921.758 373.958C921.105 374.35 920.144 374.451 918.874 374.261C917.605 374.071 916.766 373.7 916.355 373.149C915.918 372.559 915.826 371.688 916.079 370.536L918.714 358.545L871.637 351.499L868.655 365.065L884.554 367.445C885.754 367.625 886.549 368.041 886.937 368.694C887.324 369.347 887.366 370.367 887.061 371.756C886.756 373.145 886.282 374.089 885.641 374.588C885 375.087 884.08 375.246 882.879 375.067L863.482 372.164C862.213 371.974 861.373 371.603 860.963 371.052C860.526 370.461 860.434 369.59 860.687 368.439L870.267 324.842Z" fill="white"/>
<path d="M889.41 299.176C890.803 294.344 892.993 290.426 895.981 287.421C898.945 284.376 902.46 282.284 906.528 281.146C910.562 280.002 914.914 279.747 919.586 280.383C920.743 280.61 921.487 281.02 921.82 281.614C922.162 282.174 922.169 283.02 921.843 284.153L911.41 320.345C916.548 321.107 920.816 320.396 924.215 318.211C927.589 315.986 929.992 312.391 931.424 307.426C932.307 304.36 932.79 301.25 932.872 298.097C932.92 294.938 932.607 292.094 931.933 289.568C931.79 288.941 931.786 288.394 931.92 287.928C932.256 286.761 933.432 285.989 935.447 285.61C936.248 285.45 936.938 285.427 937.517 285.541C938.878 285.808 939.722 286.748 940.048 288.362C940.635 291.188 940.833 294.432 940.641 298.091C940.449 301.751 939.844 305.347 938.826 308.879C937.375 313.911 935.149 318.017 932.147 321.195C929.145 324.373 925.52 326.531 921.273 327.669C917.025 328.807 912.349 328.875 907.244 327.872C902.377 326.917 898.365 325.055 895.208 322.287C892.05 319.519 889.969 316.135 888.965 312.135C887.926 308.128 888.075 303.809 889.41 299.176ZM896.812 300.63C895.631 304.729 895.723 308.339 897.089 311.459C898.43 314.539 900.87 316.867 904.407 318.442L913.212 287.899C909.096 287.83 905.652 288.862 902.88 290.994C900.084 293.085 898.061 296.298 896.812 300.63Z" fill="white"/>
<path d="M885.54 246.779C885.948 245.673 886.505 244.959 887.211 244.639C887.896 244.277 888.86 244.252 890.105 244.565L946.013 258.597L951.787 242.927C952.195 241.82 952.752 241.107 953.458 240.786C954.143 240.425 955.107 240.4 956.352 240.713C957.596 241.025 958.398 241.493 958.756 242.116C959.093 242.698 959.057 243.543 958.65 244.649L944.548 282.92C944.14 284.027 943.594 284.761 942.91 285.122C942.203 285.443 941.228 285.447 939.983 285.135C938.739 284.822 937.948 284.375 937.611 283.793C937.253 283.17 937.278 282.305 937.685 281.198L943.315 265.919L890.838 252.748L885.927 266.075C885.52 267.181 884.974 267.915 884.289 268.277C883.583 268.597 882.608 268.602 881.363 268.289C880.118 267.977 879.328 267.529 878.991 266.947C878.633 266.324 878.657 265.459 879.065 264.353L885.54 246.779Z" fill="white"/>
<path d="M920.502 206.24C922.641 201.689 925.437 198.124 928.891 195.547C932.327 192.927 936.168 191.304 940.414 190.677C944.628 190.04 949.023 190.31 953.601 191.487C954.724 191.846 955.406 192.335 955.647 192.954C955.903 193.542 955.78 194.369 955.278 195.436L939.256 229.524C944.281 230.88 948.662 230.694 952.401 228.965C956.121 227.195 959.08 223.972 961.279 219.295C962.636 216.407 963.599 213.429 964.167 210.361C964.702 207.282 964.827 204.47 964.542 201.923C964.495 201.294 964.576 200.76 964.782 200.321C965.298 199.222 966.594 198.608 968.669 198.478C969.496 198.417 970.19 198.477 970.751 198.657C972.073 199.08 972.772 200.098 972.85 201.712C973.002 204.541 972.7 207.731 971.943 211.28C971.187 214.83 970.027 218.268 968.463 221.595C966.235 226.335 963.374 230.077 959.879 232.822C956.385 235.567 952.424 237.243 947.998 237.848C943.571 238.453 938.881 237.962 933.926 236.376C929.202 234.863 925.474 232.568 922.741 229.49C920.007 226.412 918.446 222.861 918.058 218.837C917.636 214.802 918.451 210.603 920.502 206.24ZM927.686 208.54C925.871 212.401 925.407 215.935 926.293 219.144C927.16 222.311 929.243 224.873 932.541 226.832L946.062 198.065C941.954 197.508 938.348 198.105 935.245 199.856C932.124 201.565 929.604 204.46 927.686 208.54Z" fill="white"/>
<path d="M943.862 159.655C946.107 155.987 949.061 153.097 952.724 150.986C956.355 148.861 960.439 147.704 964.974 147.515C969.477 147.313 974.098 148.2 978.835 150.175C983.573 152.15 987.196 154.7 989.703 157.824C992.179 160.935 993.474 164.334 993.588 168.021C993.671 171.694 992.589 175.364 990.344 179.032C986.941 184.594 981.43 188.182 973.812 189.796L992.78 197.703L997.451 190.071C998.066 189.065 998.741 188.455 999.475 188.241C1000.26 188.011 1001.24 188.142 1002.43 188.636C1003.61 189.13 1004.31 189.699 1004.52 190.343C1004.78 190.97 1004.6 191.787 1003.98 192.793L992.467 211.607C991.851 212.613 991.151 213.231 990.368 213.461C989.634 213.675 988.675 213.535 987.49 213.041C986.306 212.548 985.584 211.987 985.326 211.359C985.117 210.715 985.32 209.89 985.936 208.885L988.706 204.359L938.767 183.54L936.54 187.179C935.924 188.185 935.241 188.809 934.489 189.053C933.723 189.254 932.748 189.107 931.564 188.613C930.379 188.12 929.674 187.565 929.447 186.951C929.206 186.294 929.394 185.462 930.009 184.457L934.327 177.401C934.943 176.396 935.633 175.792 936.399 175.592C937.151 175.348 938.119 175.473 939.303 175.967L943.145 177.568C941.661 174.61 940.965 171.61 941.06 168.568C941.154 165.525 942.088 162.555 943.862 159.655ZM950.698 163.062C949.086 165.695 948.287 168.313 948.3 170.918C948.331 173.493 949.201 175.879 950.91 178.076C952.637 180.244 955.165 182.022 958.494 183.41C961.824 184.798 965.058 185.422 968.197 185.283C971.354 185.114 974.198 184.276 976.727 182.768C979.275 181.231 981.355 179.146 982.966 176.514C984.577 173.881 985.29 171.338 985.104 168.884C984.887 166.417 983.86 164.188 982.024 162.198C980.207 160.178 977.714 158.507 974.545 157.186C971.375 155.865 968.266 155.2 965.218 155.191C962.188 155.153 959.421 155.801 956.917 157.134C954.382 158.453 952.309 160.429 950.698 163.062Z" fill="white"/>
<path d="M970.018 117.834C973.09 114.209 976.79 111.479 981.119 109.643C985.448 107.808 989.974 107.032 994.699 107.316C999.415 107.556 1003.86 108.881 1008.04 111.291C1012.21 113.701 1015.26 116.702 1017.18 120.293C1019.1 123.841 1019.75 127.608 1019.15 131.593C1018.54 135.579 1016.7 139.384 1013.63 143.009C1010.56 146.634 1006.86 149.364 1002.53 151.2C998.203 153.035 993.68 153.833 988.963 153.593C984.239 153.309 979.789 151.962 975.614 149.552C971.439 147.142 968.394 144.163 966.48 140.615C964.558 137.024 963.9 133.235 964.504 129.25C965.108 125.264 966.946 121.459 970.018 117.834ZM976.686 121.683C974.511 124.25 973.24 126.885 972.872 129.588C972.497 132.248 973.017 134.775 974.433 137.168C975.819 139.544 977.984 141.582 980.928 143.281C983.872 144.98 986.948 145.968 990.158 146.245C993.338 146.504 996.392 146.041 999.321 144.854C1002.24 143.625 1004.79 141.726 1006.96 139.16C1009.14 136.593 1010.41 133.98 1010.79 131.32C1011.16 128.617 1010.65 126.077 1009.26 123.701C1007.85 121.308 1005.67 119.261 1002.72 117.562C999.779 115.863 996.717 114.884 993.537 114.625C990.328 114.348 987.262 114.824 984.341 116.054C981.413 117.24 978.861 119.117 976.686 121.683Z" fill="white"/>
<path d="M1019.38 65.9624C1021.56 64.3653 1024.11 63.3434 1027.03 62.8965C1028.76 62.6447 1030.11 62.968 1031.07 63.8661C1031.53 64.2916 1031.94 64.8801 1032.29 65.6316C1033.15 67.4088 1033.06 68.6763 1032.03 69.4338C1031.61 69.741 1031.12 69.9331 1030.55 70.0102C1028.49 70.3753 1026.68 71.1312 1025.11 72.2778C1022.59 74.1205 1020.86 76.7181 1019.91 80.0704C1018.94 83.3991 1018.94 86.8965 1019.93 90.5627C1020.95 94.2084 1022.94 97.414 1025.91 100.179L1033.3 107.057L1047.45 96.7073C1048.4 96.0111 1049.27 95.7088 1050.07 95.8003C1050.87 95.8477 1051.74 96.3087 1052.68 97.1832C1053.62 98.0577 1054.08 98.8377 1054.07 99.523C1054.06 100.164 1053.58 100.833 1052.62 101.529L1025.58 121.308C1024.63 122.004 1023.75 122.329 1022.95 122.281C1022.16 122.19 1021.29 121.707 1020.35 120.832C1019.41 119.958 1018.94 119.2 1018.96 118.559C1018.97 117.873 1019.45 117.183 1020.4 116.486L1027 111.664L1002.17 88.5484L996.841 92.4489C995.889 93.1451 995.013 93.4695 994.212 93.4221C993.414 93.3305 992.546 92.8475 991.607 91.973C990.667 91.0984 990.204 90.3406 990.215 89.6994C990.229 89.0141 990.711 88.3233 991.663 87.6272L1000.23 81.3617C1001.18 80.6656 1002.06 80.3633 1002.85 80.4548C1003.65 80.5022 1004.52 80.9632 1005.46 81.8377L1013.15 88.9994C1012.26 85.9366 1011.93 82.9291 1012.16 79.9768C1012.39 77.0245 1013.13 74.3346 1014.37 71.9071C1015.61 69.4796 1017.28 67.4981 1019.38 65.9624Z" fill="white"/>
<path d="M1045.84 26.9886C1047.22 26.6358 1048.28 26.6297 1049.04 26.9703C1049.79 27.311 1050.38 28.0494 1050.81 29.1856L1056.3 43.7941L1077.02 38.4887C1078.16 38.1961 1079.06 38.2493 1079.73 38.6482C1080.42 39.0061 1080.98 39.7856 1081.44 40.9867C1081.89 42.1879 1081.96 43.1127 1081.65 43.7612C1081.36 44.3686 1080.65 44.8186 1079.51 45.1112L1058.79 50.4165L1065.46 68.1414C1066.85 71.8422 1068.52 74.3851 1070.48 75.77C1072.47 77.1464 1075.11 77.4128 1078.41 76.5695C1080.66 75.9929 1082.86 74.948 1085.02 73.4347C1087.18 71.9213 1089.14 70.1374 1090.91 68.0827C1091.26 67.6376 1091.72 67.3419 1092.29 67.1956C1093.43 66.903 1094.68 67.4001 1096.05 68.6869C1096.81 69.4191 1097.3 70.0935 1097.53 70.7103C1097.92 71.7492 1097.68 72.7352 1096.82 73.6685C1094.8 75.9304 1092.37 77.9938 1089.53 79.8588C1086.69 81.6913 1083.87 82.9647 1081.08 83.6789C1075.37 85.1419 1070.65 84.7849 1066.92 82.608C1063.21 80.39 1060.29 76.4242 1058.14 70.7107L1051.23 52.3528L1041 54.9732C1039.86 55.2658 1038.95 55.2332 1038.26 54.8753C1037.59 54.4764 1037.03 53.6763 1036.58 52.4752C1036.13 51.2741 1036.05 50.3698 1036.34 49.7623C1036.64 49.1138 1037.37 48.6433 1038.51 48.3507L1048.74 45.7303L1043.25 31.1219C1042.82 29.9857 1042.8 29.1009 1043.19 28.4677C1043.58 27.8345 1044.46 27.3414 1045.84 26.9886Z" fill="white"/>
<path d="M1134.31 25.3922C1140.64 26.9622 1144.88 29.5083 1147.05 33.0307C1149.22 36.5532 1149.32 41.0029 1147.36 46.38L1140.28 65.8353C1139.34 68.4098 1139.98 69.9726 1142.2 70.5238L1143.97 70.9622C1145.12 71.2461 1145.83 71.7072 1146.11 72.3456C1146.44 72.9596 1146.38 73.8696 1145.94 75.0753C1145.5 76.2811 1144.94 77.0821 1144.24 77.4782C1143.59 77.8502 1142.7 77.8941 1141.55 77.6102L1138.32 76.8085C1136.13 76.2657 1134.44 75.2767 1133.23 73.8414C1132.08 72.3818 1131.64 70.567 1131.91 68.3971C1128.3 70.0587 1124.64 71.1241 1120.95 71.5934C1117.29 72.071 1113.66 71.8631 1110.05 70.9695C1106.65 70.1261 1103.84 68.8247 1101.62 67.0653C1099.45 65.2817 1098.01 63.1308 1097.31 60.6125C1096.61 58.0943 1096.8 55.3523 1097.88 52.3868C1099.76 47.2378 1103.04 43.9131 1107.74 42.4126C1112.44 40.8795 1117.81 40.8603 1123.84 42.3551C1129.19 43.6829 1134 45.7832 1138.28 48.6561L1139.79 44.5011C1140.94 41.34 1140.86 38.7966 1139.54 36.8708C1138.27 34.9208 1135.6 33.4406 1131.52 32.4301C1129 31.8038 1126.25 31.4946 1123.27 31.5026C1120.3 31.5105 1117.36 31.8126 1114.46 32.4087C1113.79 32.5601 1113.21 32.5773 1112.74 32.4604C1111.63 32.1848 1110.99 31.173 1110.82 29.4251C1110.73 28.5511 1110.78 27.8534 1110.97 27.332C1111.39 26.1914 1112.33 25.466 1113.8 25.1558C1117.15 24.4233 1120.58 24.0832 1124.08 24.1353C1127.63 24.1632 1131.04 24.5822 1134.31 25.3922ZM1121.38 49.2601C1117.5 48.2998 1114.2 48.1916 1111.47 48.9357C1108.79 49.6555 1106.94 51.4167 1105.92 54.2193C1105.05 56.5982 1105.21 58.6645 1106.41 60.4182C1107.65 62.1476 1109.8 63.3923 1112.87 64.1522C1119.57 65.814 1126.59 64.6244 1133.93 60.5835L1135.87 55.2553C1133.85 53.9705 1131.58 52.8231 1129.09 51.8133C1126.61 50.7709 1124.03 49.9198 1121.38 49.2601Z" fill="white"/>
<path d="M1203.17 35.2776C1204.32 36.1105 1204.95 36.878 1205.05 37.5802C1205.15 38.2824 1204.76 39.0497 1203.87 39.8823L1192.52 50.5868L1209.85 63.111C1210.8 63.8017 1211.27 64.4796 1211.26 65.1446C1211.31 65.8061 1210.86 66.577 1209.93 67.4571C1208.99 68.3372 1208.11 68.8153 1207.29 68.8911C1206.52 68.9635 1205.65 68.6544 1204.7 67.9637L1187.37 55.4395L1173.59 68.4276C1170.71 71.1394 1169.15 73.5219 1168.91 75.5749C1168.69 77.6483 1169.97 79.6804 1172.72 81.6712C1174.6 83.0323 1176.93 84.1434 1179.69 85.0044C1182.45 85.8655 1185.37 86.4616 1188.44 86.7929C1189.09 86.8394 1189.65 87.0354 1190.13 87.3807C1191.08 88.0715 1191.32 89.2077 1190.83 90.7895C1190.54 91.6721 1190.16 92.3393 1189.68 92.7913C1188.87 93.5525 1187.75 93.8358 1186.32 93.6412C1182.89 93.2222 1179.42 92.4182 1175.91 91.2292C1172.43 90.0164 1169.53 88.5669 1167.19 86.8807C1162.41 83.4272 1160.02 79.8513 1160.03 76.1531C1160.08 72.4515 1162.33 68.5073 1166.77 64.3206L1181.04 50.8687L1172.48 44.6828C1171.53 43.992 1171.03 43.3159 1170.98 42.6544C1170.99 41.9894 1171.47 41.2168 1172.4 40.3366C1173.33 39.4565 1174.19 38.9802 1174.96 38.9078C1175.78 38.8319 1176.68 39.1393 1177.63 39.83L1186.19 46.016L1197.55 35.3115C1198.43 34.4789 1199.3 34.0569 1200.16 34.0454C1201.01 34.0339 1202.02 34.4447 1203.17 35.2776Z" fill="white"/>
<path d="M1246.67 89.7856C1247.44 90.682 1247.74 91.4543 1247.57 92.1026C1247.46 92.7598 1246.85 93.4113 1245.74 94.0569L1213.37 112.902L1224.22 125.597C1224.99 126.493 1225.29 127.266 1225.12 127.914C1225.01 128.571 1224.4 129.223 1223.29 129.868C1222.18 130.514 1221.22 130.779 1220.4 130.662C1219.64 130.555 1218.87 130.053 1218.11 129.157L1191.61 98.1521C1190.84 97.2557 1190.51 96.4789 1190.62 95.8217C1190.79 95.1734 1191.42 94.5264 1192.53 93.8808C1193.64 93.2351 1194.58 92.966 1195.34 93.0733C1196.16 93.1896 1196.95 93.6959 1197.72 94.5923L1208.3 106.97L1237.61 89.9047L1229.06 79.8994C1228.3 79.003 1227.97 78.2262 1228.08 77.569C1228.24 76.9207 1228.88 76.2737 1229.99 75.6281C1231.1 74.9825 1232.04 74.7133 1232.8 74.8207C1233.62 74.937 1234.41 75.4433 1235.18 76.3397L1246.67 89.7856ZM1265.32 77.0295C1266.56 78.4796 1267.18 79.5991 1267.19 80.3881C1267.22 81.1597 1266.69 81.8596 1265.61 82.4878L1259.77 85.8905C1258.69 86.5187 1257.7 86.7 1256.8 86.4344C1255.93 86.1514 1254.87 85.2849 1253.64 83.8349C1252.4 82.3848 1251.76 81.274 1251.73 80.5024C1251.73 79.7134 1252.27 79.0048 1253.35 78.3766L1259.19 74.9739C1260.27 74.3457 1261.24 74.1731 1262.12 74.4561C1263.02 74.7217 1264.09 75.5795 1265.32 77.0295Z" fill="white"/>
<path d="M1279.28 129.04C1281.79 133.076 1283.06 137.133 1283.09 141.212C1283.12 145.29 1281.93 148.993 1279.52 152.32C1277.16 155.662 1273.76 158.273 1269.32 160.152C1264.88 162.031 1260.31 162.792 1255.62 162.437C1250.97 162.097 1246.65 160.726 1242.65 158.323C1238.66 155.921 1235.41 152.701 1232.9 148.665C1230.39 144.629 1229.12 140.572 1229.09 136.493C1229.06 132.415 1230.22 128.704 1232.58 125.361C1234.99 122.035 1238.42 119.432 1242.86 117.553C1247.3 115.674 1251.84 114.905 1256.49 115.244C1261.19 115.6 1265.53 116.979 1269.53 119.382C1273.52 121.784 1276.77 125.004 1279.28 129.04ZM1272.19 132.04C1270.41 129.183 1268.16 126.954 1265.43 125.356C1262.76 123.773 1259.82 122.912 1256.63 122.775C1253.47 122.624 1250.33 123.21 1247.2 124.535C1244.07 125.86 1241.64 127.631 1239.91 129.851C1238.21 132.056 1237.35 134.525 1237.31 137.257C1237.32 140.004 1238.22 142.807 1239.99 145.665C1241.77 148.522 1243.99 150.743 1246.67 152.325C1249.4 153.924 1252.34 154.799 1255.5 154.95C1258.69 155.088 1261.86 154.495 1264.99 153.17C1268.12 151.845 1270.53 150.08 1272.22 147.875C1273.95 145.655 1274.81 143.172 1274.8 140.424C1274.83 137.693 1273.96 134.898 1272.19 132.04Z" fill="white"/>
<path d="M1309.17 179.996C1310.52 182.848 1311.03 185.538 1310.7 188.064C1310.41 190.579 1309.31 192.795 1307.4 194.711C1305.49 196.627 1302.91 198.112 1299.64 199.166L1275.67 206.895L1277.5 210.75C1278 211.816 1278.1 212.653 1277.78 213.263C1277.5 213.892 1276.76 214.404 1275.54 214.798C1274.31 215.192 1273.33 215.239 1272.58 214.939C1271.87 214.66 1271.27 213.988 1270.77 212.922L1263.55 197.687C1263.05 196.622 1262.93 195.774 1263.2 195.144C1263.53 194.535 1264.3 194.033 1265.52 193.639C1266.74 193.245 1267.7 193.188 1268.4 193.467C1269.15 193.767 1269.78 194.45 1270.29 195.516L1272.33 199.842L1295.56 192.353C1298.49 191.405 1300.52 190.012 1301.62 188.173C1302.73 186.335 1302.69 184.161 1301.51 181.654C1300.24 178.989 1298.26 176.758 1295.54 174.96C1292.84 173.193 1289.74 172.078 1286.25 171.614C1282.76 171.151 1279.26 171.483 1275.76 172.611L1261.6 177.178L1263.65 181.504C1264.16 182.57 1264.25 183.407 1263.93 184.016C1263.66 184.646 1262.91 185.158 1261.69 185.552C1260.47 185.946 1259.48 185.993 1258.73 185.693C1258.03 185.414 1257.42 184.741 1256.92 183.675L1249.71 168.441C1249.2 167.375 1249.08 166.527 1249.36 165.897C1249.68 165.288 1250.45 164.787 1251.67 164.393C1252.89 163.999 1253.85 163.942 1254.56 164.221C1255.31 164.521 1255.93 165.204 1256.44 166.269L1258.26 170.125L1290.55 159.714L1288.28 154.918C1287.77 153.852 1287.66 153.004 1287.93 152.375C1288.25 151.765 1289.02 151.264 1290.24 150.87C1291.46 150.476 1292.42 150.419 1293.13 150.698C1293.88 150.998 1294.51 151.681 1295.01 152.747L1299 161.163C1299.5 162.229 1299.59 163.066 1299.27 163.675C1299 164.305 1298.25 164.817 1297.03 165.211L1291.09 167.127C1295.44 168.11 1299.15 169.694 1302.24 171.877C1305.35 174.092 1307.65 176.799 1309.17 179.996Z" fill="white"/>
</svg>
