<svg width="1385" height="485" viewBox="0 0 1385 485" fill="none" xmlns="http://www.w3.org/2000/svg">
<path d="M35.8163 505.994C36.251 502.868 37.3189 500.219 39.02 498.048C40.6866 495.874 42.8835 494.29 45.6105 493.295C48.3375 492.301 51.4102 491.965 54.8285 492.289L79.8959 494.663L80.4834 490.438C80.6458 489.27 81.0367 488.471 81.656 488.043C82.2456 487.577 83.1791 487.404 84.4567 487.525C85.7342 487.646 86.6134 487.99 87.0942 488.558C87.5452 489.088 87.6896 489.937 87.5272 491.105L85.2058 507.8C85.0434 508.968 84.6674 509.785 84.0778 510.251C83.4585 510.68 82.5101 510.834 81.2325 510.713C79.955 510.592 79.0907 510.266 78.6397 509.736C78.1588 509.169 77.9996 508.301 78.162 507.133L78.8212 502.392L54.5307 500.092C51.4577 499.801 48.9255 500.274 46.9342 501.513C44.9429 502.751 43.7562 504.744 43.3741 507.493C42.9681 510.413 43.4343 513.224 44.7727 515.926C46.1159 518.594 48.1671 520.824 50.9264 522.617C53.6856 524.41 56.8953 525.479 60.5552 525.826L75.3678 527.229L76.027 522.488C76.1894 521.32 76.5802 520.522 77.1995 520.093C77.7891 519.627 78.7227 519.454 80.0002 519.575C81.2777 519.696 82.1569 520.041 82.6377 520.608C83.0888 521.138 83.2331 521.987 83.0707 523.155L80.7493 539.85C80.5869 541.018 80.2109 541.836 79.6214 542.302C79.0021 542.73 78.0536 542.884 76.7761 542.763C75.4985 542.642 74.6342 542.317 74.1832 541.787C73.7024 541.219 73.5432 540.351 73.7056 539.183L74.2931 534.958L40.5246 531.76L39.7938 537.016C39.6314 538.184 39.2554 539.001 38.6658 539.467C38.0465 539.896 37.0981 540.05 35.8205 539.929C34.543 539.808 33.6787 539.482 33.2277 538.952C32.7468 538.384 32.5876 537.517 32.75 536.349L34.0325 527.125C34.1949 525.957 34.5858 525.159 35.2051 524.73C35.7947 524.264 36.7282 524.091 38.0058 524.212L44.2208 524.801C41.0142 522.2 38.6888 519.3 37.2446 516.101C35.8052 512.867 35.3291 509.498 35.8163 505.994Z" fill="white"/>
<path d="M38.238 420.843C38.4911 419.691 38.9441 418.919 39.5971 418.527C40.2233 418.096 41.1709 417.975 42.4401 418.165L61.837 421.068C63.0376 421.248 63.8318 421.664 64.2198 422.317C64.6078 422.97 64.6491 423.991 64.344 425.38C64.0388 426.768 63.5657 427.712 62.9246 428.211C62.2836 428.71 61.3628 428.87 60.1623 428.69L44.2639 426.31L41.2828 439.877L88.3604 446.923L90.9954 434.932C91.2485 433.78 91.7015 433.008 92.3545 432.616C92.9807 432.185 93.9283 432.064 95.1974 432.254C96.4666 432.444 97.3197 432.834 97.7569 433.424C98.1672 433.976 98.2458 434.827 97.9927 435.979L91.048 467.584C90.7949 468.735 90.3553 469.527 89.7291 469.958C89.0761 470.35 88.115 470.451 86.8459 470.261C85.5768 470.071 84.7371 469.701 84.3268 469.149C83.8896 468.559 83.7976 467.688 84.0506 466.536L86.6856 454.545L39.6081 447.499L36.627 461.066L52.5253 463.445C53.7258 463.625 54.52 464.041 54.908 464.694C55.296 465.347 55.3374 466.368 55.0322 467.757C54.727 469.145 54.2539 470.089 53.6129 470.588C52.9718 471.087 52.051 471.247 50.8505 471.067L31.4535 468.164C30.1844 467.974 29.3447 467.603 28.9344 467.052C28.4972 466.462 28.4052 465.591 28.6583 464.439L38.238 420.843Z" fill="white"/>
<path d="M57.3815 395.177C58.7745 390.344 60.9649 386.426 63.9527 383.421C66.9161 380.376 70.4317 378.285 74.4995 377.147C78.5333 376.002 82.8858 375.747 87.5571 376.383C88.7142 376.61 89.4589 377.02 89.7913 377.614C90.1332 378.174 90.1409 379.021 89.8143 380.154L79.3812 416.345C84.5193 417.108 88.7877 416.396 92.1864 414.212C95.5607 411.987 97.9635 408.392 99.3949 403.426C100.279 400.36 100.762 397.251 100.843 394.098C100.891 390.938 100.578 388.095 99.9042 385.568C99.7612 384.941 99.757 384.395 99.8915 383.928C100.228 382.762 101.403 381.989 103.418 381.61C104.22 381.45 104.909 381.427 105.488 381.541C106.849 381.808 107.693 382.749 108.019 384.362C108.607 387.189 108.804 390.432 108.612 394.091C108.421 397.751 107.815 401.347 106.797 404.879C105.346 409.912 103.12 414.017 100.118 417.195C97.1165 420.373 93.4918 422.531 89.2443 423.669C84.9967 424.807 80.3205 424.875 75.2156 423.873C70.3489 422.917 66.3367 421.055 63.1791 418.287C60.0216 415.519 57.9405 412.135 56.9361 408.135C55.8977 404.128 56.0461 399.809 57.3815 395.177ZM64.7836 396.63C63.6019 400.729 63.6941 404.339 65.06 407.459C66.4015 410.54 68.841 412.867 72.3784 414.442L81.1831 383.899C77.0676 383.831 73.6238 384.862 70.8517 386.994C68.0552 389.086 66.0325 392.298 64.7836 396.63Z" fill="white"/>
<path d="M53.5119 342.779C53.9196 341.673 54.4765 340.959 55.1826 340.639C55.8671 340.277 56.8316 340.253 58.0763 340.565L113.985 354.597L119.759 338.927C120.167 337.821 120.723 337.107 121.43 336.787C122.114 336.425 123.079 336.401 124.323 336.713C125.568 337.025 126.369 337.493 126.728 338.116C127.064 338.699 127.029 339.543 126.621 340.649L112.519 378.921C112.111 380.027 111.565 380.761 110.881 381.123C110.175 381.443 109.199 381.447 107.955 381.135C106.71 380.823 105.919 380.375 105.583 379.793C105.224 379.17 105.249 378.305 105.657 377.198L111.287 361.919L58.8094 348.749L53.8989 362.075C53.4912 363.182 52.9451 363.916 52.2606 364.277C51.5545 364.598 50.5791 364.602 49.3345 364.289C48.0898 363.977 47.2991 363.53 46.9624 362.947C46.6041 362.324 46.6287 361.459 47.0365 360.353L53.5119 342.779Z" fill="white"/>
<path d="M88.4732 302.24C90.6125 297.689 93.409 294.124 96.8627 291.547C100.298 288.927 104.139 287.304 108.386 286.677C112.6 286.04 116.995 286.31 121.572 287.487C122.695 287.846 123.377 288.335 123.618 288.954C123.874 289.542 123.751 290.369 123.25 291.436L107.227 325.524C112.252 326.88 116.634 326.694 120.372 324.965C124.092 323.195 127.052 319.972 129.25 315.295C130.607 312.407 131.57 309.429 132.138 306.361C132.673 303.282 132.798 300.47 132.513 297.923C132.467 297.294 132.547 296.76 132.754 296.321C133.27 295.222 134.566 294.608 136.641 294.478C137.467 294.417 138.161 294.477 138.723 294.657C140.044 295.08 140.744 296.098 140.821 297.712C140.973 300.541 140.671 303.731 139.915 307.28C139.158 310.83 137.998 314.268 136.434 317.595C134.206 322.335 131.345 326.077 127.851 328.822C124.356 331.567 120.396 333.243 115.969 333.848C111.543 334.453 106.852 333.962 101.897 332.376C97.1739 330.863 93.4455 328.568 90.7121 325.49C87.9786 322.412 86.4177 318.861 86.0292 314.837C85.6077 310.802 86.4224 306.603 88.4732 302.24ZM95.6574 304.54C93.8427 308.401 93.3783 311.935 94.2642 315.144C95.1318 318.311 97.2144 320.873 100.512 322.832L114.034 294.065C109.925 293.508 106.32 294.105 103.217 295.856C100.095 297.565 97.5754 300.46 95.6574 304.54Z" fill="white"/>
<path d="M111.834 255.655C114.079 251.987 117.033 249.097 120.696 246.986C124.327 244.861 128.41 243.704 132.945 243.515C137.449 243.313 142.069 244.2 146.807 246.175C151.545 248.15 155.167 250.7 157.675 253.824C160.15 256.935 161.445 260.334 161.56 264.021C161.642 267.694 160.561 271.364 158.316 275.032C154.912 280.594 149.401 284.182 141.784 285.796L160.751 293.703L165.422 286.071C166.038 285.065 166.713 284.455 167.446 284.241C168.23 284.011 169.214 284.142 170.399 284.636C171.583 285.13 172.28 285.699 172.488 286.343C172.747 286.97 172.568 287.787 171.953 288.793L160.438 307.607C159.822 308.613 159.123 309.231 158.339 309.461C157.605 309.675 156.646 309.535 155.462 309.041C154.277 308.548 153.556 307.987 153.297 307.359C153.088 306.715 153.292 305.89 153.908 304.885L156.678 300.359L106.738 279.54L104.511 283.179C103.896 284.185 103.212 284.809 102.46 285.053C101.695 285.254 100.72 285.107 99.5351 284.613C98.3506 284.12 97.645 283.565 97.4183 282.951C97.1777 282.294 97.3651 281.462 97.9807 280.457L102.299 273.401C102.914 272.396 103.605 271.792 104.371 271.592C105.122 271.348 106.091 271.473 107.275 271.967L111.116 273.568C109.632 270.61 108.937 267.61 109.031 264.568C109.125 261.525 110.06 258.555 111.834 255.655ZM118.669 259.062C117.058 261.695 116.259 264.313 116.272 266.918C116.303 269.493 117.173 271.879 118.882 274.076C120.609 276.244 123.137 278.022 126.466 279.41C129.795 280.798 133.029 281.422 136.168 281.283C139.326 281.114 142.169 280.276 144.699 278.768C147.247 277.231 149.326 275.146 150.938 272.514C152.549 269.881 153.262 267.338 153.076 264.884C152.858 262.417 151.831 260.188 149.996 258.198C148.179 256.178 145.685 254.507 142.516 253.186C139.347 251.865 136.238 251.2 133.189 251.191C130.159 251.153 127.392 251.801 124.889 253.134C122.354 254.453 120.28 256.429 118.669 259.062Z" fill="white"/>
<path d="M137.989 213.834C141.061 210.209 144.761 207.479 149.09 205.643C153.419 203.808 157.946 203.032 162.67 203.316C167.387 203.556 171.833 204.881 176.008 207.291C180.183 209.701 183.232 212.702 185.154 216.293C187.068 219.841 187.722 223.608 187.118 227.593C186.514 231.579 184.676 235.384 181.604 239.009C178.532 242.634 174.832 245.364 170.503 247.2C166.174 249.035 161.652 249.833 156.935 249.593C152.21 249.309 147.761 247.962 143.585 245.552C139.41 243.142 136.365 240.163 134.451 236.615C132.53 233.024 131.871 229.235 132.475 225.25C133.079 221.264 134.917 217.459 137.989 213.834ZM144.658 217.683C142.483 220.25 141.211 222.885 140.844 225.588C140.468 228.248 140.989 230.775 142.405 233.168C143.791 235.544 145.956 237.582 148.899 239.281C151.843 240.98 154.92 241.968 158.13 242.245C161.309 242.504 164.364 242.041 167.292 240.854C170.213 239.625 172.761 237.726 174.936 235.16C177.111 232.593 178.386 229.98 178.761 227.32C179.129 224.617 178.62 222.077 177.234 219.701C175.818 217.308 173.638 215.261 170.694 213.562C167.75 211.863 164.689 210.884 161.509 210.625C158.299 210.348 155.234 210.824 152.313 212.054C149.384 213.24 146.833 215.117 144.658 217.683Z" fill="white"/>
<path d="M187.351 161.962C189.534 160.365 192.085 159.343 195.004 158.896C196.733 158.645 198.08 158.968 199.044 159.866C199.501 160.292 199.908 160.88 200.265 161.632C201.124 163.409 201.036 164.676 200 165.434C199.58 165.741 199.087 165.933 198.52 166.01C196.463 166.375 194.65 167.131 193.083 168.278C190.563 170.121 188.829 172.718 187.881 176.07C186.907 179.399 186.914 182.897 187.902 186.563C188.918 190.208 190.911 193.414 193.881 196.179L201.267 203.057L215.418 192.707C216.37 192.011 217.244 191.709 218.042 191.8C218.843 191.848 219.713 192.309 220.652 193.183C221.591 194.058 222.054 194.838 222.04 195.523C222.029 196.164 221.547 196.833 220.596 197.529L193.554 217.308C192.602 218.004 191.726 218.329 190.925 218.281C190.127 218.19 189.258 217.707 188.319 216.832C187.38 215.958 186.916 215.2 186.927 214.559C186.941 213.873 187.424 213.183 188.376 212.486L194.968 207.664L170.145 184.548L164.812 188.449C163.861 189.145 162.984 189.469 162.184 189.422C161.386 189.331 160.517 188.848 159.578 187.973C158.639 187.098 158.175 186.341 158.186 185.699C158.2 185.014 158.683 184.323 159.635 183.627L168.201 177.362C169.152 176.666 170.027 176.363 170.825 176.455C171.626 176.502 172.496 176.963 173.435 177.838L181.126 184.999C180.236 181.937 179.905 178.929 180.133 175.977C180.362 173.025 181.097 170.335 182.339 167.907C183.58 165.48 185.251 163.498 187.351 161.962Z" fill="white"/>
<path d="M213.811 122.989C215.188 122.636 216.254 122.63 217.009 122.97C217.763 123.311 218.354 124.049 218.781 125.186L224.274 139.794L244.988 134.489C246.13 134.196 247.034 134.249 247.7 134.648C248.387 135.006 248.956 135.786 249.408 136.987C249.859 138.188 249.931 139.113 249.622 139.761C249.335 140.369 248.62 140.819 247.478 141.111L226.765 146.417L233.43 164.141C234.822 167.842 236.496 170.385 238.454 171.77C240.445 173.146 243.086 173.413 246.379 172.569C248.63 171.993 250.834 170.948 252.99 169.435C255.147 167.921 257.11 166.137 258.879 164.083C259.227 163.638 259.687 163.342 260.258 163.196C261.4 162.903 262.655 163.4 264.023 164.687C264.778 165.419 265.271 166.094 265.503 166.71C265.893 167.749 265.656 168.735 264.792 169.668C262.769 171.93 260.341 173.994 257.506 175.859C254.659 177.691 251.841 178.965 249.052 179.679C243.341 181.142 238.621 180.785 234.892 178.608C231.185 176.39 228.257 172.424 226.109 166.711L219.205 148.353L208.975 150.973C207.832 151.266 206.918 151.233 206.23 150.875C205.565 150.476 205.006 149.676 204.554 148.475C204.103 147.274 204.02 146.37 204.308 145.762C204.616 145.114 205.342 144.643 206.484 144.351L216.715 141.73L211.221 127.122C210.794 125.986 210.774 125.101 211.163 124.468C211.551 123.834 212.433 123.341 213.811 122.989Z" fill="white"/>
<path d="M302.279 121.392C308.607 122.962 312.855 125.508 315.023 129.031C317.19 132.553 317.294 137.003 315.336 142.38L308.25 161.835C307.312 164.41 307.954 165.973 310.176 166.524L311.943 166.962C313.088 167.246 313.801 167.707 314.082 168.346C314.409 168.96 314.353 169.87 313.914 171.075C313.475 172.281 312.908 173.082 312.213 173.478C311.563 173.85 310.666 173.894 309.522 173.61L306.29 172.809C304.102 172.266 302.407 171.277 301.205 169.841C300.048 168.382 299.608 166.567 299.884 164.397C296.27 166.059 292.615 167.124 288.92 167.593C285.26 168.071 281.628 167.863 278.026 166.97C274.626 166.126 271.815 164.825 269.593 163.065C267.417 161.282 265.98 159.131 265.282 156.613C264.584 154.094 264.775 151.352 265.855 148.387C267.731 143.238 271.015 139.913 275.709 138.413C280.415 136.879 285.781 136.86 291.807 138.355C297.159 139.683 301.973 141.783 306.249 144.656L307.762 140.501C308.913 137.34 308.83 134.797 307.513 132.871C306.241 130.921 303.569 129.441 299.495 128.43C296.971 127.804 294.22 127.495 291.245 127.503C288.269 127.511 285.332 127.813 282.436 128.409C281.757 128.56 281.182 128.577 280.71 128.46C279.6 128.185 278.959 127.173 278.788 125.425C278.702 124.551 278.755 123.853 278.945 123.332C279.36 122.191 280.303 121.466 281.774 121.156C285.124 120.423 288.551 120.083 292.056 120.135C295.606 120.163 299.014 120.582 302.279 121.392ZM289.347 145.26C285.475 144.3 282.175 144.192 279.445 144.936C276.76 145.655 274.907 147.417 273.887 150.219C273.02 152.598 273.185 154.665 274.382 156.418C275.624 158.148 277.776 159.392 280.84 160.152C287.538 161.814 294.56 160.624 301.904 156.583L303.845 151.255C301.817 149.97 299.556 148.823 297.06 147.813C294.577 146.771 292.006 145.92 289.347 145.26Z" fill="white"/>
<path d="M371.143 131.278C372.295 132.11 372.921 132.878 373.021 133.58C373.12 134.282 372.728 135.05 371.844 135.882L360.487 146.587L377.817 159.111C378.773 159.802 379.245 160.48 379.235 161.145C379.278 161.806 378.833 162.577 377.899 163.457C376.965 164.337 376.085 164.815 375.26 164.891C374.488 164.964 373.624 164.654 372.668 163.964L355.338 151.44L341.557 164.428C338.68 167.139 337.121 169.522 336.879 171.575C336.666 173.648 337.937 175.68 340.692 177.671C342.575 179.032 344.897 180.143 347.659 181.004C350.421 181.865 353.339 182.462 356.415 182.793C357.06 182.839 357.622 183.035 358.1 183.381C359.056 184.071 359.291 185.208 358.804 186.789C358.514 187.672 358.128 188.339 357.649 188.791C356.841 189.553 355.721 189.836 354.289 189.641C350.859 189.222 347.392 188.418 343.885 187.229C340.404 186.016 337.497 184.567 335.164 182.881C330.385 179.427 327.996 175.851 327.997 172.153C328.05 168.451 330.298 164.507 334.74 160.321L349.013 146.869L340.454 140.683C339.498 139.992 338.998 139.316 338.955 138.654C338.966 137.989 339.438 137.217 340.372 136.337C341.305 135.456 342.158 134.98 342.931 134.908C343.756 134.832 344.647 135.139 345.602 135.83L354.162 142.016L365.52 131.311C366.403 130.479 367.273 130.057 368.129 130.045C368.986 130.034 369.99 130.445 371.143 131.278Z" fill="white"/>
<path d="M414.64 185.786C415.406 186.682 415.707 187.454 415.543 188.103C415.432 188.76 414.822 189.411 413.713 190.057L381.341 208.902L392.192 221.597C392.958 222.493 393.259 223.266 393.095 223.914C392.983 224.571 392.373 225.223 391.264 225.868C390.155 226.514 389.192 226.779 388.374 226.662C387.609 226.555 386.843 226.053 386.077 225.157L359.577 194.152C358.811 193.256 358.483 192.479 358.595 191.822C358.759 191.173 359.395 190.526 360.505 189.881C361.614 189.235 362.551 188.966 363.316 189.073C364.133 189.19 364.925 189.696 365.691 190.592L376.271 202.97L405.585 185.905L397.033 175.899C396.267 175.003 395.94 174.226 396.051 173.569C396.215 172.921 396.852 172.274 397.961 171.628C399.07 170.982 400.007 170.713 400.772 170.821C401.59 170.937 402.382 171.443 403.148 172.34L414.64 185.786ZM433.296 173.03C434.535 174.48 435.156 175.599 435.157 176.388C435.188 177.16 434.664 177.86 433.585 178.488L427.74 181.89C426.661 182.519 425.671 182.7 424.771 182.434C423.901 182.151 422.846 181.285 421.606 179.835C420.367 178.385 419.732 177.274 419.701 176.502C419.7 175.713 420.239 175.005 421.318 174.377L427.162 170.974C428.242 170.346 429.216 170.173 430.087 170.456C430.987 170.722 432.057 171.579 433.296 173.03Z" fill="white"/>
<path d="M447.251 225.04C449.758 229.076 451.029 233.133 451.062 237.212C451.095 241.29 449.906 244.993 447.495 248.32C445.135 251.662 441.735 254.273 437.295 256.152C432.855 258.031 428.286 258.792 423.588 258.437C418.94 258.097 414.619 256.726 410.625 254.323C406.631 251.921 403.381 248.701 400.873 244.665C398.366 240.629 397.095 236.572 397.062 232.493C397.029 228.415 398.193 224.704 400.553 221.361C402.964 218.035 406.389 215.432 410.829 213.553C415.269 211.674 419.813 210.905 424.461 211.244C429.159 211.6 433.505 212.979 437.499 215.382C441.493 217.784 444.743 221.004 447.251 225.04ZM440.16 228.04C438.385 225.183 436.133 222.954 433.405 221.356C430.728 219.773 427.793 218.912 424.601 218.775C421.442 218.624 418.297 219.21 415.167 220.535C412.037 221.86 409.608 223.631 407.881 225.851C406.185 228.056 405.319 230.525 405.282 233.257C405.294 236.004 406.189 238.807 407.964 241.665C409.739 244.522 411.966 246.743 414.644 248.325C417.371 249.924 420.315 250.799 423.475 250.95C426.666 251.088 429.827 250.495 432.957 249.17C436.087 247.845 438.5 246.08 440.196 243.875C441.923 241.655 442.78 239.172 442.767 236.424C442.804 233.693 441.935 230.898 440.16 228.04Z" fill="white"/>
<path d="M477.139 275.996C478.49 278.848 479.002 281.537 478.676 284.063C478.383 286.579 477.283 288.795 475.374 290.711C473.466 292.627 470.878 294.112 467.61 295.166L443.646 302.894L445.471 306.75C445.976 307.816 446.068 308.653 445.748 309.262C445.475 309.892 444.728 310.404 443.507 310.798C442.286 311.192 441.3 311.239 440.549 310.939C439.846 310.66 439.242 309.987 438.738 308.921L431.524 293.687C431.02 292.621 430.904 291.773 431.176 291.144C431.497 290.534 432.267 290.033 433.489 289.639C434.71 289.245 435.672 289.188 436.375 289.467C437.126 289.767 437.754 290.45 438.258 291.515L440.306 295.841L463.528 288.352C466.466 287.405 468.489 286.012 469.596 284.173C470.704 282.334 470.665 280.161 469.477 277.654C468.216 274.989 466.227 272.758 463.511 270.96C460.811 269.193 457.714 268.078 454.222 267.614C450.731 267.15 447.235 267.483 443.736 268.611L429.576 273.178L431.624 277.504C432.129 278.569 432.221 279.407 431.9 280.016C431.628 280.646 430.881 281.158 429.66 281.552C428.438 281.945 427.452 281.992 426.701 281.693C425.999 281.413 425.395 280.741 424.89 279.675L417.677 264.441C417.172 263.375 417.056 262.527 417.329 261.897C417.649 261.288 418.42 260.787 419.641 260.393C420.863 259.999 421.825 259.941 422.528 260.221C423.278 260.521 423.906 261.203 424.411 262.269L426.236 266.125L458.519 255.714L456.248 250.918C455.743 249.852 455.627 249.004 455.9 248.374C456.22 247.765 456.991 247.264 458.212 246.87C459.434 246.476 460.396 246.419 461.099 246.698C461.849 246.998 462.477 247.68 462.982 248.746L466.967 257.163C467.471 258.229 467.563 259.066 467.243 259.675C466.971 260.305 466.224 260.817 465.002 261.211L459.061 263.127C463.407 264.11 467.125 265.693 470.213 267.877C473.317 270.092 475.625 272.798 477.139 275.996Z" fill="white"/>
<path d="M451.831 505.994C452.265 502.868 453.333 500.22 455.034 498.049C456.701 495.875 458.898 494.29 461.625 493.296C464.352 492.301 467.424 491.966 470.843 492.289L495.91 494.663L496.498 490.438C496.66 489.27 497.051 488.472 497.67 488.043C498.26 487.577 499.193 487.404 500.471 487.525C501.748 487.646 502.628 487.991 503.108 488.558C503.56 489.088 503.704 489.937 503.541 491.105L501.22 507.8C501.058 508.968 500.682 509.785 500.092 510.252C499.473 510.68 498.524 510.834 497.247 510.713C495.969 510.592 495.105 510.267 494.654 509.737C494.173 509.169 494.014 508.301 494.176 507.133L494.835 502.393L470.545 500.092C467.472 499.801 464.94 500.275 462.948 501.513C460.957 502.752 459.77 504.745 459.388 507.493C458.982 510.413 459.449 513.224 460.787 515.926C462.13 518.594 464.181 520.825 466.941 522.617C469.7 524.41 472.91 525.48 476.57 525.826L491.382 527.229L492.041 522.489C492.204 521.321 492.595 520.522 493.214 520.094C493.803 519.627 494.737 519.455 496.014 519.576C497.292 519.697 498.171 520.041 498.652 520.609C499.103 521.139 499.247 521.988 499.085 523.156L496.764 539.851C496.601 541.019 496.225 541.836 495.636 542.302C495.016 542.731 494.068 542.885 492.79 542.764C491.513 542.643 490.649 542.317 490.197 541.787C489.717 541.219 489.557 540.352 489.72 539.184L490.307 534.958L456.539 531.76L455.808 537.016C455.646 538.184 455.27 539.001 454.68 539.467C454.061 539.896 453.112 540.05 451.835 539.929C450.557 539.808 449.693 539.482 449.242 538.952C448.761 538.385 448.602 537.517 448.764 536.349L450.047 527.126C450.209 525.958 450.6 525.159 451.219 524.731C451.809 524.264 452.743 524.092 454.02 524.213L460.235 524.801C457.029 522.201 454.703 519.3 453.259 516.101C451.819 512.867 451.343 509.498 451.831 505.994Z" fill="white"/>
<path d="M454.252 420.843C454.505 419.691 454.958 418.919 455.611 418.527C456.238 418.096 457.185 417.975 458.454 418.165L477.851 421.068C479.052 421.248 479.846 421.664 480.234 422.317C480.622 422.97 480.663 423.991 480.358 425.38C480.053 426.768 479.58 427.712 478.939 428.211C478.298 428.71 477.377 428.87 476.177 428.69L460.278 426.31L457.297 439.877L504.375 446.923L507.01 434.932C507.263 433.78 507.716 433.008 508.369 432.616C508.995 432.185 509.943 432.064 511.212 432.254C512.481 432.444 513.334 432.834 513.771 433.424C514.181 433.976 514.26 434.827 514.007 435.979L507.062 467.584C506.809 468.735 506.37 469.527 505.743 469.958C505.09 470.35 504.129 470.451 502.86 470.261C501.591 470.071 500.751 469.701 500.341 469.149C499.904 468.559 499.812 467.688 500.065 466.536L502.7 454.545L455.622 447.499L452.641 461.066L468.54 463.445C469.74 463.625 470.534 464.041 470.922 464.694C471.31 465.347 471.352 466.368 471.046 467.757C470.741 469.145 470.268 470.089 469.627 470.588C468.986 471.087 468.065 471.247 466.865 471.067L447.468 468.164C446.199 467.974 445.359 467.603 444.949 467.052C444.512 466.462 444.419 465.591 444.673 464.439L454.252 420.843Z" fill="white"/>
<path d="M473.396 395.177C474.789 390.344 476.979 386.426 479.967 383.421C482.93 380.376 486.446 378.285 490.514 377.147C494.548 376.002 498.9 375.747 503.571 376.383C504.728 376.61 505.473 377.02 505.806 377.614C506.148 378.174 506.155 379.021 505.829 380.154L495.395 416.345C500.534 417.108 504.802 416.396 508.201 414.212C511.575 411.987 513.978 408.392 515.409 403.426C516.293 400.36 516.776 397.251 516.858 394.098C516.906 390.938 516.593 388.095 515.918 385.568C515.776 384.941 515.771 384.395 515.906 383.928C516.242 382.762 517.418 381.989 519.433 381.61C520.234 381.45 520.924 381.427 521.502 381.541C522.864 381.808 523.707 382.749 524.033 384.362C524.621 387.189 524.819 390.432 524.627 394.091C524.435 397.751 523.83 401.347 522.811 404.879C521.361 409.912 519.134 414.017 516.133 417.195C513.131 420.373 509.506 422.531 505.259 423.669C501.011 424.807 496.335 424.875 491.23 423.873C486.363 422.917 482.351 421.055 479.193 418.287C476.036 415.519 473.955 412.135 472.95 408.135C471.912 404.128 472.06 399.809 473.396 395.177ZM480.798 396.63C479.616 400.729 479.708 404.339 481.074 407.459C482.416 410.54 484.855 412.867 488.393 414.442L497.197 383.899C493.082 383.831 489.638 384.862 486.866 386.994C484.069 389.086 482.047 392.298 480.798 396.63Z" fill="white"/>
<path d="M469.526 342.779C469.934 341.673 470.491 340.959 471.197 340.639C471.881 340.277 472.846 340.253 474.091 340.565L529.999 354.597L535.773 338.927C536.181 337.821 536.738 337.107 537.444 336.787C538.128 336.425 539.093 336.401 540.337 336.713C541.582 337.025 542.384 337.493 542.742 338.116C543.079 338.699 543.043 339.543 542.636 340.649L528.533 378.921C528.126 380.027 527.58 380.761 526.895 381.123C526.189 381.443 525.214 381.447 523.969 381.135C522.724 380.823 521.934 380.375 521.597 379.793C521.239 379.17 521.263 378.305 521.671 377.198L527.301 361.919L474.824 348.749L469.913 362.075C469.505 363.182 468.959 363.916 468.275 364.277C467.569 364.598 466.593 364.602 465.349 364.289C464.104 363.977 463.313 363.53 462.977 362.947C462.618 362.324 462.643 361.459 463.051 360.353L469.526 342.779Z" fill="white"/>
<path d="M504.487 302.24C506.627 297.689 509.423 294.124 512.877 291.547C516.312 288.927 520.153 287.304 524.4 286.677C528.614 286.04 533.009 286.31 537.586 287.487C538.71 287.846 539.392 288.335 539.633 288.954C539.889 289.542 539.766 290.369 539.264 291.436L523.242 325.524C528.266 326.88 532.648 326.694 536.387 324.965C540.107 323.195 543.066 319.972 545.264 315.295C546.622 312.407 547.584 309.429 548.153 306.361C548.688 303.282 548.813 300.47 548.528 297.923C548.481 297.294 548.561 296.76 548.768 296.321C549.284 295.222 550.58 294.608 552.655 294.478C553.482 294.417 554.176 294.477 554.737 294.657C556.058 295.08 556.758 296.098 556.835 297.712C556.988 300.541 556.685 303.731 555.929 307.28C555.173 310.83 554.012 314.268 552.449 317.595C550.221 322.335 547.36 326.077 543.865 328.822C540.371 331.567 536.41 333.243 531.984 333.848C527.557 334.453 522.866 333.962 517.912 332.376C513.188 330.863 509.46 328.568 506.726 325.49C503.993 322.412 502.432 318.861 502.044 314.837C501.622 310.802 502.437 306.603 504.487 302.24ZM511.672 304.54C509.857 308.401 509.393 311.935 510.278 315.144C511.146 318.311 513.229 320.873 516.526 322.832L530.048 294.065C525.94 293.508 522.334 294.105 519.231 295.856C516.109 297.565 513.59 300.46 511.672 304.54Z" fill="white"/>
<path d="M527.848 255.655C530.093 251.987 533.047 249.097 536.71 246.986C540.341 244.861 544.424 243.704 548.96 243.515C553.463 243.313 558.083 244.2 562.821 246.175C567.559 248.15 571.182 250.7 573.689 253.824C576.165 256.935 577.46 260.334 577.574 264.021C577.657 267.694 576.575 271.364 574.33 275.032C570.926 280.594 565.416 284.182 557.798 285.796L576.766 293.703L581.437 286.071C582.052 285.065 582.727 284.455 583.46 284.241C584.244 284.011 585.228 284.142 586.413 284.636C587.597 285.13 588.294 285.699 588.502 286.343C588.761 286.97 588.583 287.787 587.967 288.793L576.452 307.607C575.837 308.613 575.137 309.231 574.353 309.461C573.62 309.675 572.661 309.535 571.476 309.041C570.292 308.548 569.57 307.987 569.311 307.359C569.103 306.715 569.306 305.89 569.922 304.885L572.692 300.359L522.752 279.54L520.526 283.179C519.91 284.185 519.226 284.809 518.475 285.053C517.709 285.254 516.734 285.107 515.549 284.613C514.365 284.12 513.659 283.565 513.433 282.951C513.192 282.294 513.379 281.462 513.995 280.457L518.313 273.401C518.929 272.396 519.619 271.792 520.385 271.592C521.137 271.348 522.105 271.473 523.289 271.967L527.131 273.568C525.646 270.61 524.951 267.61 525.045 264.568C525.14 261.525 526.074 258.555 527.848 255.655ZM534.683 259.062C533.072 261.695 532.273 264.313 532.286 266.918C532.317 269.493 533.187 271.879 534.896 274.076C536.623 276.244 539.151 278.022 542.48 279.41C545.809 280.798 549.044 281.422 552.183 281.283C555.34 281.114 558.183 280.276 560.713 278.768C563.261 277.231 565.34 275.146 566.952 272.514C568.563 269.881 569.276 267.338 569.09 264.884C568.872 262.417 567.846 260.188 566.01 258.198C564.193 256.178 561.7 254.507 558.53 253.186C555.361 251.865 552.252 251.2 549.204 251.191C546.173 251.153 543.406 251.801 540.903 253.134C538.368 254.453 536.295 256.429 534.683 259.062Z" fill="white"/>
<path d="M554.005 213.834C557.077 210.209 560.778 207.479 565.106 205.643C569.435 203.808 573.962 203.032 578.686 203.316C583.403 203.556 587.849 204.881 592.024 207.291C596.2 209.701 599.248 212.702 601.17 216.293C603.084 219.841 603.739 223.608 603.135 227.593C602.53 231.579 600.692 235.384 597.621 239.009C594.549 242.634 590.848 245.364 586.519 247.2C582.191 249.035 577.668 249.833 572.951 249.593C568.227 249.309 563.777 247.962 559.601 245.552C555.426 243.142 552.382 240.163 550.468 236.615C548.546 233.024 547.887 229.235 548.491 225.25C549.095 221.264 550.933 217.459 554.005 213.834ZM560.674 217.683C558.499 220.25 557.228 222.885 556.86 225.588C556.485 228.248 557.005 230.775 558.421 233.168C559.807 235.544 561.972 237.582 564.916 239.281C567.859 240.98 570.936 241.968 574.146 242.245C577.326 242.504 580.38 242.041 583.308 240.854C586.229 239.625 588.777 237.726 590.952 235.16C593.127 232.593 594.402 229.98 594.777 227.32C595.145 224.617 594.636 222.077 593.25 219.701C591.834 217.308 589.654 215.261 586.71 213.562C583.767 211.863 580.705 210.884 577.525 210.625C574.315 210.348 571.25 210.824 568.329 212.054C565.401 213.24 562.849 215.117 560.674 217.683Z" fill="white"/>
<path d="M603.365 161.962C605.548 160.365 608.1 159.343 611.018 158.896C612.747 158.645 614.094 158.968 615.058 159.866C615.515 160.292 615.922 160.88 616.28 161.632C617.138 163.409 617.05 164.676 616.014 165.434C615.594 165.741 615.101 165.933 614.534 166.01C612.477 166.375 610.665 167.131 609.097 168.278C606.578 170.121 604.844 172.718 603.895 176.07C602.921 179.399 602.929 182.897 603.917 186.563C604.933 190.208 606.926 193.414 609.895 196.179L617.281 203.057L631.432 192.707C632.384 192.011 633.259 191.709 634.057 191.8C634.857 191.848 635.727 192.309 636.666 193.183C637.605 194.058 638.068 194.838 638.054 195.523C638.043 196.164 637.562 196.833 636.61 197.529L609.568 217.308C608.616 218.004 607.74 218.329 606.939 218.281C606.141 218.19 605.273 217.707 604.334 216.832C603.394 215.958 602.931 215.2 602.942 214.559C602.956 213.873 603.438 213.183 604.39 212.486L610.983 207.664L586.159 184.548L580.827 188.449C579.875 189.145 578.999 189.469 578.198 189.422C577.4 189.331 576.531 188.848 575.592 187.973C574.653 187.098 574.189 186.341 574.2 185.699C574.214 185.014 574.697 184.323 575.649 183.627L584.215 177.362C585.167 176.666 586.042 176.363 586.84 176.455C587.64 176.502 588.51 176.963 589.449 177.838L597.14 184.999C596.25 181.937 595.919 178.929 596.148 175.977C596.376 173.025 597.111 170.335 598.353 167.907C599.595 165.48 601.265 163.498 603.365 161.962Z" fill="white"/>
<path d="M629.825 122.989C631.203 122.636 632.269 122.63 633.023 122.971C633.777 123.311 634.368 124.05 634.795 125.186L640.289 139.794L661.002 134.489C662.144 134.196 663.048 134.25 663.714 134.648C664.401 135.006 664.97 135.786 665.422 136.987C665.874 138.188 665.945 139.113 665.637 139.761C665.349 140.369 664.635 140.819 663.492 141.111L642.779 146.417L649.444 164.142C650.836 167.842 652.511 170.385 654.468 171.77C656.459 173.147 659.101 173.413 662.393 172.57C664.644 171.993 666.848 170.948 669.005 169.435C671.161 167.922 673.124 166.138 674.893 164.083C675.241 163.638 675.701 163.342 676.272 163.196C677.415 162.903 678.67 163.4 680.038 164.687C680.792 165.419 681.285 166.094 681.517 166.711C681.908 167.749 681.671 168.735 680.806 169.669C678.783 171.931 676.355 173.994 673.52 175.859C670.673 177.692 667.855 178.965 665.067 179.679C659.355 181.142 654.635 180.785 650.906 178.608C647.199 176.39 644.271 172.424 642.123 166.711L635.219 148.353L624.989 150.973C623.847 151.266 622.932 151.233 622.245 150.876C621.579 150.477 621.02 149.677 620.569 148.475C620.117 147.274 620.035 146.37 620.322 145.763C620.631 145.114 621.356 144.644 622.498 144.351L632.729 141.731L627.236 127.122C626.808 125.986 626.789 125.101 627.177 124.468C627.565 123.835 628.448 123.342 629.825 122.989Z" fill="white"/>
<path d="M718.293 121.392C724.622 122.962 728.87 125.508 731.037 129.031C733.204 132.553 733.309 137.003 731.35 142.38L724.264 161.835C723.327 164.41 723.969 165.973 726.19 166.524L727.958 166.962C729.102 167.246 729.815 167.707 730.096 168.346C730.423 168.96 730.367 169.87 729.928 171.075C729.489 172.281 728.922 173.082 728.227 173.478C727.578 173.85 726.681 173.894 725.536 173.61L722.305 172.809C720.117 172.266 718.421 171.277 717.219 169.841C716.062 168.382 715.622 166.567 715.899 164.397C712.284 166.059 708.629 167.124 704.935 167.593C701.274 168.071 697.642 167.863 694.041 166.97C690.641 166.126 687.83 164.825 685.608 163.065C683.431 161.282 681.994 159.131 681.296 156.613C680.598 154.094 680.789 151.352 681.87 148.387C683.745 143.238 687.03 139.913 691.724 138.413C696.43 136.879 701.795 136.86 707.821 138.355C713.173 139.683 717.987 141.783 722.263 144.656L723.776 140.501C724.927 137.34 724.844 134.797 723.527 132.871C722.255 130.921 719.583 129.441 715.51 128.43C712.985 127.804 710.235 127.495 707.259 127.503C704.283 127.511 701.347 127.813 698.45 128.409C697.771 128.56 697.196 128.577 696.725 128.46C695.614 128.185 694.973 127.173 694.802 125.425C694.717 124.551 694.769 123.853 694.959 123.332C695.374 122.191 696.318 121.466 697.789 121.156C701.138 120.423 704.566 120.083 708.07 120.135C711.62 120.163 715.028 120.582 718.293 121.392ZM705.361 145.26C701.49 144.3 698.189 144.192 695.459 144.936C692.774 145.655 690.922 147.417 689.901 150.219C689.035 152.598 689.2 154.665 690.396 156.418C691.638 158.148 693.791 159.392 696.854 160.152C703.553 161.814 710.574 160.624 717.919 156.583L719.859 151.255C717.831 149.97 715.57 148.823 713.075 147.813C710.592 146.771 708.02 145.92 705.361 145.26Z" fill="white"/>
<path d="M787.157 131.278C788.31 132.111 788.936 132.878 789.035 133.58C789.134 134.283 788.742 135.05 787.859 135.883L776.501 146.587L793.831 159.111C794.787 159.802 795.26 160.48 795.249 161.145C795.292 161.806 794.847 162.577 793.913 163.457C792.979 164.337 792.1 164.816 791.274 164.891C790.502 164.964 789.638 164.655 788.682 163.964L771.352 151.44L757.572 164.428C754.694 167.14 753.135 169.522 752.894 171.575C752.68 173.648 753.951 175.681 756.706 177.671C758.589 179.033 760.912 180.144 763.673 181.005C766.435 181.866 769.353 182.462 772.429 182.793C773.075 182.84 773.637 183.036 774.115 183.381C775.07 184.072 775.305 185.208 774.819 186.79C774.528 187.672 774.143 188.34 773.663 188.792C772.855 189.553 771.735 189.836 770.303 189.641C766.874 189.222 763.406 188.418 759.9 187.229C756.419 186.017 753.512 184.567 751.178 182.881C746.4 179.427 744.01 175.852 744.011 172.153C744.064 168.452 746.312 164.508 750.755 160.321L765.027 146.869L756.468 140.683C755.512 139.992 755.013 139.316 754.97 138.655C754.98 137.99 755.452 137.217 756.386 136.337C757.32 135.457 758.173 134.98 758.945 134.908C759.77 134.832 760.661 135.14 761.617 135.83L770.176 142.016L781.534 131.312C782.417 130.479 783.287 130.057 784.144 130.046C785 130.034 786.005 130.445 787.157 131.278Z" fill="white"/>
<path d="M830.655 185.786C831.421 186.682 831.722 187.454 831.558 188.103C831.446 188.76 830.836 189.411 829.727 190.057L797.356 208.902L808.206 221.597C808.972 222.493 809.273 223.266 809.109 223.914C808.998 224.571 808.387 225.223 807.278 225.868C806.169 226.514 805.206 226.779 804.388 226.662C803.623 226.555 802.858 226.053 802.091 225.157L775.591 194.152C774.825 193.256 774.498 192.479 774.609 191.822C774.773 191.173 775.41 190.526 776.519 189.881C777.628 189.235 778.565 188.966 779.33 189.073C780.148 189.19 780.939 189.696 781.706 190.592L792.285 202.97L821.599 185.905L813.047 175.899C812.281 175.003 811.954 174.226 812.066 173.569C812.23 172.921 812.866 172.274 813.975 171.628C815.084 170.982 816.021 170.713 816.786 170.821C817.604 170.937 818.396 171.443 819.162 172.34L830.655 185.786ZM849.31 173.03C850.55 174.48 851.17 175.599 851.171 176.388C851.202 177.16 850.678 177.86 849.599 178.488L843.754 181.89C842.675 182.519 841.686 182.7 840.785 182.434C839.915 182.151 838.86 181.285 837.621 179.835C836.381 178.385 835.746 177.274 835.715 176.502C835.714 175.713 836.253 175.005 837.332 174.377L843.177 170.974C844.256 170.346 845.23 170.173 846.101 170.456C847.001 170.722 848.071 171.579 849.31 173.03Z" fill="white"/>
<path d="M863.265 225.04C865.773 229.076 867.043 233.133 867.076 237.212C867.109 241.29 865.92 244.993 863.51 248.32C861.149 251.662 857.749 254.273 853.309 256.152C848.87 258.031 844.301 258.792 839.602 258.437C834.954 258.097 830.633 256.726 826.639 254.323C822.646 251.921 819.395 248.701 816.888 244.665C814.38 240.629 813.11 236.572 813.077 232.493C813.044 228.415 814.207 224.704 816.568 221.361C818.978 218.035 822.404 215.432 826.843 213.553C831.283 211.674 835.827 210.905 840.475 211.244C845.174 211.6 849.52 212.979 853.513 215.382C857.507 217.784 860.758 221.004 863.265 225.04ZM856.174 228.04C854.399 225.183 852.147 222.954 849.419 221.356C846.742 219.773 843.807 218.912 840.616 218.775C837.456 218.624 834.311 219.21 831.181 220.535C828.051 221.86 825.622 223.631 823.895 225.851C822.2 228.056 821.333 230.525 821.296 233.257C821.309 236.004 822.203 238.807 823.978 241.665C825.754 244.522 827.98 246.743 830.658 248.325C833.386 249.924 836.329 250.799 839.489 250.95C842.681 251.088 845.841 250.495 848.972 249.17C852.102 247.845 854.515 246.08 856.21 243.875C857.937 241.655 858.794 239.172 858.781 236.424C858.819 233.693 857.95 230.898 856.174 228.04Z" fill="white"/>
<path d="M893.153 275.996C894.504 278.848 895.016 281.537 894.69 284.063C894.398 286.579 893.297 288.795 891.389 290.711C889.48 292.627 886.892 294.112 883.624 295.166L859.66 302.894L861.486 306.75C861.99 307.816 862.082 308.653 861.762 309.262C861.489 309.892 860.743 310.404 859.521 310.798C858.3 311.192 857.314 311.239 856.563 310.939C855.86 310.66 855.256 309.987 854.752 308.921L847.539 293.687C847.034 292.621 846.918 291.773 847.191 291.144C847.511 290.534 848.282 290.033 849.503 289.639C850.724 289.245 851.686 289.188 852.389 289.467C853.14 289.767 853.768 290.45 854.272 291.515L856.321 295.841L879.542 288.352C882.48 287.405 884.503 286.012 885.611 284.173C886.719 282.334 886.679 280.161 885.492 277.654C884.23 274.989 882.241 272.758 879.526 270.96C876.825 269.193 873.729 268.078 870.237 267.614C866.745 267.15 863.25 267.483 859.751 268.611L845.59 273.178L847.638 277.504C848.143 278.569 848.235 279.407 847.915 280.016C847.642 280.646 846.895 281.158 845.674 281.552C844.453 281.945 843.467 281.992 842.716 281.693C842.013 281.413 841.409 280.741 840.904 279.675L833.691 264.441C833.187 263.375 833.071 262.527 833.343 261.897C833.664 261.288 834.434 260.787 835.656 260.393C836.877 259.999 837.839 259.941 838.542 260.221C839.293 260.521 839.92 261.203 840.425 262.269L842.251 266.125L874.533 255.714L872.262 250.918C871.758 249.852 871.642 249.004 871.914 248.374C872.234 247.765 873.005 247.264 874.227 246.87C875.448 246.476 876.41 246.419 877.113 246.698C877.864 246.998 878.491 247.68 878.996 248.746L882.981 257.163C883.486 258.229 883.578 259.066 883.257 259.675C882.985 260.305 882.238 260.817 881.017 261.211L875.075 263.127C879.422 264.11 883.139 265.693 886.228 267.877C889.331 270.092 891.64 272.798 893.153 275.996Z" fill="white"/>
<path d="M867.845 505.994C868.279 502.868 869.347 500.22 871.049 498.049C872.715 495.875 874.912 494.29 877.639 493.296C880.366 492.301 883.439 491.965 886.857 492.289L911.924 494.663L912.512 490.438C912.674 489.27 913.065 488.472 913.685 488.043C914.274 487.577 915.208 487.404 916.485 487.525C917.763 487.646 918.642 487.99 919.123 488.558C919.574 489.088 919.718 489.937 919.556 491.105L917.234 507.8C917.072 508.968 916.696 509.785 916.106 510.251C915.487 510.68 914.539 510.834 913.261 510.713C911.984 510.592 911.119 510.266 910.668 509.736C910.187 509.169 910.028 508.301 910.191 507.133L910.85 502.392L886.559 500.092C883.486 499.801 880.954 500.275 878.963 501.513C876.971 502.751 875.785 504.745 875.403 507.493C874.997 510.413 875.463 513.224 876.801 515.926C878.144 518.594 880.196 520.824 882.955 522.617C885.714 524.41 888.924 525.48 892.584 525.826L907.396 527.229L908.055 522.488C908.218 521.32 908.609 520.522 909.228 520.094C909.818 519.627 910.751 519.455 912.029 519.576C913.306 519.697 914.185 520.041 914.666 520.609C915.117 521.139 915.262 521.988 915.099 523.156L912.778 539.851C912.615 541.019 912.239 541.836 911.65 542.302C911.031 542.731 910.082 542.884 908.805 542.763C907.527 542.642 906.663 542.317 906.212 541.787C905.731 541.219 905.572 540.352 905.734 539.184L906.322 534.958L872.553 531.76L871.822 537.016C871.66 538.184 871.284 539.001 870.694 539.467C870.075 539.896 869.127 540.05 867.849 539.929C866.572 539.808 865.707 539.482 865.256 538.952C864.775 538.385 864.616 537.517 864.779 536.349L866.061 527.125C866.223 525.957 866.614 525.159 867.234 524.731C867.823 524.264 868.757 524.092 870.034 524.213L876.249 524.801C873.043 522.201 870.717 519.3 869.273 516.101C867.834 512.867 867.358 509.498 867.845 505.994Z" fill="white"/>
<path d="M870.267 420.842C870.52 419.691 870.973 418.919 871.626 418.527C872.252 418.095 873.199 417.975 874.469 418.165L893.866 421.068C895.066 421.248 895.86 421.664 896.248 422.317C896.636 422.97 896.678 423.99 896.372 425.379C896.067 426.768 895.594 427.712 894.953 428.211C894.312 428.71 893.391 428.869 892.191 428.69L876.292 426.31L873.311 439.877L920.389 446.923L923.024 434.931C923.277 433.78 923.73 433.008 924.383 432.616C925.009 432.184 925.957 432.064 927.226 432.254C928.495 432.444 929.348 432.834 929.785 433.424C930.196 433.975 930.274 434.827 930.021 435.979L923.076 467.583C922.823 468.735 922.384 469.527 921.758 469.958C921.105 470.35 920.144 470.451 918.874 470.261C917.605 470.071 916.766 469.7 916.355 469.149C915.918 468.559 915.826 467.688 916.079 466.536L918.714 454.545L871.637 447.499L868.655 461.065L884.554 463.445C885.754 463.625 886.549 464.041 886.937 464.694C887.324 465.347 887.366 466.367 887.061 467.756C886.756 469.145 886.282 470.089 885.641 470.588C885 471.087 884.08 471.246 882.879 471.067L863.482 468.164C862.213 467.974 861.373 467.603 860.963 467.052C860.526 466.461 860.434 465.59 860.687 464.439L870.267 420.842Z" fill="white"/>
<path d="M889.41 395.176C890.803 390.344 892.993 386.426 895.981 383.421C898.945 380.376 902.46 378.284 906.528 377.146C910.562 376.002 914.914 375.747 919.586 376.383C920.743 376.61 921.487 377.02 921.82 377.614C922.162 378.174 922.169 379.02 921.843 380.153L911.41 416.345C916.548 417.107 920.816 416.396 924.215 414.211C927.589 411.986 929.992 408.391 931.424 403.426C932.307 400.36 932.79 397.25 932.872 394.097C932.92 390.938 932.607 388.094 931.933 385.568C931.79 384.941 931.786 384.394 931.92 383.928C932.256 382.761 933.432 381.989 935.447 381.61C936.248 381.45 936.938 381.427 937.517 381.541C938.878 381.808 939.722 382.748 940.048 384.362C940.635 387.188 940.833 390.432 940.641 394.091C940.449 397.751 939.844 401.347 938.826 404.879C937.375 409.911 935.149 414.017 932.147 417.195C929.145 420.373 925.52 422.531 921.273 423.669C917.025 424.807 912.349 424.875 907.244 423.872C902.377 422.917 898.365 421.055 895.208 418.287C892.05 415.519 889.969 412.135 888.965 408.135C887.926 404.128 888.075 399.809 889.41 395.176ZM896.812 396.63C895.631 400.729 895.723 404.339 897.089 407.459C898.43 410.539 900.87 412.867 904.407 414.442L913.212 383.899C909.096 383.83 905.652 384.862 902.88 386.994C900.084 389.085 898.061 392.298 896.812 396.63Z" fill="white"/>
<path d="M885.54 342.779C885.948 341.673 886.505 340.959 887.211 340.639C887.896 340.277 888.86 340.252 890.105 340.565L946.013 354.597L951.787 338.927C952.195 337.82 952.752 337.107 953.458 336.786C954.143 336.425 955.107 336.4 956.352 336.713C957.596 337.025 958.398 337.493 958.756 338.116C959.093 338.698 959.057 339.543 958.65 340.649L944.548 378.92C944.14 380.027 943.594 380.761 942.91 381.122C942.203 381.443 941.228 381.447 939.983 381.135C938.739 380.822 937.948 380.375 937.611 379.793C937.253 379.17 937.278 378.305 937.685 377.198L943.315 361.919L890.838 348.748L885.927 362.075C885.52 363.181 884.974 363.915 884.289 364.277C883.583 364.597 882.608 364.602 881.363 364.289C880.118 363.977 879.328 363.529 878.991 362.947C878.633 362.324 878.657 361.459 879.065 360.353L885.54 342.779Z" fill="white"/>
<path d="M920.502 302.24C922.641 297.689 925.437 294.124 928.891 291.547C932.327 288.927 936.168 287.304 940.414 286.677C944.628 286.04 949.023 286.31 953.601 287.487C954.724 287.846 955.406 288.335 955.647 288.954C955.903 289.542 955.78 290.369 955.278 291.436L939.256 325.524C944.281 326.88 948.662 326.694 952.401 324.965C956.121 323.195 959.08 319.972 961.279 315.295C962.636 312.407 963.599 309.429 964.167 306.361C964.702 303.282 964.827 300.47 964.542 297.923C964.495 297.294 964.576 296.76 964.782 296.321C965.298 295.222 966.594 294.608 968.669 294.478C969.496 294.417 970.19 294.477 970.751 294.657C972.073 295.08 972.772 296.098 972.85 297.712C973.002 300.541 972.7 303.731 971.943 307.28C971.187 310.83 970.027 314.268 968.463 317.595C966.235 322.335 963.374 326.077 959.879 328.822C956.385 331.567 952.424 333.243 947.998 333.848C943.571 334.453 938.881 333.962 933.926 332.376C929.202 330.863 925.474 328.568 922.741 325.49C920.007 322.412 918.446 318.861 918.058 314.837C917.636 310.802 918.451 306.603 920.502 302.24ZM927.686 304.54C925.871 308.401 925.407 311.935 926.293 315.144C927.16 318.311 929.243 320.873 932.541 322.832L946.062 294.065C941.954 293.508 938.348 294.105 935.245 295.856C932.124 297.565 929.604 300.46 927.686 304.54Z" fill="white"/>
<path d="M943.862 255.655C946.107 251.987 949.061 249.097 952.724 246.986C956.355 244.861 960.439 243.704 964.974 243.515C969.477 243.313 974.098 244.2 978.835 246.175C983.573 248.15 987.196 250.7 989.703 253.824C992.179 256.935 993.474 260.334 993.588 264.021C993.671 267.694 992.589 271.364 990.344 275.032C986.941 280.594 981.43 284.182 973.812 285.796L992.78 293.703L997.451 286.071C998.066 285.065 998.741 284.455 999.475 284.241C1000.26 284.011 1001.24 284.142 1002.43 284.636C1003.61 285.13 1004.31 285.699 1004.52 286.343C1004.78 286.97 1004.6 287.787 1003.98 288.793L992.467 307.607C991.851 308.613 991.151 309.231 990.368 309.461C989.634 309.675 988.675 309.535 987.49 309.041C986.306 308.548 985.584 307.987 985.326 307.359C985.117 306.715 985.32 305.89 985.936 304.885L988.706 300.359L938.767 279.54L936.54 283.179C935.924 284.185 935.241 284.809 934.489 285.053C933.723 285.254 932.748 285.107 931.564 284.613C930.379 284.12 929.674 283.565 929.447 282.951C929.206 282.294 929.394 281.462 930.009 280.457L934.327 273.401C934.943 272.396 935.633 271.792 936.399 271.592C937.151 271.348 938.119 271.473 939.303 271.967L943.145 273.568C941.661 270.61 940.965 267.61 941.06 264.568C941.154 261.525 942.088 258.555 943.862 255.655ZM950.698 259.062C949.086 261.695 948.287 264.313 948.3 266.918C948.331 269.493 949.201 271.879 950.91 274.076C952.637 276.244 955.165 278.022 958.494 279.41C961.824 280.798 965.058 281.422 968.197 281.283C971.354 281.114 974.198 280.276 976.727 278.768C979.275 277.231 981.355 275.146 982.966 272.514C984.577 269.881 985.29 267.338 985.104 264.884C984.887 262.417 983.86 260.188 982.024 258.198C980.207 256.178 977.714 254.507 974.545 253.186C971.375 251.865 968.266 251.2 965.218 251.191C962.188 251.153 959.421 251.801 956.917 253.134C954.382 254.453 952.309 256.429 950.698 259.062Z" fill="white"/>
<path d="M970.018 213.834C973.09 210.209 976.79 207.479 981.119 205.643C985.448 203.808 989.974 203.032 994.699 203.316C999.415 203.556 1003.86 204.881 1008.04 207.291C1012.21 209.701 1015.26 212.702 1017.18 216.293C1019.1 219.841 1019.75 223.608 1019.15 227.593C1018.54 231.579 1016.7 235.384 1013.63 239.009C1010.56 242.634 1006.86 245.364 1002.53 247.2C998.203 249.035 993.68 249.833 988.963 249.593C984.239 249.309 979.789 247.962 975.614 245.552C971.439 243.142 968.394 240.163 966.48 236.615C964.558 233.024 963.9 229.235 964.504 225.25C965.108 221.264 966.946 217.459 970.018 213.834ZM976.686 217.683C974.511 220.25 973.24 222.885 972.872 225.588C972.497 228.248 973.017 230.775 974.433 233.168C975.819 235.544 977.984 237.582 980.928 239.281C983.872 240.98 986.948 241.968 990.158 242.245C993.338 242.504 996.392 242.041 999.321 240.854C1002.24 239.625 1004.79 237.726 1006.96 235.16C1009.14 232.593 1010.41 229.98 1010.79 227.32C1011.16 224.617 1010.65 222.077 1009.26 219.701C1007.85 217.308 1005.67 215.261 1002.72 213.562C999.779 211.863 996.717 210.884 993.537 210.625C990.328 210.348 987.262 210.824 984.341 212.054C981.413 213.24 978.861 215.117 976.686 217.683Z" fill="white"/>
<path d="M1019.38 161.962C1021.56 160.365 1024.11 159.343 1027.03 158.896C1028.76 158.645 1030.11 158.968 1031.07 159.866C1031.53 160.292 1031.94 160.88 1032.29 161.632C1033.15 163.409 1033.06 164.676 1032.03 165.434C1031.61 165.741 1031.12 165.933 1030.55 166.01C1028.49 166.375 1026.68 167.131 1025.11 168.278C1022.59 170.121 1020.86 172.718 1019.91 176.07C1018.94 179.399 1018.94 182.897 1019.93 186.563C1020.95 190.208 1022.94 193.414 1025.91 196.179L1033.3 203.057L1047.45 192.707C1048.4 192.011 1049.27 191.709 1050.07 191.8C1050.87 191.848 1051.74 192.309 1052.68 193.183C1053.62 194.058 1054.08 194.838 1054.07 195.523C1054.06 196.164 1053.58 196.833 1052.62 197.529L1025.58 217.308C1024.63 218.004 1023.75 218.329 1022.95 218.281C1022.16 218.19 1021.29 217.707 1020.35 216.832C1019.41 215.958 1018.94 215.2 1018.96 214.559C1018.97 213.873 1019.45 213.183 1020.4 212.486L1027 207.664L1002.17 184.548L996.841 188.449C995.889 189.145 995.013 189.469 994.212 189.422C993.414 189.331 992.546 188.848 991.607 187.973C990.667 187.098 990.204 186.341 990.215 185.699C990.229 185.014 990.711 184.323 991.663 183.627L1000.23 177.362C1001.18 176.666 1002.06 176.363 1002.85 176.455C1003.65 176.502 1004.52 176.963 1005.46 177.838L1013.15 184.999C1012.26 181.937 1011.93 178.929 1012.16 175.977C1012.39 173.025 1013.13 170.335 1014.37 167.907C1015.61 165.48 1017.28 163.498 1019.38 161.962Z" fill="white"/>
<path d="M1045.84 122.989C1047.22 122.636 1048.28 122.63 1049.04 122.97C1049.79 123.311 1050.38 124.049 1050.81 125.186L1056.3 139.794L1077.02 134.489C1078.16 134.196 1079.06 134.249 1079.73 134.648C1080.42 135.006 1080.98 135.786 1081.44 136.987C1081.89 138.188 1081.96 139.113 1081.65 139.761C1081.36 140.369 1080.65 140.819 1079.51 141.111L1058.79 146.417L1065.46 164.141C1066.85 167.842 1068.52 170.385 1070.48 171.77C1072.47 173.146 1075.11 173.413 1078.41 172.569C1080.66 171.993 1082.86 170.948 1085.02 169.435C1087.18 167.921 1089.14 166.137 1090.91 164.083C1091.26 163.638 1091.72 163.342 1092.29 163.196C1093.43 162.903 1094.68 163.4 1096.05 164.687C1096.81 165.419 1097.3 166.094 1097.53 166.71C1097.92 167.749 1097.68 168.735 1096.82 169.668C1094.8 171.93 1092.37 173.994 1089.53 175.859C1086.69 177.691 1083.87 178.965 1081.08 179.679C1075.37 181.142 1070.65 180.785 1066.92 178.608C1063.21 176.39 1060.29 172.424 1058.14 166.711L1051.23 148.353L1041 150.973C1039.86 151.266 1038.95 151.233 1038.26 150.875C1037.59 150.476 1037.03 149.676 1036.58 148.475C1036.13 147.274 1036.05 146.37 1036.34 145.762C1036.64 145.114 1037.37 144.643 1038.51 144.351L1048.74 141.73L1043.25 127.122C1042.82 125.986 1042.8 125.101 1043.19 124.468C1043.58 123.834 1044.46 123.341 1045.84 122.989Z" fill="white"/>
<path d="M1134.31 121.392C1140.64 122.962 1144.88 125.508 1147.05 129.031C1149.22 132.553 1149.32 137.003 1147.36 142.38L1140.28 161.835C1139.34 164.41 1139.98 165.973 1142.2 166.524L1143.97 166.962C1145.12 167.246 1145.83 167.707 1146.11 168.346C1146.44 168.96 1146.38 169.87 1145.94 171.075C1145.5 172.281 1144.94 173.082 1144.24 173.478C1143.59 173.85 1142.7 173.894 1141.55 173.61L1138.32 172.809C1136.13 172.266 1134.44 171.277 1133.23 169.841C1132.08 168.382 1131.64 166.567 1131.91 164.397C1128.3 166.059 1124.64 167.124 1120.95 167.593C1117.29 168.071 1113.66 167.863 1110.05 166.97C1106.65 166.126 1103.84 164.825 1101.62 163.065C1099.45 161.282 1098.01 159.131 1097.31 156.613C1096.61 154.094 1096.8 151.352 1097.88 148.387C1099.76 143.238 1103.04 139.913 1107.74 138.413C1112.44 136.879 1117.81 136.86 1123.84 138.355C1129.19 139.683 1134 141.783 1138.28 144.656L1139.79 140.501C1140.94 137.34 1140.86 134.797 1139.54 132.871C1138.27 130.921 1135.6 129.441 1131.52 128.43C1129 127.804 1126.25 127.495 1123.27 127.503C1120.3 127.511 1117.36 127.813 1114.46 128.409C1113.79 128.56 1113.21 128.577 1112.74 128.46C1111.63 128.185 1110.99 127.173 1110.82 125.425C1110.73 124.551 1110.78 123.853 1110.97 123.332C1111.39 122.191 1112.33 121.466 1113.8 121.156C1117.15 120.423 1120.58 120.083 1124.08 120.135C1127.63 120.163 1131.04 120.582 1134.31 121.392ZM1121.38 145.26C1117.5 144.3 1114.2 144.192 1111.47 144.936C1108.79 145.655 1106.94 147.417 1105.92 150.219C1105.05 152.598 1105.21 154.665 1106.41 156.418C1107.65 158.148 1109.8 159.392 1112.87 160.152C1119.57 161.814 1126.59 160.624 1133.93 156.583L1135.87 151.255C1133.85 149.97 1131.58 148.823 1129.09 147.813C1126.61 146.771 1124.03 145.92 1121.38 145.26Z" fill="white"/>
<path d="M1203.17 131.278C1204.32 132.11 1204.95 132.878 1205.05 133.58C1205.15 134.282 1204.76 135.05 1203.87 135.882L1192.52 146.587L1209.85 159.111C1210.8 159.802 1211.27 160.48 1211.26 161.145C1211.31 161.806 1210.86 162.577 1209.93 163.457C1208.99 164.337 1208.11 164.815 1207.29 164.891C1206.52 164.964 1205.65 164.654 1204.7 163.964L1187.37 151.44L1173.59 164.428C1170.71 167.139 1169.15 169.522 1168.91 171.575C1168.69 173.648 1169.97 175.68 1172.72 177.671C1174.6 179.032 1176.93 180.143 1179.69 181.004C1182.45 181.865 1185.37 182.462 1188.44 182.793C1189.09 182.839 1189.65 183.035 1190.13 183.381C1191.08 184.071 1191.32 185.208 1190.83 186.789C1190.54 187.672 1190.16 188.339 1189.68 188.791C1188.87 189.553 1187.75 189.836 1186.32 189.641C1182.89 189.222 1179.42 188.418 1175.91 187.229C1172.43 186.016 1169.53 184.567 1167.19 182.881C1162.41 179.427 1160.02 175.851 1160.03 172.153C1160.08 168.451 1162.33 164.507 1166.77 160.321L1181.04 146.869L1172.48 140.683C1171.53 139.992 1171.03 139.316 1170.98 138.654C1170.99 137.989 1171.47 137.217 1172.4 136.337C1173.33 135.456 1174.19 134.98 1174.96 134.908C1175.78 134.832 1176.68 135.139 1177.63 135.83L1186.19 142.016L1197.55 131.311C1198.43 130.479 1199.3 130.057 1200.16 130.045C1201.01 130.034 1202.02 130.445 1203.17 131.278Z" fill="white"/>
<path d="M1246.67 185.786C1247.44 186.682 1247.74 187.454 1247.57 188.103C1247.46 188.76 1246.85 189.411 1245.74 190.057L1213.37 208.902L1224.22 221.597C1224.99 222.493 1225.29 223.266 1225.12 223.914C1225.01 224.571 1224.4 225.223 1223.29 225.868C1222.18 226.514 1221.22 226.779 1220.4 226.662C1219.64 226.555 1218.87 226.053 1218.11 225.157L1191.61 194.152C1190.84 193.256 1190.51 192.479 1190.62 191.822C1190.79 191.173 1191.42 190.526 1192.53 189.881C1193.64 189.235 1194.58 188.966 1195.34 189.073C1196.16 189.19 1196.95 189.696 1197.72 190.592L1208.3 202.97L1237.61 185.905L1229.06 175.899C1228.3 175.003 1227.97 174.226 1228.08 173.569C1228.24 172.921 1228.88 172.274 1229.99 171.628C1231.1 170.982 1232.04 170.713 1232.8 170.821C1233.62 170.937 1234.41 171.443 1235.18 172.34L1246.67 185.786ZM1265.32 173.03C1266.56 174.48 1267.18 175.599 1267.19 176.388C1267.22 177.16 1266.69 177.86 1265.61 178.488L1259.77 181.89C1258.69 182.519 1257.7 182.7 1256.8 182.434C1255.93 182.151 1254.87 181.285 1253.64 179.835C1252.4 178.385 1251.76 177.274 1251.73 176.502C1251.73 175.713 1252.27 175.005 1253.35 174.377L1259.19 170.974C1260.27 170.346 1261.24 170.173 1262.12 170.456C1263.02 170.722 1264.09 171.579 1265.32 173.03Z" fill="white"/>
<path d="M1279.28 225.04C1281.79 229.076 1283.06 233.133 1283.09 237.212C1283.12 241.29 1281.93 244.993 1279.52 248.32C1277.16 251.662 1273.76 254.273 1269.32 256.152C1264.88 258.031 1260.31 258.792 1255.62 258.437C1250.97 258.097 1246.65 256.726 1242.65 254.323C1238.66 251.921 1235.41 248.701 1232.9 244.665C1230.39 240.629 1229.12 236.572 1229.09 232.493C1229.06 228.415 1230.22 224.704 1232.58 221.361C1234.99 218.035 1238.42 215.432 1242.86 213.553C1247.3 211.674 1251.84 210.905 1256.49 211.244C1261.19 211.6 1265.53 212.979 1269.53 215.382C1273.52 217.784 1276.77 221.004 1279.28 225.04ZM1272.19 228.04C1270.41 225.183 1268.16 222.954 1265.43 221.356C1262.76 219.773 1259.82 218.912 1256.63 218.775C1253.47 218.624 1250.33 219.21 1247.2 220.535C1244.07 221.86 1241.64 223.631 1239.91 225.851C1238.21 228.056 1237.35 230.525 1237.31 233.257C1237.32 236.004 1238.22 238.807 1239.99 241.665C1241.77 244.522 1243.99 246.743 1246.67 248.325C1249.4 249.924 1252.34 250.799 1255.5 250.95C1258.69 251.088 1261.86 250.495 1264.99 249.17C1268.12 247.845 1270.53 246.08 1272.22 243.875C1273.95 241.655 1274.81 239.172 1274.8 236.424C1274.83 233.693 1273.96 230.898 1272.19 228.04Z" fill="white"/>
<path d="M1309.17 275.996C1310.52 278.848 1311.03 281.538 1310.7 284.064C1310.41 286.579 1309.31 288.795 1307.4 290.711C1305.49 292.627 1302.91 294.112 1299.64 295.166L1275.67 302.895L1277.5 306.75C1278 307.816 1278.1 308.653 1277.78 309.263C1277.5 309.892 1276.76 310.404 1275.54 310.798C1274.31 311.192 1273.33 311.239 1272.58 310.939C1271.87 310.66 1271.27 309.988 1270.77 308.922L1263.55 293.687C1263.05 292.622 1262.93 291.774 1263.2 291.144C1263.53 290.535 1264.3 290.033 1265.52 289.639C1266.74 289.245 1267.7 289.188 1268.4 289.467C1269.15 289.767 1269.78 290.45 1270.29 291.516L1272.33 295.842L1295.56 288.353C1298.49 287.405 1300.52 286.012 1301.62 284.173C1302.73 282.335 1302.69 280.161 1301.51 277.654C1300.24 274.989 1298.26 272.758 1295.54 270.96C1292.84 269.193 1289.74 268.078 1286.25 267.614C1282.76 267.151 1279.26 267.483 1275.76 268.611L1261.6 273.178L1263.65 277.504C1264.16 278.57 1264.25 279.407 1263.93 280.016C1263.66 280.646 1262.91 281.158 1261.69 281.552C1260.47 281.946 1259.48 281.993 1258.73 281.693C1258.03 281.414 1257.42 280.741 1256.92 279.675L1249.71 264.441C1249.2 263.375 1249.08 262.527 1249.36 261.897C1249.68 261.288 1250.45 260.787 1251.67 260.393C1252.89 259.999 1253.85 259.942 1254.56 260.221C1255.31 260.521 1255.93 261.204 1256.44 262.269L1258.26 266.125L1290.55 255.714L1288.28 250.918C1287.77 249.852 1287.66 249.004 1287.93 248.375C1288.25 247.765 1289.02 247.264 1290.24 246.87C1291.46 246.476 1292.42 246.419 1293.13 246.698C1293.88 246.998 1294.51 247.681 1295.01 248.747L1299 257.163C1299.5 258.229 1299.59 259.066 1299.27 259.675C1299 260.305 1298.25 260.817 1297.03 261.211L1291.09 263.127C1295.44 264.11 1299.15 265.694 1302.24 267.877C1305.35 270.092 1307.65 272.799 1309.17 275.996Z" fill="white"/>
</svg>
