<svg width="459" height="1432" viewBox="0 0 459 1432" fill="none" xmlns="http://www.w3.org/2000/svg">
<path d="M543.959 458.47L377.09 701.159" stroke="white" stroke-width="6.34101"/>
<path d="M559.177 534.563L392.309 777.251" stroke="white" stroke-width="6.34101"/>
<path d="M574.395 623.337L407.527 866.025" stroke="white" stroke-width="6.34101"/>
<path d="M486.893 771.717L320.025 1014.41" stroke="white" stroke-width="6.34101"/>
<path d="M460.26 701.965L293.392 944.654" stroke="white" stroke-width="6.34101"/>
<path d="M434.895 634.751L268.027 877.439" stroke="white" stroke-width="6.34101"/>
<circle cx="381.497" cy="681.998" r="25.9981" fill="white"/>
<circle cx="390.497" cy="770.873" r="25.9981" fill="white"/>
<circle cx="419.745" cy="848.498" r="25.9981" fill="white"/>
<circle cx="329.745" cy="1001.5" r="25.9981" fill="white"/>
<circle cx="309.496" cy="929.498" r="25.9981" fill="white"/>
<circle cx="277.996" cy="857.498" r="25.9981" fill="white"/>
<path d="M320.318 855.596L153.45 1098.28" stroke="white" stroke-width="6.34101"/>
<path d="M335.537 931.688L168.668 1174.38" stroke="white" stroke-width="6.34101"/>
<path d="M350.755 1020.46L183.887 1263.15" stroke="white" stroke-width="6.34101"/>
<path d="M263.251 1168.84L96.3825 1411.53" stroke="white" stroke-width="6.34101"/>
<path d="M236.618 1099.09L69.7494 1341.78" stroke="white" stroke-width="6.34101"/>
<path d="M211.255 1031.88L44.3869 1274.56" stroke="white" stroke-width="6.34101"/>
<circle cx="152.816" cy="1091.54" r="25.9981" fill="white"/>
<circle cx="168.034" cy="1179.05" r="25.9981" fill="white"/>
<circle cx="185.792" cy="1256.41" r="25.9981" fill="white"/>
<circle cx="95.7462" cy="1404.79" r="25.9981" fill="white"/>
<circle cx="62.7746" cy="1347.72" r="25.9981" fill="white"/>
<circle cx="25.9973" cy="1289.38" r="25.9981" fill="white"/>
<path d="M594.583 19.7205L427.715 262.409" stroke="white" stroke-width="6.34101"/>
<path d="M609.802 95.8127L442.933 338.501" stroke="white" stroke-width="6.34101"/>
<path d="M625.02 184.587L458.152 427.275" stroke="white" stroke-width="6.34101"/>
<path d="M537.516 332.967L370.647 575.655" stroke="white" stroke-width="6.34101"/>
<path d="M510.883 263.215L344.014 505.904" stroke="white" stroke-width="6.34101"/>
<path d="M485.52 196.001L318.652 438.689" stroke="white" stroke-width="6.34101"/>
<circle cx="427.081" cy="255.668" r="25.9981" fill="white"/>
<circle cx="442.299" cy="343.174" r="25.9981" fill="white"/>
<circle cx="460.057" cy="420.534" r="25.9981" fill="white"/>
<circle cx="366.869" cy="586.373" r="25.9981" fill="white"/>
<circle cx="337.04" cy="511.845" r="25.9981" fill="white"/>
<circle cx="300.262" cy="453.507" r="25.9981" fill="white"/>
<path d="M370.942 416.845L204.074 659.534" stroke="white" stroke-width="6.34101"/>
<path d="M386.161 492.938L219.292 735.626" stroke="white" stroke-width="6.34101"/>
<path d="M401.379 581.712L234.511 824.4" stroke="white" stroke-width="6.34101"/>
<path d="M313.875 730.092L147.006 972.78" stroke="white" stroke-width="6.34101"/>
<path d="M287.242 660.341L120.373 903.029" stroke="white" stroke-width="6.34101"/>
<path d="M261.879 593.126L95.0108 835.814" stroke="white" stroke-width="6.34101"/>
<circle cx="203.442" cy="652.793" r="25.9981" fill="white"/>
<circle cx="203.747" cy="744.998" r="25.9981" fill="white"/>
<circle cx="226.246" cy="823.748" r="25.9981" fill="white"/>
<circle cx="146.372" cy="966.039" r="25.9981" fill="white"/>
<circle cx="113.398" cy="908.97" r="25.9981" fill="white"/>
<circle cx="76.6212" cy="850.633" r="25.9981" fill="white"/>
</svg>
